G04*
G04 #@! TF.GenerationSoftware,Altium Limited,Altium Designer,25.8.1 (18)*
G04*
G04 Layer_Color=128*
%FSLAX44Y44*%
%MOMM*%
G71*
G04*
G04 #@! TF.SameCoordinates,BF8AE3AB-10A6-47A9-9AB8-1695DD9DDF60*
G04*
G04*
G04 #@! TF.FilePolarity,Positive*
G04*
G01*
G75*
%ADD12C,0.1270*%
D12*
X331150Y303040D02*
X341950D01*
X336550Y297640D02*
Y308440D01*
X331150Y320040D02*
X341950D01*
X336550Y314640D02*
Y325440D01*
X331150Y354040D02*
X341950D01*
X336550Y348641D02*
Y359440D01*
X331150Y337040D02*
X341950D01*
X336550Y331640D02*
Y342440D01*
X331150Y371040D02*
X341950D01*
X336550Y365640D02*
Y376440D01*
X258640Y457200D02*
X267140D01*
X262890Y452950D02*
Y461450D01*
X258640Y433070D02*
X267140D01*
X262890Y428820D02*
Y437320D01*
X482160Y378460D02*
X490660D01*
X486410Y374210D02*
Y382710D01*
X447389Y462280D02*
X463531D01*
X455460Y454209D02*
Y470351D01*
X402400Y360280D02*
X410400D01*
X406400Y356280D02*
Y364280D01*
X677490Y149860D02*
X686490D01*
X681990Y145360D02*
Y154360D01*
X642030Y113030D02*
X650030D01*
X646030Y109030D02*
Y117030D01*
X617530Y41650D02*
X624530D01*
X621030Y38150D02*
Y45150D01*
X402400Y81680D02*
X410400D01*
X406400Y77680D02*
Y85680D01*
X463899Y48260D02*
X480041D01*
X471970Y40189D02*
Y56331D01*
X182440Y457200D02*
X190940D01*
X186690Y452950D02*
Y461450D01*
X130620Y385680D02*
X138620D01*
X134620Y381680D02*
Y389680D01*
X130930Y223520D02*
X142930D01*
X136930Y217520D02*
Y229520D01*
X35109Y403060D02*
X51251D01*
X43180Y394989D02*
Y411131D01*
X326070Y111270D02*
X336870D01*
X331470Y105870D02*
Y116670D01*
X326070Y77270D02*
X336870D01*
X331470Y71870D02*
Y82670D01*
X218000Y162560D02*
X226500D01*
X222250Y158310D02*
Y166810D01*
X35109Y164300D02*
X51251D01*
X43180Y156229D02*
Y172371D01*
X142360Y22860D02*
X154360D01*
X148360Y16860D02*
Y28860D01*
X135700Y79140D02*
X143700D01*
X139700Y75140D02*
Y83140D01*
X497389Y462280D02*
X513531D01*
X505460Y454209D02*
Y470351D01*
X402400Y310280D02*
X410400D01*
X406400Y306280D02*
Y314280D01*
X592030Y113030D02*
X600030D01*
X596030Y109030D02*
Y117030D01*
X513899Y48260D02*
X530041D01*
X521970Y40189D02*
Y56331D01*
X402400Y131680D02*
X410400D01*
X406400Y127680D02*
Y135680D01*
X326070Y145270D02*
X336870D01*
X331470Y139870D02*
Y150670D01*
X520260Y302260D02*
X528760D01*
X524510Y298010D02*
Y306510D01*
X520260Y378460D02*
X528760D01*
X524510Y374210D02*
Y382710D01*
X482160Y302260D02*
X490660D01*
X486410Y298010D02*
Y306510D01*
X559630Y162560D02*
X568130D01*
X563880Y158310D02*
Y166810D01*
X559630Y137160D02*
X568130D01*
X563880Y132910D02*
Y141410D01*
X584780Y430530D02*
X593780D01*
X589280Y426030D02*
Y435030D01*
X639640Y375920D02*
X648140D01*
X643890Y371670D02*
Y380170D01*
X483430Y162560D02*
X491930D01*
X487680Y158310D02*
Y166810D01*
X610180Y430530D02*
X619180D01*
X614680Y426030D02*
Y435030D01*
X677490Y251460D02*
X686490D01*
X681990Y246960D02*
Y255960D01*
X617530Y72650D02*
X624530D01*
X621030Y69150D02*
Y76150D01*
X483430Y137160D02*
X491930D01*
X487680Y132910D02*
Y141410D01*
X635580Y430530D02*
X644580D01*
X640080Y426030D02*
Y435030D01*
X635580Y481330D02*
X644580D01*
X640080Y476830D02*
Y485830D01*
X584780Y481330D02*
X593780D01*
X589280Y476830D02*
Y485830D01*
X639640Y299720D02*
X648140D01*
X643890Y295470D02*
Y303970D01*
X578680Y375920D02*
X587180D01*
X582930Y371670D02*
Y380170D01*
X578680Y299720D02*
X587180D01*
X582930Y295470D02*
Y303970D01*
X235530Y223520D02*
X247530D01*
X241530Y217520D02*
Y229520D01*
X242750Y327660D02*
X251750D01*
X247250Y323160D02*
Y332160D01*
X246960Y22860D02*
X258960D01*
X252960Y16860D02*
Y28860D01*
X130620Y335680D02*
X138620D01*
X134620Y331680D02*
Y339680D01*
X192750Y327660D02*
X201750D01*
X197250Y323160D02*
Y332160D01*
X609160Y299720D02*
X617660D01*
X613410Y295470D02*
Y303970D01*
X609160Y375920D02*
X617660D01*
X613410Y371670D02*
Y380170D01*
X35109Y353060D02*
X51251D01*
X43180Y344989D02*
Y361131D01*
X35109Y114300D02*
X51251D01*
X43180Y106229D02*
Y122371D01*
X135700Y129140D02*
X143700D01*
X139700Y125140D02*
Y133140D01*
X141800Y162560D02*
X150300D01*
X146050Y158310D02*
Y166810D01*
X141800Y189230D02*
X150300D01*
X146050Y184980D02*
Y193480D01*
X218000Y189230D02*
X226500D01*
X222250Y184980D02*
Y193480D01*
X181170Y406400D02*
X189670D01*
X185420Y402150D02*
Y410650D01*
X257370Y406400D02*
X265870D01*
X261620Y402150D02*
Y410650D01*
X182440Y433070D02*
X190940D01*
X186690Y428820D02*
Y437320D01*
X326070Y128270D02*
X336870D01*
X331470Y122870D02*
Y133670D01*
X326070Y94270D02*
X336870D01*
X331470Y88870D02*
Y99670D01*
X667385Y480060D02*
X699135D01*
X683260Y464185D02*
Y495935D01*
X12065Y27940D02*
X43815D01*
X27940Y12065D02*
Y43815D01*
X12065Y480060D02*
X43815D01*
X27940Y464185D02*
Y495935D01*
X667385Y27940D02*
X699135D01*
X683260Y12065D02*
Y43815D01*
X257990Y90170D02*
X266990D01*
X262490Y85670D02*
Y94670D01*
X207990Y90170D02*
X216990D01*
X212490Y85670D02*
Y94670D01*
X677490Y226060D02*
X686490D01*
X681990Y221560D02*
Y230560D01*
X677490Y200660D02*
X686490D01*
X681990Y196160D02*
Y205160D01*
X677490Y175260D02*
X686490D01*
X681990Y170760D02*
Y179760D01*
X548200Y378460D02*
X556700D01*
X552450Y374210D02*
Y382710D01*
X548200Y302260D02*
X556700D01*
X552450Y298010D02*
Y306510D01*
X616204Y167640D02*
X623316D01*
X619760Y164084D02*
Y171196D01*
M02*
