G04*
G04 #@! TF.GenerationSoftware,Altium Limited,Altium Designer,25.8.1 (18)*
G04*
G04 Layer_Color=2752767*
%FSLAX44Y44*%
%MOMM*%
G71*
G04*
G04 #@! TF.SameCoordinates,BF8AE3AB-10A6-47A9-9AB8-1695DD9DDF60*
G04*
G04*
G04 #@! TF.FilePolarity,Positive*
G04*
G01*
G75*
%ADD12C,0.1270*%
%ADD62C,0.1693*%
D12*
X257810Y452120D02*
Y462280D01*
X267970D01*
Y452120D01*
X257810D01*
Y427990D02*
Y438150D01*
X267970D01*
Y427990D01*
X257810D01*
X481330Y373380D02*
Y383540D01*
X491490D01*
Y373380D01*
X481330D01*
X450380Y457200D02*
X452920D01*
X455460Y459740D01*
X458000Y457200D01*
X460540D01*
Y459740D01*
X458000Y462280D01*
X460540Y464820D01*
Y467360D01*
X458000D01*
X455460Y464820D01*
X452920Y467360D01*
X450380D01*
Y464820D01*
X452920Y462280D01*
X450380Y459740D01*
Y457200D01*
X403860Y357740D02*
Y355200D01*
X408940D01*
Y357740D01*
X411480D01*
Y362820D01*
X408940D01*
Y365360D01*
X403860D01*
Y362820D01*
X401320D01*
Y357740D01*
X403860D01*
X681990Y144780D02*
X684530Y147320D01*
X687070D01*
X684530Y149860D01*
X687070Y152400D01*
X684530D01*
X681990Y154940D01*
X679450Y152400D01*
X676910D01*
X679450Y149860D01*
X676910Y147320D01*
X679450D01*
X681990Y144780D01*
X643490Y110490D02*
Y107950D01*
X648570D01*
Y110490D01*
X651110D01*
Y115570D01*
X648570D01*
Y118110D01*
X643490D01*
Y115570D01*
X640950D01*
Y110490D01*
X643490D01*
X615950Y36570D02*
Y46730D01*
X626110D01*
Y36570D01*
X615950D01*
X617982Y38602D02*
Y44698D01*
X624078D01*
Y38602D01*
X617982D01*
X403860Y79140D02*
Y76600D01*
X408940D01*
Y79140D01*
X411480D01*
Y84220D01*
X408940D01*
Y86760D01*
X403860D01*
Y84220D01*
X401320D01*
Y79140D01*
X403860D01*
X466890Y43180D02*
X469430D01*
X471970Y45720D01*
X474510Y43180D01*
X477050D01*
Y45720D01*
X474510Y48260D01*
X477050Y50800D01*
Y53340D01*
X474510D01*
X471970Y50800D01*
X469430Y53340D01*
X466890D01*
Y50800D01*
X469430Y48260D01*
X466890Y45720D01*
Y43180D01*
X181610Y452120D02*
Y462280D01*
X191770D01*
Y452120D01*
X181610D01*
X132080Y383140D02*
Y380600D01*
X137160D01*
Y383140D01*
X139700D01*
Y388220D01*
X137160D01*
Y390760D01*
X132080D01*
Y388220D01*
X129540D01*
Y383140D01*
X132080D01*
X136930Y218440D02*
X131850Y228600D01*
X142010D01*
X136930Y218440D01*
X38100Y397980D02*
X40640D01*
X43180Y400520D01*
X45720Y397980D01*
X48260D01*
Y400520D01*
X45720Y403060D01*
X48260Y405600D01*
Y408140D01*
X45720D01*
X43180Y405600D01*
X40640Y408140D01*
X38100D01*
Y405600D01*
X40640Y403060D01*
X38100Y400520D01*
Y397980D01*
X217170Y157480D02*
Y167640D01*
X227330D01*
Y157480D01*
X217170D01*
X38100Y159220D02*
X40640D01*
X43180Y161760D01*
X45720Y159220D01*
X48260D01*
Y161760D01*
X45720Y164300D01*
X48260Y166840D01*
Y169380D01*
X45720D01*
X43180Y166840D01*
X40640Y169380D01*
X38100D01*
Y166840D01*
X40640Y164300D01*
X38100Y161760D01*
Y159220D01*
X148360Y17780D02*
X143280Y27940D01*
X153440D01*
X148360Y17780D01*
X137160Y76600D02*
Y74060D01*
X142240D01*
Y76600D01*
X144780D01*
Y81680D01*
X142240D01*
Y84220D01*
X137160D01*
Y81680D01*
X134620D01*
Y76600D01*
X137160D01*
X500380Y457200D02*
X502920D01*
X505460Y459740D01*
X508000Y457200D01*
X510540D01*
Y459740D01*
X508000Y462280D01*
X510540Y464820D01*
Y467360D01*
X508000D01*
X505460Y464820D01*
X502920Y467360D01*
X500380D01*
Y464820D01*
X502920Y462280D01*
X500380Y459740D01*
Y457200D01*
X403860Y307740D02*
Y305200D01*
X408940D01*
Y307740D01*
X411480D01*
Y312820D01*
X408940D01*
Y315360D01*
X403860D01*
Y312820D01*
X401320D01*
Y307740D01*
X403860D01*
X593490Y110490D02*
Y107950D01*
X598570D01*
Y110490D01*
X601110D01*
Y115570D01*
X598570D01*
Y118110D01*
X593490D01*
Y115570D01*
X590950D01*
Y110490D01*
X593490D01*
X516890Y43180D02*
X519430D01*
X521970Y45720D01*
X524510Y43180D01*
X527050D01*
Y45720D01*
X524510Y48260D01*
X527050Y50800D01*
Y53340D01*
X524510D01*
X521970Y50800D01*
X519430Y53340D01*
X516890D01*
Y50800D01*
X519430Y48260D01*
X516890Y45720D01*
Y43180D01*
X403860Y129140D02*
Y126600D01*
X408940D01*
Y129140D01*
X411480D01*
Y134220D01*
X408940D01*
Y136760D01*
X403860D01*
Y134220D01*
X401320D01*
Y129140D01*
X403860D01*
X519430Y297180D02*
Y307340D01*
X529590D01*
Y297180D01*
X519430D01*
Y373380D02*
Y383540D01*
X529590D01*
Y373380D01*
X519430D01*
X481330Y297180D02*
Y307340D01*
X491490D01*
Y297180D01*
X481330D01*
X558800Y157480D02*
Y167640D01*
X568960D01*
Y157480D01*
X558800D01*
Y132080D02*
Y142240D01*
X568960D01*
Y132080D01*
X558800D01*
X589280Y425450D02*
X591820Y427990D01*
X594360D01*
X591820Y430530D01*
X594360Y433070D01*
X591820D01*
X589280Y435610D01*
X586740Y433070D01*
X584200D01*
X586740Y430530D01*
X584200Y427990D01*
X586740D01*
X589280Y425450D01*
X638810Y370840D02*
Y381000D01*
X648970D01*
Y370840D01*
X638810D01*
X482600Y157480D02*
Y167640D01*
X492760D01*
Y157480D01*
X482600D01*
X614680Y425450D02*
X617220Y427990D01*
X619760D01*
X617220Y430530D01*
X619760Y433070D01*
X617220D01*
X614680Y435610D01*
X612140Y433070D01*
X609600D01*
X612140Y430530D01*
X609600Y427990D01*
X612140D01*
X614680Y425450D01*
X681990Y246380D02*
X684530Y248920D01*
X687070D01*
X684530Y251460D01*
X687070Y254000D01*
X684530D01*
X681990Y256540D01*
X679450Y254000D01*
X676910D01*
X679450Y251460D01*
X676910Y248920D01*
X679450D01*
X681990Y246380D01*
X615950Y67570D02*
Y77730D01*
X626110D01*
Y67570D01*
X615950D01*
X617982Y69602D02*
Y75698D01*
X624078D01*
Y69602D01*
X617982D01*
X482600Y132080D02*
Y142240D01*
X492760D01*
Y132080D01*
X482600D01*
X640080Y425450D02*
X642620Y427990D01*
X645160D01*
X642620Y430530D01*
X645160Y433070D01*
X642620D01*
X640080Y435610D01*
X637540Y433070D01*
X635000D01*
X637540Y430530D01*
X635000Y427990D01*
X637540D01*
X640080Y425450D01*
Y476250D02*
X642620Y478790D01*
X645160D01*
X642620Y481330D01*
X645160Y483870D01*
X642620D01*
X640080Y486410D01*
X637540Y483870D01*
X635000D01*
X637540Y481330D01*
X635000Y478790D01*
X637540D01*
X640080Y476250D01*
X589280D02*
X591820Y478790D01*
X594360D01*
X591820Y481330D01*
X594360Y483870D01*
X591820D01*
X589280Y486410D01*
X586740Y483870D01*
X584200D01*
X586740Y481330D01*
X584200Y478790D01*
X586740D01*
X589280Y476250D01*
X638810Y294640D02*
Y304800D01*
X648970D01*
Y294640D01*
X638810D01*
X577850Y370840D02*
Y381000D01*
X588010D01*
Y370840D01*
X577850D01*
Y294640D02*
Y304800D01*
X588010D01*
Y294640D01*
X577850D01*
X241530Y218440D02*
X236450Y228600D01*
X246610D01*
X241530Y218440D01*
X247250Y322580D02*
X249790Y325120D01*
X252330D01*
X249790Y327660D01*
X252330Y330200D01*
X249790D01*
X247250Y332740D01*
X244710Y330200D01*
X242170D01*
X244710Y327660D01*
X242170Y325120D01*
X244710D01*
X247250Y322580D01*
X252960Y17780D02*
X247880Y27940D01*
X258040D01*
X252960Y17780D01*
X132080Y333140D02*
Y330600D01*
X137160D01*
Y333140D01*
X139700D01*
Y338220D01*
X137160D01*
Y340760D01*
X132080D01*
Y338220D01*
X129540D01*
Y333140D01*
X132080D01*
X197250Y322580D02*
X199790Y325120D01*
X202330D01*
X199790Y327660D01*
X202330Y330200D01*
X199790D01*
X197250Y332740D01*
X194710Y330200D01*
X192170D01*
X194710Y327660D01*
X192170Y325120D01*
X194710D01*
X197250Y322580D01*
X608330Y294640D02*
Y304800D01*
X618490D01*
Y294640D01*
X608330D01*
Y370840D02*
Y381000D01*
X618490D01*
Y370840D01*
X608330D01*
X38100Y347980D02*
X40640D01*
X43180Y350520D01*
X45720Y347980D01*
X48260D01*
Y350520D01*
X45720Y353060D01*
X48260Y355600D01*
Y358140D01*
X45720D01*
X43180Y355600D01*
X40640Y358140D01*
X38100D01*
Y355600D01*
X40640Y353060D01*
X38100Y350520D01*
Y347980D01*
Y109220D02*
X40640D01*
X43180Y111760D01*
X45720Y109220D01*
X48260D01*
Y111760D01*
X45720Y114300D01*
X48260Y116840D01*
Y119380D01*
X45720D01*
X43180Y116840D01*
X40640Y119380D01*
X38100D01*
Y116840D01*
X40640Y114300D01*
X38100Y111760D01*
Y109220D01*
X137160Y126600D02*
Y124060D01*
X142240D01*
Y126600D01*
X144780D01*
Y131680D01*
X142240D01*
Y134220D01*
X137160D01*
Y131680D01*
X134620D01*
Y126600D01*
X137160D01*
X140970Y157480D02*
Y167640D01*
X151130D01*
Y157480D01*
X140970D01*
Y184150D02*
Y194310D01*
X151130D01*
Y184150D01*
X140970D01*
X217170D02*
Y194310D01*
X227330D01*
Y184150D01*
X217170D01*
X180340Y401320D02*
Y411480D01*
X190500D01*
Y401320D01*
X180340D01*
X256540D02*
Y411480D01*
X266700D01*
Y401320D01*
X256540D01*
X181610Y427990D02*
Y438150D01*
X191770D01*
Y427990D01*
X181610D01*
X678180Y480060D02*
X683260Y485140D01*
X688340Y480060D01*
X683260Y474980D01*
X678180Y480060D01*
X22860Y27940D02*
X27940Y33020D01*
X33020Y27940D01*
X27940Y22860D01*
X22860Y27940D01*
Y480060D02*
X27940Y485140D01*
X33020Y480060D01*
X27940Y474980D01*
X22860Y480060D01*
X678180Y27940D02*
X683260Y33020D01*
X688340Y27940D01*
X683260Y22860D01*
X678180Y27940D01*
X262490Y85090D02*
X265030Y87630D01*
X267570D01*
X265030Y90170D01*
X267570Y92710D01*
X265030D01*
X262490Y95250D01*
X259950Y92710D01*
X257410D01*
X259950Y90170D01*
X257410Y87630D01*
X259950D01*
X262490Y85090D01*
X212490D02*
X215030Y87630D01*
X217570D01*
X215030Y90170D01*
X217570Y92710D01*
X215030D01*
X212490Y95250D01*
X209950Y92710D01*
X207410D01*
X209950Y90170D01*
X207410Y87630D01*
X209950D01*
X212490Y85090D01*
X681990Y220980D02*
X684530Y223520D01*
X687070D01*
X684530Y226060D01*
X687070Y228600D01*
X684530D01*
X681990Y231140D01*
X679450Y228600D01*
X676910D01*
X679450Y226060D01*
X676910Y223520D01*
X679450D01*
X681990Y220980D01*
Y195580D02*
X684530Y198120D01*
X687070D01*
X684530Y200660D01*
X687070Y203200D01*
X684530D01*
X681990Y205740D01*
X679450Y203200D01*
X676910D01*
X679450Y200660D01*
X676910Y198120D01*
X679450D01*
X681990Y195580D01*
Y170180D02*
X684530Y172720D01*
X687070D01*
X684530Y175260D01*
X687070Y177800D01*
X684530D01*
X681990Y180340D01*
X679450Y177800D01*
X676910D01*
X679450Y175260D01*
X676910Y172720D01*
X679450D01*
X681990Y170180D01*
X547370Y373380D02*
Y383540D01*
X557530D01*
Y373380D01*
X547370D01*
Y297180D02*
Y307340D01*
X557530D01*
Y297180D01*
X547370D01*
X614680Y162560D02*
X617220Y167640D01*
X614680Y172720D01*
X619760Y170180D01*
X624840Y172720D01*
X622300Y167640D01*
X624840Y162560D01*
X619760Y165100D01*
X614680Y162560D01*
D62*
X341630Y303040D02*
G03*
X341630Y303040I-5080J0D01*
G01*
Y320040D02*
G03*
X341630Y320040I-5080J0D01*
G01*
Y354040D02*
G03*
X341630Y354040I-5080J0D01*
G01*
Y337040D02*
G03*
X341630Y337040I-5080J0D01*
G01*
Y371040D02*
G03*
X341630Y371040I-5080J0D01*
G01*
X336550Y111270D02*
G03*
X336550Y111270I-5080J0D01*
G01*
Y77270D02*
G03*
X336550Y77270I-5080J0D01*
G01*
Y145270D02*
G03*
X336550Y145270I-5080J0D01*
G01*
Y128270D02*
G03*
X336550Y128270I-5080J0D01*
G01*
Y94270D02*
G03*
X336550Y94270I-5080J0D01*
G01*
M02*
