G04*
G04 #@! TF.GenerationSoftware,Altium Limited,Altium Designer,25.8.1 (18)*
G04*
G04 Layer_Physical_Order=1*
G04 Layer_Color=255*
%FSLAX44Y44*%
%MOMM*%
G71*
G04*
G04 #@! TF.SameCoordinates,BF8AE3AB-10A6-47A9-9AB8-1695DD9DDF60*
G04*
G04*
G04 #@! TF.FilePolarity,Positive*
G04*
G01*
G75*
%ADD15C,0.2540*%
%ADD18R,1.6200X0.6000*%
%ADD19R,0.4064X1.2192*%
%ADD39R,4.5800X4.8000*%
%ADD40C,0.7620*%
%ADD41C,1.2700*%
%ADD42C,0.3810*%
%ADD43C,1.0160*%
%ADD44R,1.4800X1.4800*%
%ADD45C,1.4800*%
%ADD46C,1.4000*%
%ADD47R,2.4213X2.4213*%
%ADD48C,1.3500*%
%ADD49R,1.5000X1.5000*%
%ADD50C,1.3000*%
%ADD51C,2.0000*%
%ADD52R,2.4213X2.4213*%
%ADD53R,1.3500X1.3500*%
%ADD54R,1.3500X1.3500*%
%ADD55C,1.4080*%
%ADD56C,1.5000*%
%ADD57R,2.0000X2.0000*%
%ADD58C,4.1910*%
%ADD59C,1.2700*%
D15*
X673735Y502920D02*
G03*
X706120Y470535I9525J-22860D01*
G01*
X650930Y481330D02*
G03*
X650930Y481330I-10850J0D01*
G01*
X648770Y452428D02*
G03*
X643382Y454660I-5388J-5388D01*
G01*
X648773Y452425D02*
G03*
X643382Y454660I-5391J-5385D01*
G01*
X661162Y436880D02*
G03*
X658927Y442271I-7620J0D01*
G01*
X661162Y436880D02*
G03*
X658930Y442268I-7620J0D01*
G01*
X600130Y481330D02*
G03*
X600130Y481330I-10850J0D01*
G01*
X605790Y454660D02*
G03*
X600402Y452428I0J-7620D01*
G01*
X605790Y454660D02*
G03*
X600399Y452425I0J-7620D01*
G01*
X605045Y435518D02*
G03*
X612792Y419846I9635J-4988D01*
G01*
X619760Y384668D02*
G03*
X619760Y367172I-6350J-8748D01*
G01*
X589353Y441380D02*
G03*
X600130Y430530I-74J-10850D01*
G01*
X593740Y375920D02*
G03*
X593740Y375920I-10810J0D01*
G01*
X658927Y380181D02*
G03*
X661162Y385572I-5385J5391D01*
G01*
X658930Y380184D02*
G03*
X661162Y385572I-5388J5388D01*
G01*
X649605Y366744D02*
G03*
X654700Y375920I-5715J9176D01*
G01*
X704215Y288290D02*
G03*
X702541Y292331I-5715J0D01*
G01*
X702543Y221638D02*
G03*
X704215Y225677I-4043J4039D01*
G01*
Y288290D02*
G03*
X702543Y292329I-5715J0D01*
G01*
X702541Y221636D02*
G03*
X704215Y225677I-4041J4041D01*
G01*
X619760Y308468D02*
G03*
X607695Y290544I-6350J-8748D01*
G01*
X588645D02*
G03*
X593740Y299720I-5715J9176D01*
G01*
D02*
G03*
X577215Y290544I-10810J0D01*
G01*
X595902Y249654D02*
G03*
X594591Y251691I-5352J-2004D01*
G01*
X595902Y249654D02*
G03*
X594593Y251689I-5352J-2004D01*
G01*
X577215Y255270D02*
G03*
X578889Y251229I5715J0D01*
G01*
X577215Y255270D02*
G03*
X578887Y251231I5715J0D01*
G01*
X495300Y384610D02*
G03*
X486376Y389270I-8890J-6150D01*
G01*
X563260Y378460D02*
G03*
X563260Y378460I-10810J0D01*
G01*
X535320D02*
G03*
X515620Y384610I-10810J0D01*
G01*
Y372310D02*
G03*
X535320Y378460I8890J6150D01*
G01*
X475600Y378494D02*
G03*
X495300Y372310I10810J-34D01*
G01*
X447840Y409410D02*
G03*
X450072Y404022I7620J0D01*
G01*
X447840Y409410D02*
G03*
X450075Y404019I7620J0D01*
G01*
X416960Y360280D02*
G03*
X416960Y360280I-10560J0D01*
G01*
X512644Y354766D02*
G03*
X515620Y361950I-7184J7184D01*
G01*
X512644Y354766D02*
G03*
X515620Y361950I-7184J7184D01*
G01*
X453790Y300120D02*
G03*
X460974Y303096I0J10160D01*
G01*
X453790Y300120D02*
G03*
X460974Y303096I0J10160D01*
G01*
X563260Y302260D02*
G03*
X563260Y302260I-10810J0D01*
G01*
X535320D02*
G03*
X535320Y302260I-10810J0D01*
G01*
X531368Y256540D02*
G03*
X529136Y261928I-7620J0D01*
G01*
X531368Y256540D02*
G03*
X529133Y261931I-7620J0D01*
G01*
X526599Y264465D02*
G03*
X521208Y266700I-5391J-5385D01*
G01*
X526596Y264468D02*
G03*
X521208Y266700I-5388J-5388D01*
G01*
X497220Y302260D02*
G03*
X497220Y302260I-10810J0D01*
G01*
X427736Y266700D02*
G03*
X422345Y264465I0J-7620D01*
G01*
X427736Y266700D02*
G03*
X422348Y264468I0J-7620D01*
G01*
X431864Y215964D02*
G03*
X438150Y213360I6286J6286D01*
G01*
X431853Y215975D02*
G03*
X438150Y213360I6297J6275D01*
G01*
X415120Y259080D02*
G03*
X411701Y258270I0J-7620D01*
G01*
X689578Y209047D02*
G03*
X690979Y210074I-2641J5068D01*
G01*
X689578Y209047D02*
G03*
X690977Y210072I-2641J5068D01*
G01*
X673743Y208400D02*
G03*
X693300Y200660I8247J-7740D01*
G01*
D02*
G03*
X689578Y209046I-11310J0D01*
G01*
X644119Y195813D02*
G03*
X640080Y197485I-4039J-4043D01*
G01*
X693300Y175260D02*
G03*
X693300Y175260I-11310J0D01*
G01*
X644121Y195811D02*
G03*
X640080Y197485I-4041J-4041D01*
G01*
X629920Y167640D02*
G03*
X612835Y175074I-10160J0D01*
G01*
X610426Y163626D02*
G03*
X629920Y167640I9334J4014D01*
G01*
X606446Y165298D02*
G03*
X610426Y163626I4039J4043D01*
G01*
X606444Y165300D02*
G03*
X610426Y163626I4041J4041D01*
G01*
X591335Y149772D02*
G03*
X590315Y146513I4695J-3259D01*
G01*
X591335Y149772D02*
G03*
X590315Y146513I4695J-3259D01*
G01*
X601745Y144275D02*
G03*
X602765Y147534I-4695J3259D01*
G01*
X601745Y144275D02*
G03*
X602765Y147534I-4695J3259D01*
G01*
X687375Y119069D02*
G03*
X689610Y124460I-5385J5391D01*
G01*
X687378Y119072D02*
G03*
X689610Y124460I-5388J5388D01*
G01*
X670560Y105410D02*
G03*
X675951Y107645I0J7620D01*
G01*
X670560Y105410D02*
G03*
X675948Y107642I0J7620D01*
G01*
X646249Y102472D02*
G03*
X653341Y105410I-219J10558D01*
G01*
X706120Y37465D02*
G03*
X673735Y5080I-22860J-9525D01*
G01*
X640388Y50232D02*
G03*
X642620Y55620I-5388J5388D01*
G01*
X640385Y50229D02*
G03*
X642620Y55620I-5385J5391D01*
G01*
X653341Y120650D02*
G03*
X635472Y113249I-7311J-7620D01*
G01*
X629615Y107391D02*
G03*
X627380Y102000I5385J-5391D01*
G01*
X629612Y107388D02*
G03*
X627380Y102000I5388J-5388D01*
G01*
Y80772D02*
G03*
X627380Y64528I-6350J-8122D01*
G01*
X620553Y51949D02*
G03*
X631329Y41172I477J-10299D01*
G01*
X578708Y193294D02*
G03*
X580030Y191224I5365J1969D01*
G01*
X578708Y193294D02*
G03*
X580032Y191222I5365J1969D01*
G01*
X578358Y195263D02*
G03*
X578708Y193294I5715J0D01*
G01*
X578358Y195263D02*
G03*
X578708Y193294I5715J0D01*
G01*
X577469Y181864D02*
G03*
X573430Y180192I0J-5715D01*
G01*
X577469Y181864D02*
G03*
X573428Y180190I0J-5715D01*
G01*
X574690Y162560D02*
G03*
X574409Y165007I-10810J0D01*
G01*
X566327Y173089D02*
G03*
X574690Y162560I-2447J-10529D01*
G01*
Y137160D02*
G03*
X553070Y137126I-10810J0D01*
G01*
X563846Y126350D02*
G03*
X574690Y137160I34J10810D01*
G01*
X409405Y206550D02*
G03*
X420834Y206550I5714J6810D01*
G01*
X529136Y144218D02*
G03*
X531368Y149606I-5388J5388D01*
G01*
X529133Y144215D02*
G03*
X531368Y149606I-5385J5391D01*
G01*
X449580Y133858D02*
G03*
X451815Y128467I7620J0D01*
G01*
X449580Y133858D02*
G03*
X451812Y128470I7620J0D01*
G01*
X586740Y123190D02*
G03*
X585470Y123110I0J-10160D01*
G01*
X586740Y123190D02*
G03*
X585470Y123110I0J-10160D01*
G01*
D02*
G03*
X579556Y120214I1270J-10080D01*
G01*
X585470Y123110D02*
G03*
X579556Y120214I1270J-10080D01*
G01*
X550418Y116078D02*
G03*
X555809Y118313I0J7620D01*
G01*
X550418Y116078D02*
G03*
X555806Y118310I0J7620D01*
G01*
X461972D02*
G03*
X467360Y116078I5388J5388D01*
G01*
X461969Y118313D02*
G03*
X467360Y116078I5391J5385D01*
G01*
X416960Y81680D02*
G03*
X416960Y81680I-10560J0D01*
G01*
X317303Y438455D02*
G03*
X311912Y440690I-5391J-5385D01*
G01*
X317300Y438458D02*
G03*
X311912Y440690I-5388J-5388D01*
G01*
X363220Y389382D02*
G03*
X360988Y394770I-7620J0D01*
G01*
X363220Y389382D02*
G03*
X360985Y394773I-7620J0D01*
G01*
X347760Y371040D02*
G03*
X328328Y378660I-11210J0D01*
G01*
X273700Y457200D02*
G03*
X255270Y449532I-10810J0D01*
G01*
X270510D02*
G03*
X273700Y457200I-7620J7668D01*
G01*
X255270Y440738D02*
G03*
X270558Y425450I7620J-7668D01*
G01*
X272430Y406400D02*
G03*
X250810Y406366I-10810J0D01*
G01*
X261586Y395590D02*
G03*
X272430Y406400I34J10810D01*
G01*
X360985Y354019D02*
G03*
X363220Y359410I-5385J5391D01*
G01*
X360988Y354022D02*
G03*
X363220Y359410I-5388J5388D01*
G01*
X350230Y346420D02*
G03*
X355622Y348655I0J7620D01*
G01*
X350230Y346420D02*
G03*
X355619Y348652I0J7620D01*
G01*
X343859Y362540D02*
G03*
X347760Y371040I-7309J8500D01*
G01*
X344772Y361660D02*
G03*
X343859Y362540I-8222J-7620D01*
G01*
X343858Y345540D02*
G03*
X344772Y346420I-7308J8500D01*
G01*
X347760Y337040D02*
G03*
X343858Y345540I-11210J0D01*
G01*
X390290Y320440D02*
G03*
X383106Y317464I0J-10160D01*
G01*
X390290Y320440D02*
G03*
X383106Y317464I0J-10160D01*
G01*
X370836Y305194D02*
G03*
X367860Y298010I7184J-7184D01*
G01*
X370836Y305194D02*
G03*
X367860Y298010I7184J-7184D01*
G01*
X347760Y320040D02*
G03*
X343858Y328540I-11210J0D01*
G01*
D02*
G03*
X347760Y337040I-7308J8500D01*
G01*
X328328Y329420D02*
G03*
X329242Y328540I8222J7620D01*
G01*
D02*
G03*
X326951Y314250I7308J-8500D01*
G01*
X346149D02*
G03*
X347760Y320040I-9599J5790D01*
G01*
X319424Y378660D02*
G03*
X314035Y376428I0J-7620D01*
G01*
X319424Y378660D02*
G03*
X314032Y376425I0J-7620D01*
G01*
X309575Y371968D02*
G03*
X307340Y366576I5385J-5391D01*
G01*
Y342900D02*
G03*
X309572Y337512I7620J0D01*
G01*
Y371965D02*
G03*
X307340Y366576I5388J-5388D01*
G01*
X315429Y331655D02*
G03*
X320820Y329420I5391J5385D01*
G01*
X315432Y331652D02*
G03*
X320820Y329420I5388J5388D01*
G01*
X307340Y342900D02*
G03*
X309575Y337509I7620J0D01*
G01*
X258100Y327660D02*
G03*
X236400Y327587I-10850J0D01*
G01*
X236145Y327331D02*
G03*
X233910Y321940I5385J-5391D01*
G01*
X236142Y327328D02*
G03*
X233910Y321940I5388J-5388D01*
G01*
X249150Y316978D02*
G03*
X258100Y327660I-1900J10682D01*
G01*
X197500Y457200D02*
G03*
X175880Y457166I-10810J0D01*
G01*
X186656Y446390D02*
G03*
X197500Y457200I34J10810D01*
G01*
X194310Y425402D02*
G03*
X197500Y433070I-7620J7668D01*
G01*
D02*
G03*
X183734Y443468I-10810J0D01*
G01*
X176292Y436026D02*
G03*
X179070Y425402I10398J-2956D01*
G01*
X196230Y406400D02*
G03*
X194310Y412550I-10810J0D01*
G01*
X179070Y415148D02*
G03*
X196230Y406400I6350J-8748D01*
G01*
X129235Y410521D02*
G03*
X127000Y405130I5385J-5391D01*
G01*
X129232Y410518D02*
G03*
X127000Y405130I5388J-5388D01*
G01*
X145180Y385680D02*
G03*
X142240Y392991I-10560J0D01*
G01*
X5080Y470535D02*
G03*
X52705Y480060I22860J9525D01*
G01*
D02*
G03*
X37465Y502920I-24765J0D01*
G01*
X127000Y392991D02*
G03*
X124062Y385899I7620J-7311D01*
G01*
X191865Y347421D02*
G03*
X189630Y342030I5385J-5391D01*
G01*
X208100Y327660D02*
G03*
X204870Y335384I-10850J0D01*
G01*
X191862Y347418D02*
G03*
X189630Y342030I5388J-5388D01*
G01*
X134839Y375122D02*
G03*
X145180Y385680I-219J10558D01*
G01*
X189630Y335384D02*
G03*
X208100Y327660I7620J-7724D01*
G01*
X150740Y223520D02*
G03*
X134174Y237052I-13810J0D01*
G01*
X115008Y376844D02*
G03*
X112776Y371456I5388J-5388D01*
G01*
X115011Y376847D02*
G03*
X112776Y371456I5385J-5391D01*
G01*
Y240054D02*
G03*
X115011Y234663I7620J0D01*
G01*
X112776Y240054D02*
G03*
X115008Y234666I7620J0D01*
G01*
X123398Y226276D02*
G03*
X123398Y220764I13532J-2756D01*
G01*
X367860Y160060D02*
G03*
X370836Y152876I10160J0D01*
G01*
X367860Y160060D02*
G03*
X370836Y152876I10160J0D01*
G01*
X342680Y128270D02*
G03*
X341069Y134060I-11210J0D01*
G01*
X300590Y135890D02*
G03*
X295202Y133658I0J-7620D01*
G01*
X300590Y135890D02*
G03*
X295199Y133655I0J-7620D01*
G01*
X338778Y119770D02*
G03*
X342680Y128270I-7308J8500D01*
G01*
Y111270D02*
G03*
X338778Y119770I-11210J0D01*
G01*
X323248Y120650D02*
G03*
X324162Y119770I8222J7620D01*
G01*
D02*
G03*
X323248Y118890I7308J-8500D01*
G01*
X307612D02*
G03*
X302224Y116658I0J-7620D01*
G01*
X307612Y118890D02*
G03*
X302221Y116655I0J-7620D01*
G01*
X233060Y189230D02*
G03*
X211440Y189196I-10810J0D01*
G01*
X222216Y178420D02*
G03*
X233060Y189230I34J10810D01*
G01*
Y162560D02*
G03*
X233060Y162560I-10810J0D01*
G01*
X342680Y94270D02*
G03*
X338779Y102770I-11210J0D01*
G01*
D02*
G03*
X342680Y111270I-7309J8500D01*
G01*
X338778Y85770D02*
G03*
X342680Y94270I-7308J8500D01*
G01*
X293065Y107499D02*
G03*
X290830Y102108I5385J-5391D01*
G01*
X293062Y107496D02*
G03*
X290830Y102108I5388J-5388D01*
G01*
Y83620D02*
G03*
X293062Y78232I7620J0D01*
G01*
X270110Y82446D02*
G03*
X273340Y90170I-7620J7724D01*
G01*
X342680Y77270D02*
G03*
X338778Y85770I-11210J0D01*
G01*
X323248Y69650D02*
G03*
X342680Y77270I8222J7620D01*
G01*
X290830Y83620D02*
G03*
X293065Y78229I7620J0D01*
G01*
X299409Y71885D02*
G03*
X304800Y69650I5391J5385D01*
G01*
X299412Y71882D02*
G03*
X304800Y69650I5388J5388D01*
G01*
X262564Y101020D02*
G03*
X254870Y82446I-74J-10850D01*
G01*
X223340Y90170D02*
G03*
X212416Y101020I-10850J0D01*
G01*
X201640Y90244D02*
G03*
X223340Y90170I10850J-74D01*
G01*
X267875Y26999D02*
G03*
X270110Y32390I-5385J5391D01*
G01*
X267878Y27002D02*
G03*
X270110Y32390I-5388J5388D01*
G01*
X153670Y181562D02*
G03*
X156860Y189230I-7620J7668D01*
G01*
D02*
G03*
X138430Y181562I-10810J0D01*
G01*
X196545Y174301D02*
G03*
X194310Y168910I5385J-5391D01*
G01*
X196542Y174298D02*
G03*
X194310Y168910I5388J-5388D01*
G01*
X134174Y209988D02*
G03*
X150740Y223520I2756J13532D01*
G01*
X156860Y162560D02*
G03*
X153670Y170228I-10810J0D01*
G01*
X138430D02*
G03*
X156860Y162560I7620J-7668D01*
G01*
X121107Y218473D02*
G03*
X118872Y213082I5385J-5391D01*
G01*
X121104Y218470D02*
G03*
X118872Y213082I5388J-5388D01*
G01*
X194310Y100730D02*
G03*
X196545Y95339I7620J0D01*
G01*
X194310Y100730D02*
G03*
X196542Y95342I7620J0D01*
G01*
X150260Y79140D02*
G03*
X139919Y89698I-10560J0D01*
G01*
X118872Y92348D02*
G03*
X121104Y86960I7620J0D01*
G01*
X147320Y71829D02*
G03*
X150260Y79140I-7620J7311D01*
G01*
X162170Y22860D02*
G03*
X147320Y36631I-13810J0D01*
G01*
X134828Y25616D02*
G03*
X162170Y22860I13532J-2756D01*
G01*
X129142Y78921D02*
G03*
X132080Y71829I10558J219D01*
G01*
Y31520D02*
G03*
X134315Y26129I7620J0D01*
G01*
X132080Y31520D02*
G03*
X134312Y26132I7620J0D01*
G01*
X118872Y92348D02*
G03*
X121107Y86957I7620J0D01*
G01*
X52705Y27940D02*
G03*
X5080Y37465I-24765J0D01*
G01*
X37465Y5080D02*
G03*
X52705Y27940I-9525J22860D01*
G01*
X670560Y501321D02*
Y502920D01*
X665480Y497299D02*
Y502920D01*
X660400Y489585D02*
Y502920D01*
X648878Y487680D02*
X659696D01*
X650855Y482600D02*
X658626D01*
X655320Y445878D02*
Y502920D01*
X700499Y462280D02*
X706120D01*
X704521Y467360D02*
X706120D01*
X654158Y447040D02*
X706120D01*
X692785Y457200D02*
X706120D01*
X646300Y472440D02*
X659696D01*
X650239Y477520D02*
X658626D01*
X649078Y452120D02*
X706120D01*
X640080Y492180D02*
Y502920D01*
X635000Y490917D02*
Y502920D01*
X650240Y485137D02*
Y502920D01*
X645160Y490917D02*
Y502920D01*
X629920Y485137D02*
Y502920D01*
X619760Y454660D02*
Y502920D01*
X624840Y454660D02*
Y502920D01*
X645160Y454450D02*
Y471743D01*
X650240Y450958D02*
Y477523D01*
X635000Y454660D02*
Y471743D01*
X629920Y454660D02*
Y477523D01*
X640080Y454660D02*
Y470480D01*
X661162Y421640D02*
X706120D01*
X661162Y426720D02*
X706120D01*
X701040Y293832D02*
Y462821D01*
X695960Y298912D02*
Y458799D01*
X661162Y436880D02*
X706120D01*
X659222Y441960D02*
X706120D01*
X661162Y431800D02*
X706120D01*
X661162Y396240D02*
X706120D01*
X661162Y401320D02*
X706120D01*
X661162Y386080D02*
X706120D01*
X661162Y391160D02*
X706120D01*
X661162Y411480D02*
X706120D01*
X661162Y416560D02*
X706120D01*
X661162Y406400D02*
X706120D01*
X680720Y314152D02*
Y455426D01*
X675640Y319232D02*
Y456496D01*
X690880Y303992D02*
Y456496D01*
X685800Y309072D02*
Y455426D01*
X665480Y329392D02*
Y462821D01*
X660400Y440201D02*
Y470535D01*
X670560Y324312D02*
Y458799D01*
X648773Y452425D02*
X658927Y442271D01*
X661162Y385572D02*
Y436880D01*
X619760Y384668D02*
Y412878D01*
X617102Y386080D02*
X619760D01*
Y384668D02*
Y412878D01*
X600055Y482600D02*
X629305D01*
X609600Y454660D02*
Y502920D01*
X614680Y454660D02*
Y502920D01*
X604520Y454553D02*
Y502920D01*
X598078Y487680D02*
X631282D01*
X599439Y477520D02*
X629921D01*
X595500Y472440D02*
X633860D01*
X605790Y454660D02*
X643382D01*
X589353Y441380D02*
X600399Y452425D01*
X521376Y462280D02*
X666021D01*
X521376Y467360D02*
X661999D01*
X521376Y457200D02*
X673735D01*
X594360Y490917D02*
Y502920D01*
X589280Y492180D02*
Y502920D01*
X599440Y451466D02*
Y477523D01*
Y485137D02*
Y502920D01*
X584200Y490917D02*
Y502920D01*
X579120Y485137D02*
Y502920D01*
X521376Y477520D02*
X579121D01*
X521376Y447040D02*
X595014D01*
X594360Y446386D02*
Y471743D01*
X589280Y441380D02*
Y470480D01*
X584200Y440117D02*
Y471743D01*
X521376Y452120D02*
X600094D01*
X521376Y472440D02*
X583060D01*
X515620Y441960D02*
X589934D01*
X612792Y419846D02*
X619760Y412878D01*
X614680Y386655D02*
Y417958D01*
X609600Y386036D02*
Y420943D01*
X600130Y430603D02*
X605045Y435518D01*
X599439Y426720D02*
X604521D01*
X595500Y421640D02*
X608460D01*
X515620Y396240D02*
X619760D01*
X515620Y401320D02*
X619760D01*
X515620Y391160D02*
X619760D01*
X515620Y411480D02*
X619760D01*
X515620Y416560D02*
X616078D01*
X515620Y406400D02*
X619760D01*
X601326Y431800D02*
X603905D01*
X579120Y434338D02*
Y477523D01*
X599440Y253192D02*
Y426722D01*
X579120Y386036D02*
Y426722D01*
X515620Y436880D02*
X580482D01*
X515620Y431800D02*
X578505D01*
X589280Y384668D02*
Y419680D01*
X584200Y386655D02*
Y420943D01*
X604520Y382070D02*
Y426722D01*
X594360Y251922D02*
Y420943D01*
X515620Y421640D02*
X583060D01*
X515620Y426720D02*
X579121D01*
X654700Y375920D02*
X706120D01*
X659638Y381000D02*
X706120D01*
X649605Y345440D02*
X706120D01*
X653432Y370840D02*
X706120D01*
X649605Y360680D02*
X706120D01*
X649605Y365760D02*
X706120D01*
X649605Y350520D02*
X706120D01*
X649605Y355600D02*
X706120D01*
X674832Y320040D02*
X706120D01*
X669752Y325120D02*
X706120D01*
X684992Y309880D02*
X706120D01*
X679912Y314960D02*
X706120D01*
X659592Y335280D02*
X706120D01*
X654512Y340360D02*
X706120D01*
X664672Y330200D02*
X706120D01*
X660400Y334472D02*
Y382251D01*
X655320Y339552D02*
Y376574D01*
X654700Y375954D02*
X658927Y380181D01*
X619760Y308468D02*
Y367172D01*
X650240Y344632D02*
Y367172D01*
X649605Y345267D02*
Y366744D01*
X619760Y308468D02*
Y367172D01*
X617102Y309880D02*
X619760D01*
X617102Y365760D02*
X619760D01*
X614680Y310455D02*
Y365185D01*
X609600Y309836D02*
Y365804D01*
X704215Y259080D02*
X706120D01*
X704215Y264160D02*
X706120D01*
X704215Y248920D02*
X706120D01*
X704215Y254000D02*
X706120D01*
X704215Y274320D02*
X706120D01*
X704215Y279400D02*
X706120D01*
X704215Y269240D02*
X706120D01*
X704215Y238760D02*
X706120D01*
X704215Y243840D02*
X706120D01*
X704215Y228600D02*
X706120D01*
X704215Y233680D02*
X706120D01*
X699345Y218440D02*
X706120D01*
X703792Y223520D02*
X706120D01*
X694265Y213360D02*
X706120D01*
X695152Y299720D02*
X706120D01*
X690072Y304800D02*
X706120D01*
X700232Y294640D02*
X706120D01*
X649605Y345267D02*
X702539Y292334D01*
X604520Y305870D02*
Y369770D01*
Y258272D02*
Y293570D01*
X704215Y284480D02*
X706120D01*
X704072Y289560D02*
X706120D01*
X704215Y225677D02*
Y288290D01*
X607695Y261447D02*
Y290544D01*
X586622Y365760D02*
X609718D01*
X586622Y386080D02*
X609718D01*
X513391Y355600D02*
X619760D01*
X515540Y360680D02*
X619760D01*
X503318Y345440D02*
X619760D01*
X508398Y350520D02*
X619760D01*
X493158Y335280D02*
X619760D01*
X498238Y340360D02*
X619760D01*
X488078Y330200D02*
X619760D01*
X586622Y309880D02*
X609718D01*
X588645Y289560D02*
X607695D01*
X477918Y320040D02*
X619760D01*
X482998Y325120D02*
X619760D01*
X472838Y314960D02*
X619760D01*
X592472Y381000D02*
X603868D01*
X593740Y375920D02*
X602600D01*
X592472Y370840D02*
X603868D01*
X589280Y308468D02*
Y367172D01*
X515620Y365760D02*
X579238D01*
X560118Y386080D02*
X579238D01*
X579120Y309836D02*
Y365804D01*
X592472Y304800D02*
X603868D01*
X593740Y299720D02*
X602600D01*
X592472Y294640D02*
X603868D01*
X584200Y310455D02*
Y365185D01*
X560118Y309880D02*
X579238D01*
X588645Y269240D02*
X607695D01*
X588645Y274320D02*
X607695D01*
X588645Y264160D02*
X607695D01*
X589280Y257002D02*
Y290972D01*
X588645Y279400D02*
X607695D01*
X588645Y284480D02*
X607695D01*
X588645Y257637D02*
Y290544D01*
X592282Y254000D02*
X600248D01*
X595902Y249654D02*
X607695Y261447D01*
X588645Y259080D02*
X605328D01*
X588645Y257637D02*
X594589Y251693D01*
X531368Y213360D02*
X584835D01*
X578891Y251227D02*
X584835Y245283D01*
X584200Y213106D02*
Y245918D01*
X531368Y254000D02*
X577358D01*
X388180Y279400D02*
X577215D01*
X531368Y248920D02*
X581198D01*
X531368Y223520D02*
X584835D01*
X531368Y228600D02*
X584835D01*
X531368Y218440D02*
X584835D01*
X578208Y213106D02*
X584708D01*
X531368Y238760D02*
X584835D01*
X531368Y243840D02*
X584835D01*
X531368Y233680D02*
X584835D01*
X553720Y389195D02*
Y502920D01*
X523240Y389195D02*
Y502920D01*
X548640Y388576D02*
Y502920D01*
X528320Y388576D02*
Y502920D01*
X508000Y478196D02*
Y502920D01*
X502920Y478196D02*
Y502920D01*
X518160Y478196D02*
Y502920D01*
X513080Y478196D02*
Y502920D01*
X521376Y446363D02*
Y478196D01*
X518160Y387208D02*
Y446363D01*
X558800Y387208D02*
Y502920D01*
X532178Y386080D02*
X544782D01*
X515620Y446363D02*
X521376D01*
X489543Y478196D02*
X521376D01*
X515620Y386080D02*
X516842D01*
X497840Y478196D02*
Y502920D01*
X492760Y478196D02*
Y502920D01*
Y387208D02*
Y446363D01*
X489543D02*
Y478196D01*
X482600Y393046D02*
Y502920D01*
X477520Y398126D02*
Y502920D01*
X487680Y389195D02*
Y502920D01*
X494078Y386080D02*
X495300D01*
X489543Y446363D02*
X495300D01*
Y384610D02*
Y446363D01*
X479406Y396240D02*
X495300D01*
X474326Y401320D02*
X495300D01*
X484486Y391160D02*
X495300D01*
X574040Y382070D02*
Y502920D01*
X543560Y384610D02*
Y502920D01*
X562957Y381000D02*
X573388D01*
X535017D02*
X541943D01*
X560118Y370840D02*
X573388D01*
X562957Y375920D02*
X572120D01*
X574040Y305870D02*
Y369770D01*
X558800Y311008D02*
Y369712D01*
X532178Y370840D02*
X544782D01*
X535017Y375920D02*
X541943D01*
X543560Y308410D02*
Y372310D01*
X533400Y384610D02*
Y502920D01*
X515620Y384610D02*
Y446363D01*
X486410Y368920D02*
Y378460D01*
Y388000D01*
X476870Y378460D02*
X486410D01*
X477520Y348378D02*
Y372310D01*
X515620Y370840D02*
X516842D01*
X515620Y361950D02*
Y372310D01*
X533400Y308410D02*
Y372310D01*
X518160Y311008D02*
Y369712D01*
X495300Y366158D02*
Y372310D01*
X494078Y370840D02*
X495300D01*
X492760Y363618D02*
Y369712D01*
X471377Y457200D02*
X489543D01*
X471377Y462280D02*
X489543D01*
X471377Y447040D02*
X489543D01*
X471377Y452120D02*
X489543D01*
X471377Y472440D02*
X489543D01*
X471377Y477520D02*
X489543D01*
X471377Y467360D02*
X489543D01*
X463080Y446363D02*
X471377D01*
X463080Y421640D02*
X495300D01*
X463080Y426720D02*
X495300D01*
X464166Y411480D02*
X495300D01*
X463080Y416560D02*
X495300D01*
X463080Y436880D02*
X495300D01*
X463080Y441960D02*
X495300D01*
X463080Y431800D02*
X495300D01*
X457200Y478196D02*
Y502920D01*
X452120Y478196D02*
Y502920D01*
X467360Y478196D02*
Y502920D01*
X462280Y478196D02*
Y502920D01*
X447040Y478196D02*
Y502920D01*
X441960Y478196D02*
Y502920D01*
X439544Y446363D02*
Y478196D01*
X455460Y462280D02*
X470107D01*
X455460D02*
Y476926D01*
X471377Y446363D02*
Y478196D01*
X463080Y412566D02*
Y446363D01*
X439544Y478196D02*
X471377D01*
X440814Y462280D02*
X455460D01*
X439544Y446363D02*
X447840D01*
X469246Y406400D02*
X495300D01*
X467360Y408286D02*
Y446363D01*
X463080Y412566D02*
X486376Y389270D01*
X472440Y403206D02*
Y502920D01*
X447840Y409410D02*
Y446363D01*
X472440Y343298D02*
Y381654D01*
X467360Y338218D02*
Y386734D01*
X462280Y333138D02*
Y391814D01*
X457200Y328058D02*
Y396894D01*
X406400Y370840D02*
X478742D01*
X450075Y404019D02*
X475600Y378494D01*
X452120Y322978D02*
Y401974D01*
X411480Y369538D02*
Y502920D01*
X406400Y370840D02*
Y502920D01*
X416560Y363159D02*
Y502920D01*
X401320Y369538D02*
Y502920D01*
X396240Y363159D02*
Y502920D01*
X391160Y320440D02*
Y502920D01*
X386080Y319527D02*
Y502920D01*
X436880Y320440D02*
Y502920D01*
X431800Y320440D02*
Y502920D01*
X447040Y320440D02*
Y446363D01*
X441960Y320440D02*
Y446363D01*
X421640Y320440D02*
Y502920D01*
X426720Y320440D02*
Y502920D01*
X553720Y312995D02*
Y367725D01*
X528320Y312376D02*
Y368344D01*
X548640Y312376D02*
Y368344D01*
X532178Y309880D02*
X544782D01*
X523240Y312995D02*
Y367725D01*
X494078Y309880D02*
X516842D01*
X562957Y304800D02*
X573388D01*
X535017Y299720D02*
X541943D01*
X560118Y294640D02*
X573388D01*
X562957Y299720D02*
X572120D01*
X535017Y304800D02*
X541943D01*
X494078Y294640D02*
X516842D01*
X532178D02*
X544782D01*
X487680Y312995D02*
Y329802D01*
Y358538D02*
Y367725D01*
X492760Y311008D02*
Y334882D01*
X482600Y312376D02*
Y324722D01*
X449582Y320440D02*
X495300Y366158D01*
X482600Y353458D02*
Y368344D01*
X460974Y303096D02*
X512644Y354766D01*
X467758Y309880D02*
X478742D01*
X477520Y308410D02*
Y319642D01*
X496917Y299720D02*
X514003D01*
X496917Y304800D02*
X514003D01*
X462678D02*
X475903D01*
X523240Y266424D02*
Y291525D01*
X577215Y255270D02*
Y290544D01*
X528320Y262744D02*
Y292144D01*
X513080Y266700D02*
Y355230D01*
X518160Y266700D02*
Y293512D01*
X530932Y259080D02*
X577215D01*
X526904Y264160D02*
X577215D01*
X526599Y264465D02*
X529133Y261931D01*
X497840Y266700D02*
Y339962D01*
X508000Y266700D02*
Y350122D01*
X502920Y266700D02*
Y345042D01*
X467360Y266700D02*
Y309482D01*
X462280Y266700D02*
Y304402D01*
X472440Y266700D02*
Y314562D01*
X482600Y266700D02*
Y292144D01*
X477520Y266700D02*
Y296110D01*
X492760Y266700D02*
Y293512D01*
X487680Y266700D02*
Y291525D01*
X452120Y266700D02*
Y300120D01*
X447040Y266700D02*
Y300120D01*
X457200Y266700D02*
Y300709D01*
X416960Y300120D02*
X453790D01*
X416960Y320440D02*
X449582D01*
X441960Y266700D02*
Y300120D01*
X431800Y266700D02*
Y300120D01*
X415427Y365760D02*
X494902D01*
X416953Y360680D02*
X489822D01*
X415866Y355600D02*
X484742D01*
X410432Y350520D02*
X479662D01*
X389018Y294640D02*
X478742D01*
X394098Y299720D02*
X475903D01*
X388180Y269240D02*
X577215D01*
X427736Y266700D02*
X521208D01*
X388180Y284480D02*
X577215D01*
X388180Y289560D02*
X577215D01*
X388180Y274320D02*
X577215D01*
X406400Y360280D02*
X415690D01*
X406400D02*
Y369570D01*
X416560Y320840D02*
Y357401D01*
X406400Y350990D02*
Y360280D01*
X397110D02*
X406400D01*
X396240Y320840D02*
Y357401D01*
X401320Y320840D02*
Y351022D01*
X395840Y320840D02*
X416960D01*
X406400D02*
Y349720D01*
X395840Y299720D02*
X416960D01*
X411480Y320840D02*
Y351022D01*
X394498Y300120D02*
X395840D01*
X390290Y320440D02*
X395840D01*
X388180Y293802D02*
X394498Y300120D01*
X436880Y266700D02*
Y300120D01*
X426720Y266632D02*
Y300120D01*
X388180Y264160D02*
X422040D01*
X421640Y263760D02*
Y300120D01*
X416960Y259080D02*
X422345Y264465D01*
X438150Y213360D02*
X445460D01*
X438150D02*
X445460D01*
X430658Y217170D02*
X431853Y215975D01*
X427030Y217170D02*
X430658D01*
X427030Y213360D02*
X438150D01*
X416560Y259080D02*
Y299720D01*
X401320Y260220D02*
Y299720D01*
X411480Y258270D02*
Y299720D01*
X406400Y258270D02*
Y299720D01*
X391160Y260220D02*
Y296782D01*
X388180Y260220D02*
Y293802D01*
X396240Y260220D02*
Y299720D01*
X415120Y259080D02*
X416960D01*
X415120D02*
X416960D01*
X404730Y258270D02*
X411701D01*
X404730Y259080D02*
X415120D01*
X388180Y260220D02*
X404730D01*
Y258270D02*
Y260220D01*
X690348Y208280D02*
X706120D01*
X690981Y210076D02*
X702539Y221634D01*
X693011Y203200D02*
X706120D01*
X690880Y207652D02*
Y209977D01*
X693011Y198120D02*
X706120D01*
X690880Y182252D02*
Y193668D01*
X693011Y172720D02*
X706120D01*
X693011Y177800D02*
X706120D01*
X651972Y187960D02*
X706120D01*
X690348Y193040D02*
X706120D01*
X690348Y182880D02*
X706120D01*
X660400Y179532D02*
Y208400D01*
X655320Y184612D02*
Y208400D01*
X670560Y169372D02*
Y208400D01*
X665480Y174452D02*
Y208400D01*
X645160Y194772D02*
Y208400D01*
X650240Y189692D02*
Y208400D01*
X685800Y185909D02*
Y190011D01*
X680720Y186499D02*
Y189422D01*
X675640Y184619D02*
Y191301D01*
X667212Y172720D02*
X670969D01*
X657052Y182880D02*
X673632D01*
X646892Y193040D02*
X673632D01*
X662132Y177800D02*
X670969D01*
X701040Y45179D02*
Y220135D01*
X695960Y49201D02*
Y215055D01*
X706120Y37465D02*
Y470535D01*
Y37465D02*
Y470535D01*
X690348Y167640D02*
X706120D01*
X690880Y161170D02*
Y168268D01*
X693300Y157480D02*
X706120D01*
X685800Y161170D02*
Y164611D01*
X693300Y152400D02*
X706120D01*
X693300Y138550D02*
Y161170D01*
X677372Y162560D02*
X706120D01*
X678762Y161170D02*
X693300D01*
X681990Y149860D02*
X692030D01*
X675640Y164292D02*
Y165901D01*
X672292Y167640D02*
X673632D01*
X655320Y120650D02*
Y168448D01*
X650240Y122715D02*
Y173528D01*
X644123Y195809D02*
X678762Y161170D01*
X645160Y123554D02*
Y178608D01*
X640080Y121754D02*
Y183688D01*
X671950Y149860D02*
X681990D01*
X680720Y161170D02*
Y164021D01*
X681990Y149860D02*
Y159900D01*
X670680Y138550D02*
Y153088D01*
X670560Y123806D02*
Y153208D01*
X660400Y120650D02*
Y163368D01*
X665480Y120650D02*
Y158288D01*
X612768Y208400D02*
X673743D01*
X629920Y197485D02*
Y208400D01*
X640080Y197485D02*
Y208400D01*
X635000Y197485D02*
Y208400D01*
X612649Y208280D02*
X673632D01*
X609392Y203200D02*
X670969D01*
X609392Y198120D02*
X670969D01*
X609392Y197485D02*
X640080D01*
X619760Y177800D02*
X645968D01*
X628559Y172720D02*
X651048D01*
X624840Y176439D02*
Y186055D01*
X609392Y182880D02*
X640888D01*
X609392Y186055D02*
X637713D01*
X614680Y197485D02*
Y208400D01*
X609600Y197485D02*
Y205231D01*
X624840Y197485D02*
Y208400D01*
X619760Y197485D02*
Y208400D01*
X609392Y205024D02*
X612768Y208400D01*
X609392Y197485D02*
Y205024D01*
Y178516D02*
Y186055D01*
X610108Y177800D02*
X619760D01*
X609600Y178309D02*
Y186055D01*
X619760Y177800D02*
Y186055D01*
X614680Y176439D02*
Y186055D01*
X609392Y178516D02*
X612835Y175074D01*
X577042Y167640D02*
X591335D01*
X602765D02*
X604104D01*
X637713Y186055D02*
X670680Y153088D01*
X629920Y167640D02*
X656128D01*
X635000Y112776D02*
Y186055D01*
X629920Y107696D02*
Y167640D01*
Y186055D01*
X602765Y162560D02*
X610961D01*
X619760Y157480D02*
X666288D01*
X628559Y162560D02*
X661208D01*
X624840Y82230D02*
Y158841D01*
X619760Y82882D02*
Y157480D01*
X602765Y152400D02*
X670680D01*
X602765Y157480D02*
X619760D01*
X614680Y80772D02*
Y158841D01*
X609600Y5080D02*
Y163695D01*
X604520Y123590D02*
Y167224D01*
X602765Y168979D02*
X606442Y165302D01*
X591335Y149772D02*
Y170434D01*
X602765Y147534D02*
Y168979D01*
X573422Y157480D02*
X591335D01*
X574690Y162560D02*
X591335D01*
X567572Y152400D02*
X591335D01*
X693300Y142240D02*
X706120D01*
X693300Y147320D02*
X706120D01*
X689610Y127000D02*
X706120D01*
X689610Y132080D02*
X706120D01*
X689610Y137160D02*
X706120D01*
X689610Y138550D02*
X693300D01*
X685146Y116840D02*
X706120D01*
X689174Y121920D02*
X706120D01*
X674772Y106680D02*
X706120D01*
X680066Y111760D02*
X706120D01*
X642620Y96520D02*
X706120D01*
X645377Y101600D02*
X706120D01*
X642620Y91440D02*
X706120D01*
X674370Y127616D02*
Y138550D01*
X670680D02*
X674370D01*
X689610Y124460D02*
Y138550D01*
X667404Y120650D02*
X674370Y127616D01*
X651730Y121920D02*
X668674D01*
X653341Y120650D02*
X667404D01*
X646030Y113030D02*
Y122320D01*
X675951Y107645D02*
X687375Y119069D01*
X653341Y105410D02*
X670560D01*
X646030Y103740D02*
Y113030D01*
X642620Y98843D02*
X646249Y102472D01*
X642620Y71120D02*
X706120D01*
X680720Y52574D02*
Y112414D01*
X690880Y51504D02*
Y138550D01*
X685800Y52574D02*
Y117494D01*
X642620Y81280D02*
X706120D01*
X642620Y86360D02*
X706120D01*
X642620Y76200D02*
X706120D01*
X700499Y45720D02*
X706120D01*
X692785Y50800D02*
X706120D01*
X704521Y40640D02*
X706120D01*
X642620Y60960D02*
X706120D01*
X642620Y66040D02*
X706120D01*
X642620Y55880D02*
X706120D01*
X675640Y51504D02*
Y107350D01*
X670560Y49201D02*
Y105410D01*
X665480Y45179D02*
Y105410D01*
X660400Y37465D02*
Y105410D01*
X650240Y5080D02*
Y103345D01*
X645160Y5080D02*
Y101383D01*
X655320Y5080D02*
Y105410D01*
X660400Y5080D02*
Y18415D01*
X642620Y55620D02*
Y98843D01*
X670560Y5080D02*
Y6679D01*
X665480Y5080D02*
Y10701D01*
X640902Y50800D02*
X673735D01*
X602761Y147320D02*
X670680D01*
X606590Y121920D02*
X640331D01*
X606590Y116840D02*
X636181D01*
X601745Y137160D02*
X674370D01*
X601745Y142240D02*
X670680D01*
X601745Y132080D02*
X674370D01*
X601745Y127000D02*
X673754D01*
X636740Y113030D02*
X646030D01*
X629615Y107391D02*
X635472Y113249D01*
X606590Y111760D02*
X633984D01*
X606590Y106680D02*
X628987D01*
X549038Y60960D02*
X627380D01*
X601745Y123590D02*
X606590D01*
X601745D02*
Y144275D01*
X627380Y80772D02*
Y102000D01*
X606590Y102470D02*
Y123590D01*
X589678Y101600D02*
X627380D01*
X590548Y102470D02*
X606590D01*
X584598Y96520D02*
X627380D01*
X574438Y86360D02*
X627380D01*
X579518Y91440D02*
X627380D01*
X569358Y81280D02*
X615389D01*
X564278Y76200D02*
X611350D01*
X559198Y71120D02*
X610834D01*
X554118Y66040D02*
X613118D01*
X627380Y58776D02*
Y64528D01*
X624840Y56236D02*
Y63070D01*
X631329Y41172D02*
X640385Y50229D01*
X640080Y5080D02*
Y49924D01*
X620553Y51949D02*
X627380Y58776D01*
X543958Y55880D02*
X624484D01*
X635876Y45720D02*
X666021D01*
X631290Y40640D02*
X661999D01*
X635000Y5080D02*
Y44844D01*
X629920Y5080D02*
Y36428D01*
X629349Y35560D02*
X659696D01*
X621030Y41650D02*
X630070D01*
X624840Y5080D02*
Y32070D01*
X619760Y51881D02*
Y62419D01*
X614680Y49772D02*
Y64528D01*
X621030Y41650D02*
Y50690D01*
X604520Y5080D02*
Y102470D01*
X538878Y50800D02*
X616279D01*
X594360Y5080D02*
Y102470D01*
X599440Y5080D02*
Y102470D01*
X621030Y32610D02*
Y41650D01*
X611990D02*
X621030D01*
X619760Y5080D02*
Y31418D01*
X614680Y5080D02*
Y33528D01*
X537887Y45720D02*
X611557D01*
X537887Y40640D02*
X610770D01*
X537887Y35560D02*
X612711D01*
X584835Y213106D02*
Y245283D01*
X579478Y203200D02*
X584050D01*
Y211836D01*
X580034Y191219D02*
X581008Y190246D01*
X579120Y213106D02*
Y250998D01*
Y190246D02*
Y192412D01*
X584708Y170434D02*
X589892D01*
X583923D02*
X584708D01*
X589892D02*
X591208D01*
X584708D02*
X589892D01*
X579836D02*
X583923D01*
X578208Y190246D02*
X581008D01*
X579836Y170434D02*
X583923D01*
X578208Y193294D02*
Y213106D01*
X574040Y180721D02*
Y293570D01*
X568960Y175722D02*
Y502920D01*
X563880Y173370D02*
Y502920D01*
X531368Y198120D02*
X578208D01*
X531368Y208280D02*
X578208D01*
X558800Y172102D02*
Y293512D01*
X578208Y181864D02*
Y190246D01*
X531368Y187960D02*
X578208D01*
X566327Y173089D02*
X573426Y180188D01*
X589280Y123590D02*
Y170434D01*
X584200Y122867D02*
Y170434D01*
X579120Y119778D02*
Y169718D01*
X574409Y165007D02*
X579836Y170434D01*
X574040Y140852D02*
Y158868D01*
X574690Y137160D02*
X590315D01*
X573422Y142240D02*
X590315D01*
Y123590D02*
Y146513D01*
X574040Y114698D02*
Y133468D01*
X567572Y147320D02*
X590372D01*
X553720Y166252D02*
Y291525D01*
X548640Y132696D02*
Y292144D01*
X543560Y131318D02*
Y296110D01*
X538480Y131318D02*
Y502920D01*
X531368Y162560D02*
X553070D01*
X531368Y149606D02*
Y256540D01*
X533400Y131318D02*
Y296110D01*
X563880Y147970D02*
Y151750D01*
X558800Y146702D02*
Y153018D01*
X568960Y146702D02*
Y153018D01*
X553720Y140852D02*
Y158868D01*
X531368Y152400D02*
X560188D01*
X531368Y157480D02*
X554338D01*
X547262Y131318D02*
X553070Y137126D01*
X531368Y193040D02*
X578808D01*
X531368Y203200D02*
X578208D01*
X531368Y182880D02*
X578208D01*
X531368Y177800D02*
X571038D01*
X388180Y187960D02*
X449580D01*
X388180Y193040D02*
X449580D01*
X388180Y177800D02*
X449580D01*
X388180Y182880D02*
X449580D01*
X531368Y172720D02*
X560188D01*
X531368Y167640D02*
X554338D01*
X400049Y152400D02*
X449580D01*
X394969Y157480D02*
X449580D01*
X388180Y167640D02*
X449580D01*
X388180Y172720D02*
X449580D01*
X389889Y162560D02*
X449580D01*
X427030Y208280D02*
X445460D01*
X420834Y206550D02*
X427030D01*
X445460Y202740D02*
Y213360D01*
X427030Y206550D02*
Y217170D01*
X404730Y206550D02*
X409405D01*
X404730Y204600D02*
Y206550D01*
X388180Y198120D02*
X449580D01*
X445460Y202740D02*
X449580D01*
X396240Y156209D02*
Y204600D01*
X391160Y161289D02*
Y204600D01*
X388180Y203200D02*
X445460D01*
X388180Y204600D02*
X404730D01*
X388180Y164269D02*
Y204600D01*
X531017Y147320D02*
X560188D01*
X528320Y131318D02*
Y143402D01*
X449580Y133858D02*
Y202740D01*
X405129Y147320D02*
X449580D01*
X516236Y131318D02*
X529133Y144215D01*
X527158Y142240D02*
X554338D01*
X522078Y137160D02*
X553070D01*
X523240Y131318D02*
Y138322D01*
X416960Y137160D02*
X449580D01*
X416960Y142240D02*
X449580D01*
X431800Y5080D02*
Y216028D01*
X426720Y5080D02*
Y206550D01*
X441960Y5080D02*
Y213360D01*
X436880Y5080D02*
Y213451D01*
X411480Y142240D02*
Y205249D01*
X406400Y146049D02*
Y206550D01*
X421640Y5080D02*
Y206550D01*
X410208Y142240D02*
X416960D01*
X416560D02*
Y204587D01*
X447040Y5080D02*
Y202740D01*
X416960Y121120D02*
Y142240D01*
X388180Y164269D02*
X410208Y142240D01*
X401320Y151129D02*
Y204600D01*
X386080Y5080D02*
Y137632D01*
X585470Y123590D02*
X590315D01*
X573422Y132080D02*
X590315D01*
X567572Y127000D02*
X590315D01*
X555809Y118313D02*
X563846Y126350D01*
X568960Y109618D02*
Y127618D01*
X563880Y104538D02*
Y126350D01*
X559416Y121920D02*
X581821D01*
X558800Y99458D02*
Y121304D01*
X553740Y116840D02*
X576182D01*
X523518Y64177D02*
X579556Y120214D01*
X518160Y131318D02*
Y133242D01*
X553720Y94378D02*
Y116831D01*
X523240Y64177D02*
Y116078D01*
X516998Y132080D02*
X548024D01*
X516236Y131318D02*
X547262D01*
X508000Y64177D02*
Y116078D01*
X548640Y89298D02*
Y116078D01*
X543560Y84218D02*
Y116078D01*
X538480Y79138D02*
Y116078D01*
X533400Y74058D02*
Y116078D01*
X497840D02*
X550418D01*
X528320Y68978D02*
Y116078D01*
X506054Y64177D02*
X523518D01*
X579120Y5080D02*
Y91042D01*
X574040Y5080D02*
Y85962D01*
X589280Y5080D02*
Y101202D01*
X584200Y5080D02*
Y96122D01*
X537887Y49808D02*
X590548Y102470D01*
X563880Y5080D02*
Y75802D01*
X568960Y5080D02*
Y80882D01*
X548640Y5080D02*
Y60562D01*
X543560Y5080D02*
Y55482D01*
X558800Y5080D02*
Y70722D01*
X553720Y5080D02*
Y65642D01*
X537887Y32343D02*
Y49808D01*
X506054Y32343D02*
X537887D01*
X538480Y5080D02*
Y50402D01*
X518160Y64177D02*
Y116078D01*
X513080Y64177D02*
Y116078D01*
X506054Y32343D02*
Y64177D01*
X502920Y5080D02*
Y116078D01*
X487887Y40640D02*
X506054D01*
X492760Y5080D02*
Y116078D01*
X497840Y5080D02*
Y116078D01*
X523240Y5080D02*
Y32343D01*
X518160Y5080D02*
Y32343D01*
X533400Y5080D02*
Y32343D01*
X528320Y5080D02*
Y32343D01*
X508000Y5080D02*
Y32343D01*
X487887Y35560D02*
X506054D01*
X513080Y5080D02*
Y32343D01*
X462280Y64177D02*
Y118018D01*
X472440Y64177D02*
Y116078D01*
X467360Y64177D02*
Y116078D01*
X451815Y128467D02*
X461969Y118313D01*
X416960Y121920D02*
X458362D01*
X457200Y64177D02*
Y123082D01*
X415866Y86360D02*
X545702D01*
X467360Y116078D02*
X497840D01*
X416952Y81280D02*
X540622D01*
X456054Y64177D02*
X487887D01*
X410431Y91440D02*
X550782D01*
X415427Y76200D02*
X535542D01*
X406465Y71120D02*
X530462D01*
X416960Y127000D02*
X453282D01*
X416960Y132080D02*
X449790D01*
X411480Y90938D02*
Y121120D01*
X406400Y92240D02*
Y121120D01*
X401320Y90938D02*
Y121120D01*
X395840D02*
Y127872D01*
X396240Y84559D02*
Y121120D01*
X416560Y84559D02*
Y121120D01*
X406400Y81680D02*
Y90970D01*
Y81680D02*
X415690D01*
X406400Y72390D02*
Y81680D01*
X395840Y121120D02*
X416960D01*
X397110Y81680D02*
X406400D01*
X487887Y55880D02*
X506054D01*
X487887Y60960D02*
X506054D01*
X487887Y50800D02*
X506054D01*
X487887Y32343D02*
Y64177D01*
X482600D02*
Y116078D01*
X477520Y64177D02*
Y116078D01*
X487680Y64177D02*
Y116078D01*
X487887Y45720D02*
X506054D01*
X477520Y5080D02*
Y32343D01*
X487680Y5080D02*
Y32343D01*
X482600Y5080D02*
Y32343D01*
X456054D02*
X487887D01*
X471970Y48260D02*
X486617D01*
X472440Y5080D02*
Y32343D01*
X411480Y5080D02*
Y72422D01*
X406400Y5080D02*
Y71120D01*
X452120Y5080D02*
Y128162D01*
X416560Y5080D02*
Y78801D01*
X396240Y5080D02*
Y78801D01*
X391160Y5080D02*
Y132552D01*
X401320Y5080D02*
Y72422D01*
X471970Y33614D02*
Y48260D01*
Y62906D01*
X467360Y5080D02*
Y32343D01*
X462280Y5080D02*
Y32343D01*
X457324Y48260D02*
X471970D01*
X456054Y32343D02*
Y64177D01*
X457200Y5080D02*
Y32343D01*
X335280Y420478D02*
Y502920D01*
X330200Y425558D02*
Y502920D01*
X345440Y410318D02*
Y502920D01*
X340360Y415398D02*
Y502920D01*
X273700Y457200D02*
X439544D01*
X272432Y462280D02*
X439544D01*
X318878Y436880D02*
X447840D01*
X272432Y452120D02*
X439544D01*
X339198Y416560D02*
X447840D01*
X334118Y421640D02*
X447840D01*
X349358Y406400D02*
X448460D01*
X344278Y411480D02*
X447840D01*
X329038Y426720D02*
X447840D01*
X323958Y431800D02*
X447840D01*
X272430Y406400D02*
X327806D01*
X294640Y440690D02*
Y502920D01*
X289560Y440690D02*
Y502920D01*
X304800Y440690D02*
Y502920D01*
X299720Y440690D02*
Y502920D01*
X279400Y440690D02*
Y502920D01*
X274320Y440690D02*
Y502920D01*
X284480Y440690D02*
Y502920D01*
X314960Y440054D02*
Y502920D01*
X325120Y430638D02*
Y502920D01*
X320040Y435718D02*
Y502920D01*
X309880Y440690D02*
Y502920D01*
X271162Y411480D02*
X322726D01*
X381000Y315358D02*
Y502920D01*
X375920Y310278D02*
Y502920D01*
X370840Y305198D02*
Y502920D01*
X365760Y260220D02*
Y502920D01*
X360680Y395078D02*
Y502920D01*
X355600Y400158D02*
Y502920D01*
X317303Y438455D02*
X360985Y394773D01*
X363010Y391160D02*
X462934D01*
X363220Y386080D02*
X468014D01*
X363220Y359410D02*
Y389382D01*
X359518Y396240D02*
X457854D01*
X354438Y401320D02*
X452774D01*
X350520Y405238D02*
Y502920D01*
X330200Y380278D02*
Y404006D01*
X325120Y378660D02*
Y409086D01*
X320040Y378660D02*
Y414166D01*
X308756Y425450D02*
X347980Y386226D01*
X314960Y377216D02*
Y419246D01*
X309880Y372273D02*
Y424326D01*
X341694Y381000D02*
X347980D01*
X340360Y381583D02*
Y393846D01*
X347980Y362566D02*
Y386226D01*
X345440Y377869D02*
Y388766D01*
X335280Y382178D02*
Y398926D01*
X271162Y401320D02*
X332886D01*
X51504Y487680D02*
X580482D01*
X52574Y482600D02*
X578505D01*
X51504Y472440D02*
X439544D01*
X52574Y477520D02*
X439544D01*
X37465Y502920D02*
X673735D01*
X37465D02*
X673735D01*
X45179Y497840D02*
X666021D01*
X49201Y492760D02*
X661999D01*
X270510Y441960D02*
X447840D01*
X270510Y447040D02*
X439544D01*
X270558Y440690D02*
X311912D01*
X270510Y440738D02*
Y449532D01*
X266582Y467360D02*
X439544D01*
X264160Y467935D02*
Y502920D01*
X259080Y467316D02*
Y502920D01*
X269240Y465948D02*
Y502920D01*
X254000Y463350D02*
Y502920D01*
X190382Y467360D02*
X259198D01*
X196232Y462280D02*
X253348D01*
X197500Y457200D02*
X252080D01*
X255270Y440738D02*
Y449532D01*
X254000Y439220D02*
Y451050D01*
X196806Y436880D02*
X252774D01*
X197425Y431800D02*
X252155D01*
X190382Y447040D02*
X255270D01*
X196232Y452120D02*
X253348D01*
X192840Y441960D02*
X255270D01*
X270558Y425450D02*
X308756D01*
X259080Y416907D02*
Y422954D01*
X269240Y414068D02*
Y424322D01*
X264160Y416907D02*
Y422335D01*
X194310Y421640D02*
X312566D01*
X265312Y396240D02*
X337966D01*
X265312Y416560D02*
X317646D01*
X257156Y391160D02*
X343046D01*
X252076Y386080D02*
X347980D01*
X246996Y381000D02*
X331405D01*
X204870Y338873D02*
X261586Y395590D01*
X254000Y414068D02*
Y426920D01*
X248920Y404476D02*
Y502920D01*
X243840Y399396D02*
Y502920D01*
X238760Y394316D02*
Y502920D01*
X194310Y416560D02*
X257928D01*
X195438Y426720D02*
X254142D01*
X194962Y411480D02*
X252078D01*
X196230Y406400D02*
X250810D01*
X194962Y401320D02*
X245764D01*
X254000Y336155D02*
Y388004D01*
X248920Y338381D02*
Y382924D01*
X189112Y396240D02*
X240684D01*
X143647Y391160D02*
X235604D01*
X191865Y347421D02*
X250810Y406366D01*
X363220Y375920D02*
X475903D01*
X363220Y370840D02*
X406400D01*
X363220Y365760D02*
X397373D01*
X363220Y360680D02*
X395848D01*
X363220Y381000D02*
X473094D01*
X362199Y355600D02*
X396934D01*
X357486Y350520D02*
X402368D01*
X355622Y348655D02*
X360985Y354019D01*
X343974Y345440D02*
X474582D01*
X347257Y340360D02*
X469502D01*
X347621Y335280D02*
X464422D01*
X346439Y365760D02*
X347980D01*
X346642Y375920D02*
X347980D01*
X347074Y361660D02*
X347980Y362566D01*
X345440Y361660D02*
Y364211D01*
X336550Y371040D02*
X346490D01*
X336550D02*
Y380980D01*
X344772Y361660D02*
X347074D01*
X344772Y346420D02*
X350230D01*
X345440Y343869D02*
Y346420D01*
X336550Y337040D02*
X346490D01*
X347760Y320040D02*
X387467D01*
X370836Y305194D02*
X383106Y317464D01*
X345431Y330200D02*
X459342D01*
X346543Y325120D02*
X454262D01*
X346543Y314960D02*
X380602D01*
X367860Y260220D02*
Y298010D01*
X351310Y260220D02*
X367860D01*
X347760Y309880D02*
X375522D01*
X347760Y304800D02*
X370462D01*
X347760Y299720D02*
X368005D01*
X345440Y326869D02*
Y330211D01*
X360680Y260220D02*
Y353714D01*
X355600Y260220D02*
Y348634D01*
X346149Y314250D02*
X347760D01*
Y294640D02*
X367860D01*
X347760Y291830D02*
Y314250D01*
X325340D02*
X326951D01*
X325340Y291830D02*
Y314250D01*
Y291830D02*
X347760D01*
X319424Y378660D02*
X328328D01*
X309575Y371968D02*
X314032Y376425D01*
X241916Y375920D02*
X313527D01*
X309575Y337509D02*
X315429Y331655D01*
X320820Y329420D02*
X328328D01*
X254974Y335280D02*
X311804D01*
X257799Y330200D02*
X317462D01*
X236836Y370840D02*
X308644D01*
X307340Y342900D02*
Y366576D01*
X243840Y337960D02*
Y377844D01*
X238760Y334416D02*
Y372764D01*
X226676Y360680D02*
X307340D01*
X231756Y365760D02*
X307340D01*
X221596Y355600D02*
X307340D01*
X211436Y345440D02*
X307340D01*
X216516Y350520D02*
X307340D01*
X207798Y325120D02*
X234605D01*
X206356Y340360D02*
X307776D01*
X204974Y335280D02*
X239526D01*
X207798Y330200D02*
X236702D01*
X249150Y269240D02*
X367860D01*
X249150Y274320D02*
X367860D01*
X249150Y264160D02*
X367860D01*
X249150Y259080D02*
X351310D01*
X249150Y284480D02*
X367860D01*
X249150Y289560D02*
X367860D01*
X249150Y279400D02*
X367860D01*
X255340Y233680D02*
X351310D01*
X249150Y238760D02*
X351310D01*
X255340Y223520D02*
X351310D01*
X255340Y228600D02*
X351310D01*
X249150Y248920D02*
X351310D01*
X249150Y254000D02*
X351310D01*
X249150Y243840D02*
X351310D01*
X257799Y325120D02*
X326557D01*
X254974Y320040D02*
X325340D01*
X254000Y237330D02*
Y319165D01*
X249150Y237330D02*
Y316978D01*
Y299720D02*
X325340D01*
X249150Y304800D02*
X325340D01*
X249150Y294640D02*
X325340D01*
X249150Y237330D02*
X255340D01*
X249150Y314960D02*
X326557D01*
X249150Y309880D02*
X325340D01*
X128016Y279400D02*
X233910D01*
X193040Y465948D02*
Y502920D01*
X187960Y467935D02*
Y502920D01*
X186690Y457200D02*
X196230D01*
X186690Y447660D02*
Y457200D01*
X177150D02*
X186690D01*
X182880Y467316D02*
Y502920D01*
X186690Y457200D02*
Y466740D01*
X187960Y443805D02*
Y446465D01*
X193040Y441818D02*
Y448452D01*
X183734Y443468D02*
X186656Y446390D01*
X179070Y415148D02*
Y425402D01*
X167640Y448926D02*
Y502920D01*
X162560Y443846D02*
Y502920D01*
X157480Y438766D02*
Y502920D01*
X152400Y433686D02*
Y502920D01*
X147320Y428606D02*
Y502920D01*
X142240Y423526D02*
Y502920D01*
X137160Y418446D02*
Y502920D01*
X177800Y463350D02*
Y502920D01*
X172720Y454006D02*
Y502920D01*
X172066Y431800D02*
X175955D01*
X161906Y421640D02*
X179070D01*
X166986Y426720D02*
X177942D01*
X156826Y416560D02*
X179070D01*
X228600Y384156D02*
Y502920D01*
X223520Y379076D02*
Y502920D01*
X218440Y373996D02*
Y502920D01*
X213360Y368916D02*
Y502920D01*
X208280Y363836D02*
Y502920D01*
X203200Y358756D02*
Y502920D01*
X198120Y353676D02*
Y502920D01*
X194310Y412550D02*
Y425402D01*
X233680Y389236D02*
Y502920D01*
X193040Y348596D02*
Y398732D01*
X145172Y386080D02*
X230524D01*
X187960Y333266D02*
Y395893D01*
X177800Y414068D02*
Y426920D01*
X132080Y413366D02*
Y502920D01*
X142240Y401974D02*
X176292Y436026D01*
X151746Y411480D02*
X175878D01*
X129235Y410521D02*
X175880Y457166D01*
X142240Y396240D02*
X181728D01*
X146666Y406400D02*
X174610D01*
X147320Y232617D02*
Y407054D01*
X142240Y401320D02*
X175878D01*
X142240Y392991D02*
Y401974D01*
Y392991D02*
Y401974D01*
X49201Y467360D02*
X182998D01*
X45179Y462280D02*
X177148D01*
X37465Y457200D02*
X175880D01*
X55880Y418976D02*
Y502920D01*
X5080Y452120D02*
X170834D01*
X5080Y447040D02*
X165754D01*
X5080Y441960D02*
X160674D01*
X5080Y421640D02*
X140354D01*
X27264Y418976D02*
X59096D01*
Y416560D02*
X135274D01*
X59096Y411480D02*
X130194D01*
X5080Y436880D02*
X155594D01*
X5080Y431800D02*
X150514D01*
X5080Y426720D02*
X145434D01*
X50800Y489585D02*
Y502920D01*
X45720Y497299D02*
Y502920D01*
X50800Y418976D02*
Y470535D01*
X45720Y418976D02*
Y462821D01*
X40640Y501321D02*
Y502920D01*
X5080Y467360D02*
X6679D01*
X35560Y418976D02*
Y456496D01*
X30480Y418976D02*
Y455426D01*
X40640Y418976D02*
Y458799D01*
X5080Y411480D02*
X27264D01*
X5080Y457200D02*
X18415D01*
X5080Y462280D02*
X10701D01*
X5080Y416560D02*
X27264D01*
X127000Y392991D02*
Y405130D01*
Y502920D01*
Y392991D02*
Y405130D01*
X121920Y383756D02*
Y502920D01*
X59096Y406400D02*
X127107D01*
X59096Y387143D02*
Y418976D01*
X116840Y378676D02*
Y502920D01*
X59096Y396240D02*
X127000D01*
X59096Y401320D02*
X127000D01*
X59096Y391160D02*
X125593D01*
X27264Y387143D02*
X59096D01*
X43180Y403060D02*
X57826D01*
X5080Y386080D02*
X124068D01*
X43180Y403060D02*
Y417706D01*
X28533Y403060D02*
X43180D01*
Y388413D02*
Y403060D01*
X27264Y387143D02*
Y418976D01*
X5080Y401320D02*
X27264D01*
X5080Y406400D02*
X27264D01*
X5080Y396240D02*
X27264D01*
X45720Y368977D02*
Y387143D01*
X40640Y368977D02*
Y387143D01*
X55880Y368977D02*
Y387143D01*
X50800Y368977D02*
Y387143D01*
X30480Y368977D02*
Y387143D01*
X5080Y391160D02*
X27264D01*
X35560Y368977D02*
Y387143D01*
X144086Y381000D02*
X225444D01*
X138651Y375920D02*
X220364D01*
X130556Y370840D02*
X215284D01*
X128016Y365760D02*
X210204D01*
X128016Y360680D02*
X205124D01*
X128016Y355600D02*
X200044D01*
X128016Y350520D02*
X194964D01*
X204870Y335384D02*
Y338873D01*
X189630Y335384D02*
Y342030D01*
X204974Y320040D02*
X233910D01*
X145180Y345440D02*
X190436D01*
X145180Y340360D02*
X189630D01*
X134620Y385680D02*
X143910D01*
X142240Y346240D02*
Y378369D01*
X137160Y346240D02*
Y375430D01*
X134620Y376390D02*
Y385680D01*
X128016Y346240D02*
Y368300D01*
X132080Y346240D02*
Y372364D01*
X145180Y335280D02*
X189526D01*
X145180Y330200D02*
X186701D01*
X145180Y325120D02*
X186701D01*
X145180Y325120D02*
Y346240D01*
X128016Y325120D02*
X145180D01*
X128016Y346240D02*
X145180D01*
X128016Y320040D02*
X189526D01*
X128016Y284480D02*
X233910D01*
X128016Y289560D02*
X233910D01*
Y237330D02*
Y321940D01*
X128016Y269240D02*
X233910D01*
X128016Y299720D02*
X233910D01*
X128016Y309880D02*
X233910D01*
X128016Y294640D02*
X233910D01*
X128016Y243840D02*
X233910D01*
X128016Y248920D02*
X233910D01*
X227720Y237330D02*
X233910D01*
X132466Y238760D02*
X233910D01*
X128016Y259080D02*
X233910D01*
X128016Y264160D02*
X233910D01*
X128016Y254000D02*
X233910D01*
X228600Y237330D02*
Y362604D01*
X233680Y237330D02*
Y367684D01*
X142240Y236268D02*
Y325120D01*
X128016Y314960D02*
X233910D01*
X132080Y239146D02*
Y325120D01*
X137160Y237328D02*
Y325120D01*
X149772Y228600D02*
X227720D01*
X146284Y233680D02*
X227720D01*
X150740Y223520D02*
X227720D01*
X136930D02*
X149470D01*
X128016Y243210D02*
X134174Y237052D01*
X136930Y223520D02*
Y236060D01*
X125330Y385680D02*
X134620D01*
X115011Y376847D02*
X124062Y385899D01*
X128016Y368300D02*
X134839Y375122D01*
X5080Y381000D02*
X119164D01*
X5080Y375920D02*
X114220D01*
X59096Y350520D02*
X112776D01*
X59096Y340360D02*
X112776D01*
X59096Y345440D02*
X112776D01*
X5080Y314960D02*
X112776D01*
X5080Y320040D02*
X112776D01*
X5080Y330200D02*
X112776D01*
X5080Y335280D02*
X112776D01*
X5080Y325120D02*
X112776D01*
X59096Y365760D02*
X112776D01*
X27264Y368977D02*
X59096D01*
Y337144D02*
Y368977D01*
X27264Y337144D02*
Y368977D01*
X5080Y370840D02*
X112776D01*
X5080Y365760D02*
X27264D01*
X5080Y360680D02*
X27264D01*
X59096Y355600D02*
X112776D01*
X59096Y360680D02*
X112776D01*
X27264Y337144D02*
X59096D01*
X5080Y340360D02*
X27264D01*
X5080Y350520D02*
X27264D01*
X5080Y355600D02*
X27264D01*
X5080Y345440D02*
X27264D01*
X128016Y274320D02*
X233910D01*
X128016Y304800D02*
X233910D01*
X128016Y243210D02*
Y325120D01*
X5080Y238760D02*
X112887D01*
X112776Y240054D02*
Y371456D01*
X124390Y223520D02*
X136930D01*
X115011Y234663D02*
X123398Y226276D01*
X121920Y219286D02*
Y227754D01*
X5080Y228600D02*
X121074D01*
X5080Y233680D02*
X115994D01*
X5080Y223520D02*
X123120D01*
X5080Y289560D02*
X112776D01*
X5080Y294640D02*
X112776D01*
X5080Y279400D02*
X112776D01*
X5080Y284480D02*
X112776D01*
X5080Y304800D02*
X112776D01*
X5080Y309880D02*
X112776D01*
X5080Y299720D02*
X112776D01*
X5080Y254000D02*
X112776D01*
X5080Y259080D02*
X112776D01*
X5080Y243840D02*
X112776D01*
X5080Y248920D02*
X112776D01*
X5080Y269240D02*
X112776D01*
X5080Y274320D02*
X112776D01*
X5080Y264160D02*
X112776D01*
X367860Y160060D02*
Y204600D01*
X351310D02*
X367860D01*
X351310D02*
Y260220D01*
X320260Y156480D02*
X342680D01*
Y134060D02*
Y156480D01*
X340360D02*
Y291830D01*
X342680Y147320D02*
X376392D01*
X342680Y152400D02*
X371312D01*
X342680Y137160D02*
X386552D01*
X342680Y142240D02*
X381472D01*
X342013Y132080D02*
X391632D01*
X341069Y134060D02*
X342680D01*
X309880Y135890D02*
Y337204D01*
X304800Y135890D02*
Y425450D01*
X320040Y135890D02*
Y329460D01*
X314960Y135890D02*
Y332124D01*
X299720Y135840D02*
Y425450D01*
X294640Y133096D02*
Y425450D01*
X289560Y128016D02*
Y425450D01*
X330200Y156480D02*
Y291830D01*
X325120Y156480D02*
Y329420D01*
X335280Y156480D02*
Y291830D01*
X320260Y135890D02*
Y156480D01*
X300590Y135890D02*
X320260D01*
X370836Y152876D02*
X395840Y127872D01*
X360680Y5080D02*
Y204600D01*
X370840Y5080D02*
Y152872D01*
X365760Y5080D02*
Y204600D01*
X350520Y5080D02*
Y346426D01*
X345440Y5080D02*
Y291830D01*
X355600Y5080D02*
Y204600D01*
X340708Y121920D02*
X395840D01*
X342608Y127000D02*
X395840D01*
X381000Y5080D02*
Y142712D01*
X375920Y5080D02*
Y147792D01*
X340360Y118099D02*
Y121441D01*
X309880Y118890D02*
Y120650D01*
X284480Y122936D02*
Y425450D01*
X314960Y118890D02*
Y120650D01*
X304800Y118352D02*
Y120650D01*
X279400Y117856D02*
Y425450D01*
X274320Y112776D02*
Y425450D01*
X273340Y90244D02*
X303746Y120650D01*
X307612Y118890D02*
X323248D01*
X320040D02*
Y120650D01*
X303746D02*
X323248D01*
X255340Y213360D02*
X351310D01*
X255340Y218440D02*
X351310D01*
X228400Y198120D02*
X367860D01*
X255340Y209710D02*
Y237330D01*
X134112Y208280D02*
X351310D01*
X227720Y209710D02*
X255340D01*
X134112Y203200D02*
X367860D01*
X232985Y187960D02*
X367860D01*
X232366Y193040D02*
X367860D01*
X231792Y167640D02*
X367860D01*
X230998Y182880D02*
X367860D01*
X221596Y177800D02*
X367860D01*
X225942Y172720D02*
X367860D01*
X227720Y209710D02*
Y237330D01*
X223520Y199965D02*
Y357524D01*
X228600Y197978D02*
Y209710D01*
X218440Y199346D02*
Y352444D01*
X146284Y213360D02*
X227720D01*
X149772Y218440D02*
X227720D01*
X213360Y195380D02*
Y347364D01*
X223520Y173295D02*
Y178495D01*
X216516Y172720D02*
X218558D01*
X228600Y171308D02*
Y180482D01*
X218440Y172676D02*
Y174644D01*
X152200Y198120D02*
X216100D01*
X213360Y168710D02*
Y169564D01*
X209550Y165754D02*
X222216Y178420D01*
X269240Y107696D02*
Y398732D01*
X264160Y102616D02*
Y395893D01*
X259080Y100470D02*
Y393084D01*
X254000Y96926D02*
Y209710D01*
X231792Y157480D02*
X368193D01*
X233060Y162560D02*
X367860D01*
X225942Y152400D02*
X320260D01*
X209550Y132080D02*
X293624D01*
X209550Y127000D02*
X288544D01*
X262564Y101020D02*
X295199Y133655D01*
X209550Y121920D02*
X283464D01*
X209550Y142240D02*
X320260D01*
X209550Y147320D02*
X320260D01*
X209550Y137160D02*
X320260D01*
X248920Y36670D02*
Y209710D01*
X243840Y36670D02*
Y209710D01*
X238760Y5080D02*
Y209710D01*
X233680Y5080D02*
Y209710D01*
X222250Y162560D02*
Y172100D01*
X212710Y162560D02*
X222250D01*
X231790D01*
X222250Y153020D02*
Y162560D01*
X228600Y5080D02*
Y153812D01*
X223520Y5080D02*
Y151825D01*
X209550Y152400D02*
X218558D01*
X213360Y100985D02*
Y156410D01*
X218440Y99243D02*
Y152444D01*
X342669Y111760D02*
X571102D01*
X341198Y116840D02*
X464039D01*
X341697Y106680D02*
X566022D01*
X340360Y101099D02*
Y104441D01*
X331470Y111270D02*
X341410D01*
X299937Y116840D02*
X302412D01*
X342452Y96520D02*
X555862D01*
X342317Y91440D02*
X402369D01*
X341938Y81280D02*
X395848D01*
X340360Y84099D02*
Y87441D01*
X339952Y101600D02*
X560942D01*
X339413Y86360D02*
X396934D01*
X299720Y114154D02*
Y116623D01*
X294856Y111760D02*
X297326D01*
X293065Y107499D02*
X302221Y116655D01*
X294640Y109074D02*
Y111544D01*
X289776Y106680D02*
X292354D01*
X279617Y96520D02*
X290830D01*
X284697Y101600D02*
X290830D01*
Y83620D02*
Y102108D01*
X272649Y86360D02*
X290830D01*
X274536Y91440D02*
X290830D01*
X342629Y76200D02*
X397373D01*
X340843Y71120D02*
X406334D01*
X340360Y5080D02*
Y70441D01*
X331470Y77270D02*
X341410D01*
X331470Y67330D02*
Y77270D01*
X325120Y5080D02*
Y68032D01*
X320040Y5080D02*
Y69650D01*
X335280Y5080D02*
Y66727D01*
X330200Y5080D02*
Y66132D01*
X270110Y55880D02*
X456054D01*
X304800Y69650D02*
X323248D01*
X270110Y40640D02*
X456054D01*
X293065Y78229D02*
X299409Y71885D01*
X294640Y5080D02*
Y76653D01*
X289560Y5080D02*
Y106463D01*
X279400Y5080D02*
Y96304D01*
X274320Y5080D02*
Y91223D01*
X284480Y5080D02*
Y101383D01*
X304800Y5080D02*
Y69650D01*
X299720Y5080D02*
Y71590D01*
X314960Y5080D02*
Y69650D01*
X309880Y5080D02*
Y69650D01*
X270110Y76200D02*
X295093D01*
X270110Y81280D02*
X291198D01*
X270110Y71120D02*
X300301D01*
X254870Y36670D02*
Y82446D01*
X209550Y116840D02*
X278384D01*
X209550Y111760D02*
X273304D01*
X209550Y106680D02*
X268224D01*
X211836Y101600D02*
X263144D01*
X270110Y66040D02*
X525382D01*
X270110Y60960D02*
X456054D01*
X270110Y45720D02*
X456054D01*
X270110Y50800D02*
X456054D01*
X147320Y40640D02*
X254870D01*
X147320Y45720D02*
X254870D01*
X239150Y36670D02*
X254870D01*
X221287Y96520D02*
X253692D01*
X223265Y91440D02*
X251715D01*
X254000Y36670D02*
Y83414D01*
X222649Y86360D02*
X252331D01*
X218710Y81280D02*
X254870D01*
X147320Y55880D02*
X254870D01*
X149843Y76200D02*
X254870D01*
X147320Y50800D02*
X254870D01*
X153785Y35560D02*
X239150D01*
X147320Y66040D02*
X254870D01*
X147320Y71120D02*
X254870D01*
X147320Y60960D02*
X254870D01*
X270110Y35560D02*
X456054D01*
X270110Y32390D02*
Y82446D01*
X269867Y30480D02*
X658626D01*
X269240Y5080D02*
Y28854D01*
X266770Y25894D02*
X267875Y26999D01*
X266770Y20320D02*
X659696D01*
X266770Y25400D02*
X658626D01*
X266770Y10160D02*
X666021D01*
X266770Y15240D02*
X661999D01*
X37465Y5080D02*
X673735D01*
X266770Y9050D02*
Y25894D01*
X37465Y5080D02*
X673735D01*
X239150Y9050D02*
Y36670D01*
X161934Y20320D02*
X239150D01*
X218440Y5080D02*
Y81097D01*
X213360Y5080D02*
Y79355D01*
X161934Y25400D02*
X239150D01*
X159877Y30480D02*
X239150D01*
X159877Y15240D02*
X239150D01*
X254000Y5080D02*
Y9050D01*
X248920Y5080D02*
Y9050D01*
X264160Y5080D02*
Y9050D01*
X259080Y5080D02*
Y9050D01*
X239150D02*
X266770D01*
X153785Y10160D02*
X239150D01*
X243840Y5080D02*
Y9050D01*
X208280Y186036D02*
Y342284D01*
X203200Y180956D02*
Y318587D01*
X196545Y174301D02*
X211440Y189196D01*
X198120Y175876D02*
Y316845D01*
X156166Y193040D02*
X212134D01*
X152400Y197978D02*
Y412134D01*
X156785Y187960D02*
X210204D01*
X154798Y182880D02*
X205124D01*
X153670Y177800D02*
X200044D01*
X153670Y172720D02*
X195331D01*
X153670Y170228D02*
Y181562D01*
X147320Y199965D02*
Y214423D01*
X136930Y210980D02*
Y223520D01*
X142240Y199346D02*
Y210772D01*
X137160Y195380D02*
Y209712D01*
X121107Y218473D02*
X123398Y220764D01*
X134112Y198120D02*
X139900D01*
X134112Y172720D02*
X138430D01*
X134112Y177800D02*
X138430D01*
Y170228D02*
Y181562D01*
X137160Y168710D02*
Y183080D01*
X134112Y193040D02*
X135934D01*
X134112Y187960D02*
X135315D01*
X134112Y182880D02*
X137302D01*
X194310Y100730D02*
Y168910D01*
X182880Y5080D02*
Y395893D01*
X193040Y5080D02*
Y317660D01*
X187960Y5080D02*
Y322054D01*
X155592Y167640D02*
X194310D01*
X172720Y5080D02*
Y432454D01*
X177800Y5080D02*
Y398732D01*
X211436Y167640D02*
X212708D01*
X209550Y162560D02*
X211440D01*
X209550Y157480D02*
X212708D01*
X209550Y103886D02*
Y165754D01*
X155592Y157480D02*
X194310D01*
X156860Y162560D02*
X194310D01*
X149742Y152400D02*
X194310D01*
X157480Y33230D02*
Y417214D01*
X167640Y5080D02*
Y427374D01*
X162560Y5080D02*
Y422294D01*
X134112Y167640D02*
X136508D01*
X134112Y139700D02*
Y209926D01*
X142240Y139700D02*
Y152444D01*
X137160Y139700D02*
Y156410D01*
X152400Y36066D02*
Y153812D01*
X147320Y139700D02*
Y151825D01*
X134112Y157480D02*
X136508D01*
X134112Y162560D02*
X135240D01*
X134112Y152400D02*
X142358D01*
X5080Y193040D02*
X118872D01*
X5080Y198120D02*
X118872D01*
X5080Y218440D02*
X121074D01*
X5080Y213360D02*
X118877D01*
X5080Y203200D02*
X118872D01*
X5080Y208280D02*
X118872D01*
X59096Y172720D02*
X118872D01*
X59096Y177800D02*
X118872D01*
X59096Y162560D02*
X118872D01*
X59096Y167640D02*
X118872D01*
X5080Y182880D02*
X118872D01*
X5080Y187960D02*
X118872D01*
X27264Y180216D02*
X59096D01*
X50800D02*
Y337144D01*
X45720Y180216D02*
Y337144D01*
X55880Y180216D02*
Y337144D01*
X43180Y164300D02*
Y178946D01*
X35560Y180216D02*
Y337144D01*
X30480Y180216D02*
Y337144D01*
X40640Y180216D02*
Y337144D01*
X43180Y164300D02*
X57826D01*
X28533D02*
X43180D01*
X5080Y157480D02*
X27264D01*
X5080Y162560D02*
X27264D01*
X5080Y172720D02*
X27264D01*
X5080Y177800D02*
X27264D01*
X5080Y167640D02*
X27264D01*
X86360Y5080D02*
Y502920D01*
X81280Y5080D02*
Y502920D01*
X96520Y5080D02*
Y502920D01*
X91440Y5080D02*
Y502920D01*
X71120Y5080D02*
Y502920D01*
X66040Y5080D02*
Y502920D01*
X76200Y5080D02*
Y502920D01*
X118872Y92348D02*
Y213082D01*
X106680Y5080D02*
Y502920D01*
X116840Y5080D02*
Y232834D01*
X111760Y5080D02*
Y502920D01*
X59096Y152400D02*
X118872D01*
X59096Y157480D02*
X118872D01*
X101600Y5080D02*
Y502920D01*
X25400Y52574D02*
Y455426D01*
X20320Y51504D02*
Y456496D01*
X60960Y5080D02*
Y502920D01*
X15240Y49201D02*
Y458799D01*
X10160Y45179D02*
Y462821D01*
X5080Y37465D02*
Y470535D01*
Y37465D02*
Y470535D01*
X59096Y148383D02*
Y180216D01*
X43180Y149653D02*
Y164300D01*
X55880Y130217D02*
Y148383D01*
X30480Y130217D02*
Y148383D01*
X27264D02*
Y180216D01*
X5080Y152400D02*
X27264D01*
Y148383D02*
X59096D01*
X150260Y127000D02*
X194310D01*
X150260Y132080D02*
X194310D01*
X209550Y103886D02*
X212416Y101020D01*
X150260Y121920D02*
X194310D01*
X134112Y111760D02*
X194310D01*
X134112Y116840D02*
X194310D01*
X134112Y101600D02*
X194310D01*
X134112Y106680D02*
X194310D01*
X150041Y81280D02*
X206270D01*
X196545Y95339D02*
X201640Y90244D01*
X138176Y91440D02*
X200443D01*
X134112Y96520D02*
X195578D01*
X147406Y86360D02*
X202331D01*
X150260Y137160D02*
X194310D01*
X150260Y118580D02*
Y139700D01*
X137160Y92456D02*
Y118580D01*
X134112Y95504D02*
Y118580D01*
Y142240D02*
X194310D01*
X134112Y147320D02*
X194310D01*
X134112Y139700D02*
X150260D01*
X147320Y86451D02*
Y118580D01*
X142240Y89390D02*
Y118580D01*
X139700Y79140D02*
Y88430D01*
X134112Y118580D02*
X150260D01*
X134112Y95504D02*
X139919Y89698D01*
X198120Y5080D02*
Y93764D01*
X148360Y22860D02*
Y35400D01*
X208280Y5080D02*
Y80170D01*
X203200Y5080D02*
Y84564D01*
X139700Y79140D02*
X148990D01*
X148360Y22860D02*
X160900D01*
X148360Y10320D02*
Y22860D01*
X157480Y5080D02*
Y12490D01*
X152400Y5080D02*
Y9654D01*
X135820Y22860D02*
X148360D01*
X147320Y5080D02*
Y9089D01*
X130410Y79140D02*
X139700D01*
X132080Y31520D02*
Y71829D01*
Y31520D02*
Y71829D01*
X121107Y86957D02*
X129142Y78921D01*
X121920Y5080D02*
Y86144D01*
X127000Y5080D02*
Y81063D01*
X147320Y36631D02*
Y71829D01*
Y36631D02*
Y71829D01*
X142240Y5080D02*
Y10480D01*
X137160Y5080D02*
Y14780D01*
X132080Y5080D02*
Y31520D01*
X59096Y121920D02*
X118872D01*
X59096Y127000D02*
X118872D01*
X59096Y111760D02*
X118872D01*
X59096Y116840D02*
X118872D01*
X5080Y142240D02*
X118872D01*
X5080Y147320D02*
X118872D01*
X5080Y132080D02*
X118872D01*
X5080Y137160D02*
X118872D01*
X59096Y101600D02*
X118872D01*
X59096Y106680D02*
X118872D01*
X5080Y81280D02*
X126784D01*
X5080Y91440D02*
X118926D01*
X5080Y96520D02*
X118872D01*
X5080Y86360D02*
X121704D01*
X45720Y130217D02*
Y148383D01*
X40640Y130217D02*
Y148383D01*
X59096Y98384D02*
Y130217D01*
X50800D02*
Y148383D01*
X27264Y130217D02*
X59096D01*
X35560D02*
Y148383D01*
X27264Y98384D02*
Y130217D01*
X5080Y106680D02*
X27264D01*
X5080Y111760D02*
X27264D01*
Y98384D02*
X59096D01*
X5080Y101600D02*
X27264D01*
X5080Y121920D02*
X27264D01*
X5080Y127000D02*
X27264D01*
X5080Y116840D02*
X27264D01*
X5080Y55880D02*
X132080D01*
X5080Y60960D02*
X132080D01*
X45179Y45720D02*
X132080D01*
X37465Y50800D02*
X132080D01*
X5080Y71120D02*
X132080D01*
X5080Y76200D02*
X129557D01*
X5080Y66040D02*
X132080D01*
X52574Y30480D02*
X132151D01*
X51504Y35560D02*
X132080D01*
X51504Y20320D02*
X134785D01*
X52574Y25400D02*
X134785D01*
X49201Y15240D02*
X136842D01*
X49201Y40640D02*
X132080D01*
X45179Y10160D02*
X142935D01*
X45720Y45179D02*
Y98384D01*
X40640Y49201D02*
Y98384D01*
X55880Y5080D02*
Y98384D01*
X50800Y37465D02*
Y98384D01*
X35560Y51504D02*
Y98384D01*
X30480Y52574D02*
Y98384D01*
X40640Y5080D02*
Y6679D01*
X50800Y5080D02*
Y18415D01*
X45720Y5080D02*
Y10701D01*
X5080Y50800D02*
X18415D01*
X5080Y45720D02*
X10701D01*
X5080Y40640D02*
X6679D01*
D18*
X457370Y209550D02*
D03*
Y222250D02*
D03*
Y234950D02*
D03*
Y247650D02*
D03*
X415120Y213360D02*
D03*
Y226060D02*
D03*
Y238760D02*
D03*
Y251460D02*
D03*
D19*
X584050Y203200D02*
D03*
X597050Y180340D02*
D03*
X584050D02*
D03*
X603550D02*
D03*
Y203200D02*
D03*
X597050D02*
D03*
X590550D02*
D03*
Y180340D02*
D03*
D39*
X494470Y228600D02*
D03*
X378020Y232410D02*
D03*
D40*
X201930Y100730D02*
X212490Y90170D01*
X201930Y100730D02*
Y168910D01*
X222250Y189230D01*
X262490Y90170D02*
X300590Y128270D01*
X262490Y32390D02*
Y90170D01*
X252960Y22860D02*
X262490Y32390D01*
X298450Y102108D02*
X307612Y111270D01*
X331470D01*
X314960Y366576D02*
X319424Y371040D01*
X336550D01*
X314960Y342900D02*
X320820Y337040D01*
X314960Y342900D02*
Y366576D01*
X320820Y337040D02*
X336550D01*
X350230Y354040D02*
X355600Y359410D01*
X336550Y354040D02*
X350230D01*
X355600Y359410D02*
Y389382D01*
X311912Y433070D02*
X355600Y389382D01*
X455460Y409410D02*
X486410Y378460D01*
X455460Y409410D02*
Y462280D01*
X197250Y327660D02*
Y342030D01*
X261620Y406400D01*
X262890Y433070D02*
Y457200D01*
Y433070D02*
X311912D01*
X681990Y124460D02*
Y149860D01*
X670560Y113030D02*
X681990Y124460D01*
X635000Y102000D02*
X646030Y113030D01*
X670560D01*
X635000Y55620D02*
Y102000D01*
X621030Y41650D02*
X635000Y55620D01*
X134620Y405130D02*
X186690Y457200D01*
X134620Y385680D02*
Y405130D01*
X120396Y371456D02*
X134620Y385680D01*
X120396Y240054D02*
X136930Y223520D01*
X120396Y240054D02*
Y371456D01*
X126492Y213082D02*
X136930Y223520D01*
X304800Y77270D02*
X331470D01*
X298450Y83620D02*
Y102108D01*
Y83620D02*
X304800Y77270D01*
X126492Y92348D02*
X139700Y79140D01*
X126492Y92348D02*
Y213082D01*
X139700Y31520D02*
X148360Y22860D01*
X139700Y31520D02*
Y79140D01*
X241530Y321940D02*
X247250Y327660D01*
X457200Y133858D02*
Y209550D01*
X550418Y123698D02*
X563880Y137160D01*
X521208Y259080D02*
X523748Y256540D01*
X427736Y259080D02*
X521208D01*
X457200Y209550D02*
X457370D01*
X420116Y251460D02*
X427736Y259080D01*
X415120Y251460D02*
X420116D01*
X523748Y149606D02*
Y256540D01*
X497840Y123698D02*
X523748Y149606D01*
X497840Y123698D02*
X550418D01*
X457200Y133858D02*
X467360Y123698D01*
X497840D01*
X653542Y385572D02*
Y436880D01*
X643382Y447040D02*
X653542Y436880D01*
X605790Y447040D02*
X643382D01*
X643890Y375920D02*
X653542Y385572D01*
X589280Y430530D02*
X605790Y447040D01*
X186690Y406400D02*
Y433070D01*
X241530Y223520D02*
Y321940D01*
X300590Y128270D02*
X331470D01*
X185420Y406400D02*
X186690D01*
X146050Y162560D02*
Y189230D01*
D41*
X378020Y298010D02*
X390290Y310280D01*
X378020Y232410D02*
Y298010D01*
X406400Y310280D02*
X453790D01*
X390290D02*
X406400D01*
X378020Y160060D02*
Y232410D01*
Y160060D02*
X406400Y131680D01*
X505460Y361950D02*
Y462280D01*
X453790Y310280D02*
X505460Y361950D01*
X521970Y48260D02*
X586740Y113030D01*
X596030D01*
X494470Y169350D02*
Y228600D01*
X487680Y162560D02*
X494470Y169350D01*
D42*
X587566Y191770D02*
X640080D01*
X584073Y195263D02*
X587566Y191770D01*
X640080D02*
X681990Y149860D01*
X584050Y203200D02*
X584073Y203177D01*
Y195263D02*
Y203177D01*
X596030Y113030D02*
Y146513D01*
X597050Y147534D01*
Y180340D01*
X603550Y176276D02*
Y180340D01*
Y176276D02*
X610485Y169341D01*
X618059D01*
X619760Y167640D01*
X643890Y342900D02*
X698500Y288290D01*
Y225677D02*
Y288290D01*
X643890Y342900D02*
Y375920D01*
X584050Y176276D02*
Y180340D01*
X583923Y176149D02*
X584050Y176276D01*
X577469Y176149D02*
X583923D01*
X563880Y162560D02*
X577469Y176149D01*
X610401Y214115D02*
X686938D01*
X603550Y207264D02*
X610401Y214115D01*
X686938D02*
X698500Y225677D01*
X603550Y203200D02*
Y207264D01*
X597073Y203223D02*
Y242743D01*
X613410Y259080D02*
Y299720D01*
X597073Y242743D02*
X613410Y259080D01*
X597050Y203200D02*
X597073Y203223D01*
X582930Y255270D02*
X590550Y247650D01*
Y203200D02*
Y247650D01*
X582930Y255270D02*
Y299720D01*
D43*
X628650Y262890D02*
Y416560D01*
X614680Y430530D02*
X628650Y416560D01*
X640080Y251460D02*
X681990D01*
X628650Y262890D02*
X640080Y251460D01*
X457370Y234950D02*
Y247650D01*
Y222250D02*
Y234950D01*
X438150Y222250D02*
X457370D01*
X434340Y226060D02*
X438150Y222250D01*
X415120Y226060D02*
X434340D01*
X415120D02*
Y238760D01*
Y213360D02*
Y226060D01*
D44*
X336550Y303040D02*
D03*
X331470Y145270D02*
D03*
D45*
X336550Y320040D02*
D03*
Y354040D02*
D03*
Y337040D02*
D03*
Y371040D02*
D03*
X331470Y111270D02*
D03*
Y77270D02*
D03*
Y128270D02*
D03*
Y94270D02*
D03*
D46*
X262890Y457200D02*
D03*
Y433070D02*
D03*
X486410Y378460D02*
D03*
X186690Y457200D02*
D03*
X222250Y162560D02*
D03*
X524510Y302260D02*
D03*
Y378460D02*
D03*
X486410Y302260D02*
D03*
X563880Y162560D02*
D03*
Y137160D02*
D03*
X643890Y375920D02*
D03*
X487680Y162560D02*
D03*
Y137160D02*
D03*
X643890Y299720D02*
D03*
X582930Y375920D02*
D03*
Y299720D02*
D03*
X613410D02*
D03*
Y375920D02*
D03*
X146050Y162560D02*
D03*
Y189230D02*
D03*
X222250D02*
D03*
X185420Y406400D02*
D03*
X261620D02*
D03*
X186690Y433070D02*
D03*
X552450Y378460D02*
D03*
Y302260D02*
D03*
D47*
X455460Y462280D02*
D03*
X471970Y48260D02*
D03*
X505460Y462280D02*
D03*
X521970Y48260D02*
D03*
D48*
X406400Y360280D02*
D03*
X646030Y113030D02*
D03*
X406400Y81680D02*
D03*
X134620Y385680D02*
D03*
X139700Y79140D02*
D03*
D49*
X681990Y149860D02*
D03*
D50*
X621030Y41650D02*
D03*
Y72650D02*
D03*
D51*
X136930Y223520D02*
D03*
X148360Y22860D02*
D03*
D52*
X43180Y403060D02*
D03*
Y164300D02*
D03*
Y353060D02*
D03*
Y114300D02*
D03*
D53*
X406400Y310280D02*
D03*
X406400Y131680D02*
D03*
X134620Y335680D02*
D03*
X139700Y129140D02*
D03*
D54*
X596030Y113030D02*
D03*
D55*
X589280Y430530D02*
D03*
X614680D02*
D03*
X640080D02*
D03*
Y481330D02*
D03*
X589280D02*
D03*
X247250Y327660D02*
D03*
X197250D02*
D03*
X262490Y90170D02*
D03*
X212490D02*
D03*
D56*
X681990Y251460D02*
D03*
Y226060D02*
D03*
Y200660D02*
D03*
Y175260D02*
D03*
D57*
X241530Y223520D02*
D03*
X252960Y22860D02*
D03*
D58*
X683260Y480060D02*
D03*
X27940Y27940D02*
D03*
Y480060D02*
D03*
X683260Y27940D02*
D03*
D59*
X619760Y167640D02*
D03*
M02*
