G04*
G04 #@! TF.GenerationSoftware,Altium Limited,Altium Designer,25.8.1 (18)*
G04*
G04 Layer_Color=8388736*
%FSLAX44Y44*%
%MOMM*%
G71*
G04*
G04 #@! TF.SameCoordinates,BF8AE3AB-10A6-47A9-9AB8-1695DD9DDF60*
G04*
G04*
G04 #@! TF.FilePolarity,Negative*
G04*
G01*
G75*
%ADD20R,1.8232X0.8032*%
%ADD21R,4.7832X5.0032*%
%ADD22R,0.6104X1.4232*%
%ADD23R,1.6832X1.6832*%
%ADD24C,1.6832*%
%ADD25C,1.6032*%
%ADD26R,2.6245X2.6245*%
%ADD27C,1.5532*%
%ADD28R,1.7032X1.7032*%
%ADD29C,1.5032*%
%ADD30C,2.2032*%
%ADD31R,2.6245X2.6245*%
%ADD32R,1.5532X1.5532*%
%ADD33R,1.5532X1.5532*%
%ADD34C,1.6112*%
%ADD35C,1.7032*%
%ADD36R,2.2032X2.2032*%
%ADD37C,4.3942*%
%ADD38C,1.4732*%
D20*
X457370Y209550D02*
D03*
Y222250D02*
D03*
Y234950D02*
D03*
Y247650D02*
D03*
X415120Y213360D02*
D03*
Y226060D02*
D03*
Y238760D02*
D03*
Y251460D02*
D03*
D21*
X494470Y228600D02*
D03*
X378020Y232410D02*
D03*
D22*
X584050Y203200D02*
D03*
X597050Y180340D02*
D03*
X584050D02*
D03*
X603550D02*
D03*
Y203200D02*
D03*
X597050D02*
D03*
X590550D02*
D03*
Y180340D02*
D03*
D23*
X336550Y303040D02*
D03*
X331470Y145270D02*
D03*
D24*
X336550Y320040D02*
D03*
Y354040D02*
D03*
Y337040D02*
D03*
Y371040D02*
D03*
X331470Y111270D02*
D03*
Y77270D02*
D03*
Y128270D02*
D03*
Y94270D02*
D03*
D25*
X262890Y457200D02*
D03*
Y433070D02*
D03*
X486410Y378460D02*
D03*
X186690Y457200D02*
D03*
X222250Y162560D02*
D03*
X524510Y302260D02*
D03*
Y378460D02*
D03*
X486410Y302260D02*
D03*
X563880Y162560D02*
D03*
Y137160D02*
D03*
X643890Y375920D02*
D03*
X487680Y162560D02*
D03*
Y137160D02*
D03*
X643890Y299720D02*
D03*
X582930Y375920D02*
D03*
Y299720D02*
D03*
X613410D02*
D03*
Y375920D02*
D03*
X146050Y162560D02*
D03*
Y189230D02*
D03*
X222250D02*
D03*
X185420Y406400D02*
D03*
X261620D02*
D03*
X186690Y433070D02*
D03*
X552450Y378460D02*
D03*
Y302260D02*
D03*
D26*
X455460Y462280D02*
D03*
X471970Y48260D02*
D03*
X505460Y462280D02*
D03*
X521970Y48260D02*
D03*
D27*
X406400Y360280D02*
D03*
X646030Y113030D02*
D03*
X406400Y81680D02*
D03*
X134620Y385680D02*
D03*
X139700Y79140D02*
D03*
D28*
X681990Y149860D02*
D03*
D29*
X621030Y41650D02*
D03*
Y72650D02*
D03*
D30*
X136930Y223520D02*
D03*
X148360Y22860D02*
D03*
D31*
X43180Y403060D02*
D03*
Y164300D02*
D03*
Y353060D02*
D03*
Y114300D02*
D03*
D32*
X406400Y310280D02*
D03*
X406400Y131680D02*
D03*
X134620Y335680D02*
D03*
X139700Y129140D02*
D03*
D33*
X596030Y113030D02*
D03*
D34*
X589280Y430530D02*
D03*
X614680D02*
D03*
X640080D02*
D03*
Y481330D02*
D03*
X589280D02*
D03*
X247250Y327660D02*
D03*
X197250D02*
D03*
X262490Y90170D02*
D03*
X212490D02*
D03*
D35*
X681990Y251460D02*
D03*
Y226060D02*
D03*
Y200660D02*
D03*
Y175260D02*
D03*
D36*
X241530Y223520D02*
D03*
X252960Y22860D02*
D03*
D37*
X683260Y480060D02*
D03*
X27940Y27940D02*
D03*
Y480060D02*
D03*
X683260Y27940D02*
D03*
D38*
X619760Y167640D02*
D03*
M02*
