G04*
G04 #@! TF.GenerationSoftware,Altium Limited,Altium Designer,25.8.1 (18)*
G04*
G04 Layer_Color=65535*
%FSLAX44Y44*%
%MOMM*%
G71*
G04*
G04 #@! TF.SameCoordinates,BF8AE3AB-10A6-47A9-9AB8-1695DD9DDF60*
G04*
G04*
G04 #@! TF.FilePolarity,Positive*
G04*
G01*
G75*
%ADD10C,0.2000*%
%ADD11C,0.0000*%
%ADD12C,0.1270*%
%ADD13C,0.1200*%
%ADD14C,0.1524*%
%ADD15C,0.2540*%
%ADD16C,0.2644*%
%ADD17R,0.8000X2.8000*%
D10*
X456870Y258600D02*
G03*
X456870Y258600I-1000J0D01*
G01*
X417620Y202410D02*
G03*
X417620Y202410I-1000J0D01*
G01*
X361550Y303040D02*
G03*
X361550Y303040I-1000J0D01*
G01*
X604165Y102280D02*
G03*
X639219Y104713I16865J10750D01*
G01*
Y121347D02*
G03*
X604165Y123780I-18189J-8317D01*
G01*
X610809Y68703D02*
G03*
X610971Y45257I10221J-11652D01*
G01*
X631089Y45357D02*
G03*
X631251Y68802I-10059J11793D01*
G01*
X398083Y353469D02*
G03*
X395650Y318415I8317J-18189D01*
G01*
X417150D02*
G03*
X414717Y353469I-10750J16865D01*
G01*
X414717Y88491D02*
G03*
X417150Y123545I-8317J18189D01*
G01*
X395650D02*
G03*
X398083Y88491I10750J-16865D01*
G01*
X126303Y378869D02*
G03*
X123870Y343815I8317J-18189D01*
G01*
X145370D02*
G03*
X142937Y378869I-10750J16865D01*
G01*
X148017Y85951D02*
G03*
X150450Y121005I-8317J18189D01*
G01*
X128950D02*
G03*
X131383Y85951I10750J-16865D01*
G01*
X308470Y145270D02*
G03*
X308470Y145270I-1000J0D01*
G01*
X524510Y314960D02*
X532130D01*
Y365760D01*
X516890D02*
X532130D01*
X516890Y314960D02*
Y365760D01*
Y314960D02*
X524510D01*
Y365760D02*
Y368046D01*
Y312674D02*
Y314960D01*
X478790Y365760D02*
X486410D01*
X478790Y314960D02*
Y365760D01*
Y314960D02*
X494030D01*
Y365760D01*
X486410D02*
X494030D01*
X486410Y312674D02*
Y314960D01*
Y365760D02*
Y368046D01*
X500380Y154940D02*
Y162560D01*
Y154940D02*
X551180D01*
Y170180D01*
X500380D02*
X551180D01*
X500380Y162560D02*
Y170180D01*
X551180Y162560D02*
X553466D01*
X498094D02*
X500380D01*
Y129540D02*
Y137160D01*
Y129540D02*
X551180D01*
Y144780D01*
X500380D02*
X551180D01*
X500380Y137160D02*
Y144780D01*
X551180Y137160D02*
X553466D01*
X498094D02*
X500380D01*
X643890Y310134D02*
Y312420D01*
Y363220D02*
Y365506D01*
X636270Y312420D02*
X643890D01*
X636270D02*
Y363220D01*
X651510D01*
Y312420D02*
Y363220D01*
X643890Y312420D02*
X651510D01*
X582930Y310134D02*
Y312420D01*
Y363220D02*
Y365506D01*
X575310Y312420D02*
X582930D01*
X575310D02*
Y363220D01*
X590550D01*
Y312420D02*
Y363220D01*
X582930Y312420D02*
X590550D01*
X174160Y8860D02*
Y36860D01*
X227160D01*
X174160Y8860D02*
X227160D01*
X162730Y209520D02*
Y237520D01*
X215730D01*
X162730Y209520D02*
X215730D01*
X613410Y363220D02*
Y365506D01*
Y310134D02*
Y312420D01*
Y363220D02*
X621030D01*
Y312420D02*
Y363220D01*
X605790Y312420D02*
X621030D01*
X605790D02*
Y363220D01*
X613410D01*
X156464Y162560D02*
X158750D01*
X209550D02*
X211836D01*
X158750D02*
Y170180D01*
X209550D01*
Y154940D02*
Y170180D01*
X158750Y154940D02*
X209550D01*
X158750D02*
Y162560D01*
X209550Y189230D02*
X211836D01*
X156464D02*
X158750D01*
X209550Y181610D02*
Y189230D01*
X158750Y181610D02*
X209550D01*
X158750D02*
Y196850D01*
X209550D01*
Y189230D02*
Y196850D01*
X248920Y406400D02*
X251206D01*
X195834D02*
X198120D01*
X248920Y398780D02*
Y406400D01*
X198120Y398780D02*
X248920D01*
X198120D02*
Y414020D01*
X248920D01*
Y406400D02*
Y414020D01*
X197104Y433070D02*
X199390D01*
X250190D02*
X252476D01*
X199390D02*
Y440690D01*
X250190D01*
Y425450D02*
Y440690D01*
X199390Y425450D02*
X250190D01*
X199390D02*
Y433070D01*
X250190Y457200D02*
X252476D01*
X197104D02*
X199390D01*
X250190Y449580D02*
Y457200D01*
X199390Y449580D02*
X250190D01*
X199390D02*
Y464820D01*
X250190D01*
Y457200D02*
Y464820D01*
X669290Y137160D02*
X694690D01*
X669290D02*
Y264160D01*
X694690Y137160D02*
Y264160D01*
X669290D02*
X694690D01*
X544830Y365760D02*
X552450D01*
X544830Y314960D02*
Y365760D01*
Y314960D02*
X560070D01*
Y365760D01*
X552450D02*
X560070D01*
X552450Y312674D02*
Y314960D01*
Y365760D02*
Y368046D01*
D11*
X507960Y419240D02*
G03*
X507960Y419240I-2500J0D01*
G01*
X2640Y353060D02*
G03*
X2640Y353060I-2500J0D01*
G01*
Y114300D02*
G03*
X2640Y114300I-2500J0D01*
G01*
X524470Y5220D02*
G03*
X524470Y5220I-2500J0D01*
G01*
D12*
X267250Y327660D02*
G03*
X267250Y327660I-45000J0D01*
G01*
X282490Y90170D02*
G03*
X282490Y90170I-45000J0D01*
G01*
X464120Y201400D02*
X503620D01*
X464120Y255800D02*
X503620D01*
X368870Y205210D02*
X408370D01*
X368870Y259610D02*
X408370D01*
X308050Y284340D02*
Y389740D01*
X355050D01*
Y284340D02*
Y389740D01*
X308050Y284340D02*
X355050D01*
X649680Y442330D02*
Y472330D01*
X579680Y442330D02*
Y472330D01*
X599520Y491330D02*
X629840D01*
X359970Y58570D02*
Y163970D01*
X312970Y58570D02*
X359970D01*
X312970D02*
Y163970D01*
X359970D01*
D13*
X427960Y500280D02*
X532960D01*
Y424280D02*
Y500280D01*
X427960Y424280D02*
X532960D01*
X427960D02*
Y500280D01*
X81180Y325560D02*
Y430560D01*
X5180Y325560D02*
X81180D01*
X5180D02*
Y430560D01*
X81180D01*
Y86800D02*
Y191800D01*
X5180Y86800D02*
X81180D01*
X5180D02*
Y191800D01*
X81180D01*
X444470Y86260D02*
X549470D01*
Y10260D02*
Y86260D01*
X444470Y10260D02*
X549470D01*
X444470D02*
Y86260D01*
D14*
X578052Y181610D02*
Y201930D01*
X609548Y181610D02*
Y201930D01*
D15*
X481330Y267972D02*
Y278128D01*
X478791Y280667D01*
X473713D01*
X471173Y278128D01*
Y267972D01*
X473713Y265432D01*
X478791D01*
X476252Y270511D02*
X481330Y265432D01*
X478791D02*
X481330Y267972D01*
X486408Y265432D02*
X491487D01*
X488948D01*
Y280667D01*
X486408Y278128D01*
X383541Y269242D02*
Y279398D01*
X381002Y281938D01*
X375923D01*
X373384Y279398D01*
Y269242D01*
X375923Y266702D01*
X381002D01*
X378462Y271781D02*
X383541Y266702D01*
X381002D02*
X383541Y269242D01*
X398776Y266702D02*
X388619D01*
X398776Y276859D01*
Y279398D01*
X396237Y281938D01*
X391158D01*
X388619Y279398D01*
X307848Y415285D02*
Y405128D01*
X312926Y400050D01*
X318005Y405128D01*
Y415285D01*
X323083Y400050D02*
Y415285D01*
X330701D01*
X333240Y412746D01*
Y407668D01*
X330701Y405128D01*
X323083D01*
X328161D02*
X333240Y400050D01*
X348475D02*
X338318D01*
X348475Y410207D01*
Y412746D01*
X345936Y415285D01*
X340857D01*
X338318Y412746D01*
X532127Y388624D02*
X516893D01*
Y396242D01*
X519432Y398781D01*
X524510D01*
X527049Y396242D01*
Y388624D01*
Y393703D02*
X532127Y398781D01*
X529588Y403859D02*
X532127Y406398D01*
Y411477D01*
X529588Y414016D01*
X519432D01*
X516893Y411477D01*
Y406398D01*
X519432Y403859D01*
X521971D01*
X524510Y406398D01*
Y414016D01*
X473708Y322586D02*
X458473D01*
Y330204D01*
X461012Y332743D01*
X466090D01*
X468629Y330204D01*
Y322586D01*
Y327664D02*
X473708Y332743D01*
Y337821D02*
Y342900D01*
Y340360D01*
X458473D01*
X461012Y337821D01*
Y350517D02*
X458473Y353056D01*
Y358135D01*
X461012Y360674D01*
X471168D01*
X473708Y358135D01*
Y353056D01*
X471168Y350517D01*
X461012D01*
X431806Y153673D02*
Y168908D01*
X439424D01*
X441963Y166368D01*
Y161290D01*
X439424Y158751D01*
X431806D01*
X436884D02*
X441963Y153673D01*
X447041D02*
X452120D01*
X449580D01*
Y168908D01*
X447041Y166368D01*
X469894Y153673D02*
X459737D01*
X469894Y163829D01*
Y166368D01*
X467355Y168908D01*
X462276D01*
X459737Y166368D01*
X618491Y148588D02*
X615952Y151128D01*
X610873D01*
X608334Y148588D01*
Y138432D01*
X610873Y135892D01*
X615952D01*
X618491Y138432D01*
X633726Y151128D02*
X623569D01*
Y143510D01*
X628647Y146049D01*
X631187D01*
X633726Y143510D01*
Y138432D01*
X631187Y135892D01*
X626108D01*
X623569Y138432D01*
X650241Y62228D02*
X647702Y64767D01*
X642623D01*
X640084Y62228D01*
Y52072D01*
X642623Y49532D01*
X647702D01*
X650241Y52072D01*
X665476Y64767D02*
X660397Y62228D01*
X655319Y57150D01*
Y52072D01*
X657858Y49532D01*
X662937D01*
X665476Y52072D01*
Y54611D01*
X662937Y57150D01*
X655319D01*
X431806Y129543D02*
Y144777D01*
X439424D01*
X441963Y142238D01*
Y137160D01*
X439424Y134621D01*
X431806D01*
X436884D02*
X441963Y129543D01*
X447041D02*
X452120D01*
X449580D01*
Y144777D01*
X447041Y142238D01*
X459737D02*
X462276Y144777D01*
X467355D01*
X469894Y142238D01*
Y139699D01*
X467355Y137160D01*
X464815D01*
X467355D01*
X469894Y134621D01*
Y132082D01*
X467355Y129543D01*
X462276D01*
X459737Y132082D01*
X554990Y48258D02*
X565147D01*
X560068Y53337D02*
Y43180D01*
X541020Y461008D02*
X551177D01*
X546098Y466087D02*
Y455930D01*
X36830Y302258D02*
X46987D01*
X41908Y307337D02*
Y297180D01*
X36830Y68578D02*
X46987D01*
X41908Y73657D02*
Y63500D01*
X669294Y546097D02*
Y530863D01*
Y538480D01*
X679451D01*
Y546097D01*
Y530863D01*
X692147D02*
Y546097D01*
X684529Y538480D01*
X694686D01*
X-52066Y-19052D02*
Y-34288D01*
Y-26670D01*
X-41909D01*
Y-19052D01*
Y-34288D01*
X-36831Y-21592D02*
X-34292Y-19052D01*
X-29213D01*
X-26674Y-21592D01*
Y-24131D01*
X-29213Y-26670D01*
X-31753D01*
X-29213D01*
X-26674Y-29209D01*
Y-31748D01*
X-29213Y-34288D01*
X-34292D01*
X-36831Y-31748D01*
X-20316Y542287D02*
Y527052D01*
Y534670D01*
X-10159D01*
Y542287D01*
Y527052D01*
X5076D02*
X-5081D01*
X5076Y537209D01*
Y539748D01*
X2537Y542287D01*
X-2542D01*
X-5081Y539748D01*
X698503Y-16513D02*
Y-31748D01*
Y-24130D01*
X708660D01*
Y-16513D01*
Y-31748D01*
X713738D02*
X718817D01*
X716278D01*
Y-16513D01*
X713738Y-19052D01*
X175264Y260347D02*
Y245112D01*
X182882D01*
X185421Y247652D01*
Y257808D01*
X182882Y260347D01*
X175264D01*
X200656Y245112D02*
X190499D01*
X200656Y255269D01*
Y257808D01*
X198117Y260347D01*
X193038D01*
X190499Y257808D01*
X106681Y398778D02*
X104142Y401317D01*
X99063D01*
X96524Y398778D01*
Y388622D01*
X99063Y386082D01*
X104142D01*
X106681Y388622D01*
X119377Y386082D02*
Y401317D01*
X111759Y393700D01*
X121916D01*
X403861Y384408D02*
X401322Y386948D01*
X396243D01*
X393704Y384408D01*
Y374252D01*
X396243Y371712D01*
X401322D01*
X403861Y374252D01*
X408939Y384408D02*
X411478Y386948D01*
X416557D01*
X419096Y384408D01*
Y381869D01*
X416557Y379330D01*
X414018D01*
X416557D01*
X419096Y376791D01*
Y374252D01*
X416557Y371712D01*
X411478D01*
X408939Y374252D01*
X406400Y64768D02*
X403861Y67308D01*
X398783D01*
X396243Y64768D01*
Y54612D01*
X398783Y52073D01*
X403861D01*
X406400Y54612D01*
X411478Y52073D02*
X416557D01*
X414018D01*
Y67308D01*
X411478Y64768D01*
X97791Y109218D02*
X95252Y111757D01*
X90173D01*
X87634Y109218D01*
Y99062D01*
X90173Y96523D01*
X95252D01*
X97791Y99062D01*
X113026Y96523D02*
X102869D01*
X113026Y106679D01*
Y109218D01*
X110487Y111757D01*
X105408D01*
X102869Y109218D01*
X670814Y272796D02*
Y288031D01*
X678431D01*
X680971Y285492D01*
Y280413D01*
X678431Y277874D01*
X670814D01*
X686049Y272796D02*
X691127D01*
X688588D01*
Y288031D01*
X686049Y285492D01*
X671830Y439418D02*
X669291Y441958D01*
X664212D01*
X661673Y439418D01*
Y436879D01*
X664212Y434340D01*
X669291D01*
X671830Y431801D01*
Y429262D01*
X669291Y426722D01*
X664212D01*
X661673Y429262D01*
X676908Y426722D02*
X681987D01*
X679448D01*
Y441958D01*
X676908Y439418D01*
X619757Y261624D02*
X604523D01*
Y269242D01*
X607062Y271781D01*
X612140D01*
X614679Y269242D01*
Y261624D01*
Y266702D02*
X619757Y271781D01*
X604523Y287016D02*
X607062Y281938D01*
X612140Y276859D01*
X617218D01*
X619757Y279398D01*
Y284477D01*
X617218Y287016D01*
X614679D01*
X612140Y284477D01*
Y276859D01*
X149864Y425452D02*
Y440687D01*
X157482D01*
X160021Y438148D01*
Y433070D01*
X157482Y430531D01*
X149864D01*
X154943D02*
X160021Y425452D01*
X172717D02*
Y440687D01*
X165099Y433070D01*
X175256D01*
X367039Y458473D02*
X372117D01*
X369578D01*
Y473708D01*
X367039Y471168D01*
X389891Y458473D02*
X379734D01*
X389891Y468629D01*
Y471168D01*
X387352Y473708D01*
X382274D01*
X379734Y471168D01*
X394970Y473708D02*
Y463551D01*
X400048Y458473D01*
X405126Y463551D01*
Y473708D01*
X420361Y458473D02*
X410205D01*
X420361Y468629D01*
Y471168D01*
X417822Y473708D01*
X412744D01*
X410205Y471168D01*
X444500Y96520D02*
X449578D01*
X447039D01*
Y111755D01*
X444500Y109216D01*
X467353Y96520D02*
X457196D01*
X467353Y106677D01*
Y109216D01*
X464813Y111755D01*
X459735D01*
X457196Y109216D01*
X472431Y111755D02*
Y101598D01*
X477509Y96520D01*
X482588Y101598D01*
Y111755D01*
X487666Y96520D02*
X492744D01*
X490205D01*
Y111755D01*
X487666Y109216D01*
X22868Y449577D02*
X17789Y447038D01*
X12711Y441960D01*
Y436882D01*
X15250Y434342D01*
X20329D01*
X22868Y436882D01*
Y439421D01*
X20329Y441960D01*
X12711D01*
X27946Y434342D02*
Y436882D01*
X30485D01*
Y434342D01*
X27946D01*
X40642Y449577D02*
X50799D01*
Y447038D01*
X40642Y436882D01*
Y434342D01*
X66034Y449577D02*
X55877D01*
Y441960D01*
X60956Y444499D01*
X63495D01*
X66034Y441960D01*
Y436882D01*
X63495Y434342D01*
X58416D01*
X55877Y436882D01*
X71112Y449577D02*
Y439421D01*
X76191Y434342D01*
X81269Y439421D01*
Y449577D01*
X43181Y214627D02*
X33024D01*
Y207010D01*
X38103Y209549D01*
X40642D01*
X43181Y207010D01*
Y201932D01*
X40642Y199393D01*
X35563D01*
X33024Y201932D01*
X48259Y214627D02*
Y204471D01*
X53337Y199393D01*
X58416Y204471D01*
Y214627D01*
X308102Y189479D02*
Y179322D01*
X313180Y174244D01*
X318259Y179322D01*
Y189479D01*
X323337Y174244D02*
Y189479D01*
X330955D01*
X333494Y186940D01*
Y181861D01*
X330955Y179322D01*
X323337D01*
X328415D02*
X333494Y174244D01*
X338572D02*
X343651D01*
X341111D01*
Y189479D01*
X338572Y186940D01*
X614683Y198118D02*
Y185422D01*
X617223Y182882D01*
X622301D01*
X624840Y185422D01*
Y198118D01*
X629918Y182882D02*
X634997D01*
X632458D01*
Y198118D01*
X629918Y195578D01*
X561338Y388624D02*
X546102D01*
Y396242D01*
X548642Y398781D01*
X553720D01*
X556259Y396242D01*
Y388624D01*
Y393703D02*
X561338Y398781D01*
X548642Y403859D02*
X546102Y406398D01*
Y411477D01*
X548642Y414016D01*
X551181D01*
X553720Y411477D01*
X556259Y414016D01*
X558798D01*
X561338Y411477D01*
Y406398D01*
X558798Y403859D01*
X556259D01*
X553720Y406398D01*
X551181Y403859D01*
X548642D01*
X553720Y406398D02*
Y411477D01*
X591818Y386084D02*
X576582D01*
Y393702D01*
X579122Y396241D01*
X584200D01*
X586739Y393702D01*
Y386084D01*
Y391162D02*
X591818Y396241D01*
X576582Y401319D02*
Y411476D01*
X579122D01*
X589278Y401319D01*
X591818D01*
X671827Y320045D02*
X656592D01*
Y327663D01*
X659132Y330202D01*
X664210D01*
X666749Y327663D01*
Y320045D01*
Y325124D02*
X671827Y330202D01*
Y335280D02*
Y340359D01*
Y337820D01*
X656592D01*
X659132Y335280D01*
X671827Y347976D02*
Y353055D01*
Y350516D01*
X656592D01*
X659132Y347976D01*
X149864Y449582D02*
Y464818D01*
X157482D01*
X160021Y462278D01*
Y457200D01*
X157482Y454661D01*
X149864D01*
X154943D02*
X160021Y449582D01*
X175256Y464818D02*
X165099D01*
Y457200D01*
X170177Y459739D01*
X172717D01*
X175256Y457200D01*
Y452122D01*
X172717Y449582D01*
X167638D01*
X165099Y452122D01*
X147324Y400052D02*
Y415288D01*
X154942D01*
X157481Y412748D01*
Y407670D01*
X154942Y405131D01*
X147324D01*
X152402D02*
X157481Y400052D01*
X162559Y412748D02*
X165098Y415288D01*
X170177D01*
X172716Y412748D01*
Y410209D01*
X170177Y407670D01*
X167638D01*
X170177D01*
X172716Y405131D01*
Y402592D01*
X170177Y400052D01*
X165098D01*
X162559Y402592D01*
X110494Y156213D02*
Y171448D01*
X118112D01*
X120651Y168908D01*
Y163830D01*
X118112Y161291D01*
X110494D01*
X115573D02*
X120651Y156213D01*
X135886D02*
X125729D01*
X135886Y166369D01*
Y168908D01*
X133347Y171448D01*
X128268D01*
X125729Y168908D01*
X115573Y181612D02*
Y196847D01*
X123191D01*
X125730Y194308D01*
Y189230D01*
X123191Y186691D01*
X115573D01*
X120652D02*
X125730Y181612D01*
X130808D02*
X135887D01*
X133348D01*
Y196847D01*
X130808Y194308D01*
X262894Y382267D02*
Y367033D01*
X273051D01*
X288286D02*
X278129D01*
X288286Y377189D01*
Y379728D01*
X285747Y382267D01*
X280668D01*
X278129Y379728D01*
X248923Y157478D02*
Y142242D01*
X259080D01*
X264158D02*
X269237D01*
X266698D01*
Y157478D01*
X264158Y154938D01*
X278133Y31748D02*
Y16513D01*
X285751D01*
X288290Y19052D01*
Y29208D01*
X285751Y31748D01*
X278133D01*
X293368Y16513D02*
X298447D01*
X295908D01*
Y31748D01*
X293368Y29208D01*
D16*
X618910Y220980D02*
X610446Y212516D01*
Y220980D02*
X618910Y212516D01*
X614678Y220980D02*
Y212516D01*
X610446Y216748D02*
X618910D01*
D17*
X224103Y22860D02*
D03*
X212730Y223546D02*
D03*
M02*
