G04*
G04 #@! TF.GenerationSoftware,Altium Limited,Altium Designer,25.8.1 (18)*
G04*
G04 Layer_Color=16711935*
%FSLAX44Y44*%
%MOMM*%
G71*
G04*
G04 #@! TF.SameCoordinates,BF8AE3AB-10A6-47A9-9AB8-1695DD9DDF60*
G04*
G04*
G04 #@! TF.FilePolarity,Positive*
G04*
G01*
G75*
%ADD10C,0.2000*%
%ADD12C,0.1270*%
%ADD14C,0.1524*%
%ADD16C,0.2644*%
D10*
X456870Y258600D02*
G03*
X456870Y258600I-1000J0D01*
G01*
X417620Y202410D02*
G03*
X417620Y202410I-1000J0D01*
G01*
X361550Y303040D02*
G03*
X361550Y303040I-1000J0D01*
G01*
X308470Y145270D02*
G03*
X308470Y145270I-1000J0D01*
G01*
D12*
X267250Y327660D02*
G03*
X267250Y327660I-45000J0D01*
G01*
X282490Y90170D02*
G03*
X282490Y90170I-45000J0D01*
G01*
X503620Y204100D02*
Y253100D01*
X464120Y204100D02*
X503620D01*
X464120D02*
Y253100D01*
X503620D01*
X368870Y207910D02*
X408370D01*
Y256910D01*
X368870D02*
X408370D01*
X368870Y207910D02*
Y256910D01*
X308050Y284340D02*
Y389740D01*
X355050D01*
Y284340D02*
Y389740D01*
X308050Y284340D02*
X355050D01*
X636180Y491330D02*
X649680D01*
X593180D02*
Y507330D01*
X636180Y491330D02*
Y507330D01*
X579680Y491330D02*
X593180D01*
X636180D01*
X579680Y433330D02*
Y491330D01*
X593180Y507330D02*
X636180D01*
X649680Y433330D02*
Y491330D01*
X579680Y433330D02*
X649680D01*
X359970Y58570D02*
Y163970D01*
X312970Y58570D02*
X359970D01*
X312970D02*
Y163970D01*
X359970D01*
D14*
X608278Y194818D02*
G03*
X608278Y188722I0J-3048D01*
G01*
X601674Y200406D02*
X605230D01*
Y205740D01*
X601674D02*
X605230D01*
X601674Y200406D02*
Y205740D01*
X595324Y200406D02*
X598880D01*
Y205740D01*
X595324D02*
X598880D01*
X595324Y200406D02*
Y205740D01*
X588720Y200406D02*
X592276D01*
Y205740D01*
X588720D02*
X592276D01*
X588720Y200406D02*
Y205740D01*
X582370Y200406D02*
X585926D01*
Y205740D01*
X582370D02*
X585926D01*
X582370Y200406D02*
Y205740D01*
Y183134D02*
X585926D01*
X582370Y177800D02*
Y183134D01*
Y177800D02*
X585926D01*
Y183134D01*
X588720D02*
X592276D01*
X588720Y177800D02*
Y183134D01*
Y177800D02*
X592276D01*
Y183134D01*
X595324D02*
X598880D01*
X595324Y177800D02*
Y183134D01*
Y177800D02*
X598880D01*
Y183134D01*
X601674D02*
X605230D01*
X601674Y177800D02*
Y183134D01*
Y177800D02*
X605230D01*
Y183134D01*
X579322D02*
Y200406D01*
Y183134D02*
X608278D01*
Y188722D01*
Y194818D01*
Y200406D01*
X579322D02*
X608278D01*
D16*
X605396Y202438D02*
X596932Y193974D01*
Y202438D02*
X605396Y193974D01*
X601164Y202438D02*
Y193974D01*
X596932Y198206D02*
X605396D01*
M02*
