G04*
G04 #@! TF.GenerationSoftware,Altium Limited,Altium Designer,25.8.1 (18)*
G04*
G04 Layer_Color=8421504*
%FSLAX44Y44*%
%MOMM*%
G71*
G04*
G04 #@! TF.SameCoordinates,BF8AE3AB-10A6-47A9-9AB8-1695DD9DDF60*
G04*
G04*
G04 #@! TF.FilePolarity,Positive*
G04*
G01*
G75*
%ADD18R,1.6200X0.6000*%
%ADD19R,0.4064X1.2192*%
G36*
X373720Y228110D02*
Y212710D01*
X359420D01*
Y228110D01*
X373720D01*
D02*
G37*
G36*
X396620D02*
Y212710D01*
X382320D01*
Y228110D01*
X396620D01*
D02*
G37*
G36*
X373720Y252110D02*
Y236710D01*
X359420D01*
Y252110D01*
X373720D01*
D02*
G37*
G36*
X396620D02*
Y236710D01*
X382320D01*
Y252110D01*
X396620D01*
D02*
G37*
G36*
X475870Y208900D02*
Y224300D01*
X490170D01*
Y208900D01*
X475870D01*
D02*
G37*
G36*
X498770D02*
Y224300D01*
X513070D01*
Y208900D01*
X498770D01*
D02*
G37*
G36*
X475870Y232900D02*
Y248300D01*
X490170D01*
Y232900D01*
X475870D01*
D02*
G37*
G36*
X498770D02*
Y248300D01*
X513070D01*
Y232900D01*
X498770D01*
D02*
G37*
D18*
X457370Y209550D02*
D03*
Y222250D02*
D03*
Y234950D02*
D03*
Y247650D02*
D03*
X415120Y213360D02*
D03*
Y226060D02*
D03*
Y238760D02*
D03*
Y251460D02*
D03*
D19*
X584050Y203200D02*
D03*
X597050Y180340D02*
D03*
X584050D02*
D03*
X603550D02*
D03*
Y203200D02*
D03*
X597050D02*
D03*
X590550D02*
D03*
Y180340D02*
D03*
M02*
