G04*
G04 #@! TF.GenerationSoftware,Altium Limited,Altium Designer,25.8.1 (18)*
G04*
G04 Layer_Physical_Order=2*
G04 Layer_Color=16711680*
%FSLAX44Y44*%
%MOMM*%
G71*
G04*
G04 #@! TF.SameCoordinates,BF8AE3AB-10A6-47A9-9AB8-1695DD9DDF60*
G04*
G04*
G04 #@! TF.FilePolarity,Positive*
G04*
G01*
G75*
%ADD15C,0.2540*%
%ADD40C,0.7620*%
%ADD41C,1.2700*%
%ADD44R,1.4800X1.4800*%
%ADD45C,1.4800*%
%ADD46C,1.4000*%
%ADD47R,2.4213X2.4213*%
%ADD48C,1.3500*%
%ADD49R,1.5000X1.5000*%
%ADD50C,1.3000*%
%ADD51C,2.0000*%
%ADD52R,2.4213X2.4213*%
%ADD53R,1.3500X1.3500*%
%ADD54R,1.3500X1.3500*%
%ADD55C,1.4080*%
%ADD56C,1.5000*%
%ADD57R,2.0000X2.0000*%
%ADD58C,4.1910*%
%ADD59C,1.2700*%
D15*
X673735Y502920D02*
G03*
X706120Y470535I9525J-22860D01*
G01*
X650930Y481330D02*
G03*
X650930Y481330I-10850J0D01*
G01*
X654700Y375920D02*
G03*
X654700Y375920I-10810J0D01*
G01*
X650930Y430530D02*
G03*
X650930Y430530I-10850J0D01*
G01*
X625530D02*
G03*
X625530Y430530I-10850J0D01*
G01*
X600130Y481330D02*
G03*
X600130Y481330I-10850J0D01*
G01*
Y430530D02*
G03*
X600130Y430530I-10850J0D01*
G01*
X624220Y375920D02*
G03*
X605742Y383540I-10810J0D01*
G01*
X590598D02*
G03*
X590598Y368300I-7668J-7620D01*
G01*
X654700Y299720D02*
G03*
X636222Y307340I-10810J0D01*
G01*
X693300Y251460D02*
G03*
X677021Y261620I-11310J0D01*
G01*
Y241300D02*
G03*
X693300Y251460I4969J10160D01*
G01*
X636222Y292100D02*
G03*
X654700Y299720I7668J7620D01*
G01*
X693300Y226060D02*
G03*
X693300Y226060I-11310J0D01*
G01*
Y200660D02*
G03*
X693300Y200660I-11310J0D01*
G01*
X605742Y368300D02*
G03*
X624220Y375920I7668J7620D01*
G01*
X621078Y307340D02*
G03*
X621078Y292100I-7668J-7620D01*
G01*
X575262D02*
G03*
X593740Y299720I7668J7620D01*
G01*
D02*
G03*
X575262Y307340I-10810J0D01*
G01*
X563260Y378460D02*
G03*
X544782Y386080I-10810J0D01*
G01*
Y370840D02*
G03*
X563260Y378460I7668J7620D01*
G01*
X532178Y386080D02*
G03*
X532178Y370840I-7668J-7620D01*
G01*
X497220Y378460D02*
G03*
X475600Y378426I-10810J0D01*
G01*
X486376Y367650D02*
G03*
X497220Y378460I34J10810D01*
G01*
X413270Y368300D02*
G03*
X399089Y367900I-6870J-8020D01*
G01*
X386188Y376428D02*
G03*
X380800Y378660I-5388J-5388D01*
G01*
X386191Y376425D02*
G03*
X380800Y378660I-5391J-5385D01*
G01*
X571808Y307648D02*
G03*
X566420Y309880I-5388J-5388D01*
G01*
X571811Y307645D02*
G03*
X566420Y309880I-5391J-5385D01*
G01*
X535320Y302260D02*
G03*
X516842Y309880I-10810J0D01*
G01*
X468630Y353060D02*
G03*
X474021Y355295I0J7620D01*
G01*
X468630Y353060D02*
G03*
X474018Y355292I0J7620D01*
G01*
X563569Y294335D02*
G03*
X568960Y292100I5391J5385D01*
G01*
X560118Y309880D02*
G03*
X560118Y294640I-7668J-7620D01*
G01*
X563572Y294332D02*
G03*
X568960Y292100I5388J5388D01*
G01*
X576580Y261620D02*
G03*
X569396Y258644I0J-10160D01*
G01*
X576580Y261620D02*
G03*
X569396Y258644I0J-10160D01*
G01*
X494078Y309880D02*
G03*
X494078Y294640I-7668J-7620D01*
G01*
X516842D02*
G03*
X535320Y302260I7668J7620D01*
G01*
X386169Y354895D02*
G03*
X391560Y352660I5391J5385D01*
G01*
X399089D02*
G03*
X414106Y353060I7311J7620D01*
G01*
X386172Y354892D02*
G03*
X391560Y352660I5388J5388D01*
G01*
X390760Y320440D02*
G03*
X383576Y317464I0J-10160D01*
G01*
X343859Y362540D02*
G03*
X344772Y363420I-7309J8500D01*
G01*
X347760Y354040D02*
G03*
X343859Y362540I-11210J0D01*
G01*
X347760Y320040D02*
G03*
X343858Y328540I-11210J0D01*
G01*
X347760Y337040D02*
G03*
X343858Y345540I-11210J0D01*
G01*
D02*
G03*
X347760Y354040I-7308J8500D01*
G01*
X343858Y328540D02*
G03*
X347760Y337040I-7308J8500D01*
G01*
X390760Y320440D02*
G03*
X383576Y317464I0J-10160D01*
G01*
X383520Y292880D02*
G03*
X390704Y295856I0J10160D01*
G01*
X383520Y292880D02*
G03*
X390704Y295856I0J10160D01*
G01*
X346149Y314250D02*
G03*
X347760Y320040I-9599J5790D01*
G01*
X693300Y175260D02*
G03*
X693300Y175260I-11310J0D01*
G01*
X629920Y167640D02*
G03*
X609680Y168910I-10160J0D01*
G01*
X620396Y157500D02*
G03*
X629920Y167640I-636J10140D01*
G01*
X613410Y153670D02*
G03*
X618801Y155905I0J7620D01*
G01*
X613410Y153670D02*
G03*
X618798Y155902I0J7620D01*
G01*
X588010Y168910D02*
G03*
X582622Y166678I0J-7620D01*
G01*
X588010Y168910D02*
G03*
X582619Y166675I0J-7620D01*
G01*
X574690Y162560D02*
G03*
X568964Y153020I-10810J0D01*
G01*
X563914Y147970D02*
G03*
X574690Y137160I-34J-10810D01*
G01*
X656590Y113030D02*
G03*
X656590Y113030I-10560J0D01*
G01*
X614085Y65030D02*
G03*
X631340Y72650I6945J7620D01*
G01*
D02*
G03*
X614085Y80270I-10310J0D01*
G01*
X631340Y41650D02*
G03*
X610731Y42127I-10310J0D01*
G01*
X706120Y37465D02*
G03*
X673735Y5080I-22860J-9525D01*
G01*
X621507Y31351D02*
G03*
X631340Y41650I-477J10299D01*
G01*
X608082Y21082D02*
G03*
X613473Y23317I0J7620D01*
G01*
X608082Y21082D02*
G03*
X613470Y23314I0J7620D01*
G01*
X573420Y157476D02*
G03*
X574690Y162560I-9540J5084D01*
G01*
X498490Y137160D02*
G03*
X487714Y126350I-10810J0D01*
G01*
X483106Y172355D02*
G03*
X497475Y157986I4574J-9795D01*
G01*
X445734Y138864D02*
G03*
X438550Y141840I-7184J-7184D01*
G01*
X445734Y138864D02*
G03*
X438550Y141840I-7184J-7184D01*
G01*
X399994Y152454D02*
G03*
X392810Y155430I-7184J-7184D01*
G01*
X399994Y152454D02*
G03*
X392810Y155430I-7184J-7184D01*
G01*
X382201Y116655D02*
G03*
X376810Y118890I-5391J-5385D01*
G01*
X382198Y116658D02*
G03*
X376810Y118890I-5388J-5388D01*
G01*
X546799Y67265D02*
G03*
X552190Y65030I5391J5385D01*
G01*
X546802Y67262D02*
G03*
X552190Y65030I5388J5388D01*
G01*
X486140Y23314D02*
G03*
X491528Y21082I5388J5388D01*
G01*
X486137Y23317D02*
G03*
X491528Y21082I5391J5385D01*
G01*
X416958Y81898D02*
G03*
X406619Y92238I-10558J-219D01*
G01*
X434432Y42872D02*
G03*
X439820Y40640I5388J5388D01*
G01*
X395842Y81461D02*
G03*
X406181Y71122I10558J219D01*
G01*
X434429Y42875D02*
G03*
X439820Y40640I5391J5385D01*
G01*
X273700Y457200D02*
G03*
X273700Y457200I-10810J0D01*
G01*
Y433070D02*
G03*
X273700Y433070I-10810J0D01*
G01*
X272430Y406400D02*
G03*
X272430Y406400I-10810J0D01*
G01*
X344772Y378660D02*
G03*
X328328Y378660I-8222J-7620D01*
G01*
X197500Y433070D02*
G03*
X197500Y433070I-10810J0D01*
G01*
Y457200D02*
G03*
X197500Y457200I-10810J0D01*
G01*
X196230Y406400D02*
G03*
X196230Y406400I-10810J0D01*
G01*
X328328Y363420D02*
G03*
X329241Y362540I8222J7620D01*
G01*
D02*
G03*
X329242Y345540I7309J-8500D01*
G01*
D02*
G03*
X329242Y328540I7308J-8500D01*
G01*
D02*
G03*
X328328Y327660I7308J-8500D01*
G01*
X250336Y314652D02*
G03*
X255724Y312420I5388J5388D01*
G01*
X250333Y314655D02*
G03*
X255724Y312420I5391J5385D01*
G01*
X258070Y328470D02*
G03*
X248141Y316847I-10820J-810D01*
G01*
X189526Y320040D02*
G03*
X208100Y327660I7724J7620D01*
G01*
D02*
G03*
X189526Y335280I-10850J0D01*
G01*
X145178Y385899D02*
G03*
X127309Y393300I-10558J-219D01*
G01*
Y378060D02*
G03*
X134401Y375122I7311J7620D01*
G01*
X55171Y380292D02*
G03*
X60560Y378060I5388J5388D01*
G01*
X55168Y380295D02*
G03*
X60560Y378060I5391J5385D01*
G01*
X52705Y480060D02*
G03*
X37465Y502920I-24765J0D01*
G01*
X5080Y470535D02*
G03*
X52705Y480060I22860J9525D01*
G01*
X143869Y365655D02*
G03*
X149260Y363420I5391J5385D01*
G01*
X143872Y365652D02*
G03*
X149260Y363420I5388J5388D01*
G01*
X150740Y223520D02*
G03*
X123398Y220764I-13810J0D01*
G01*
X150462D02*
G03*
X150740Y223520I-13532J2756D01*
G01*
X156860Y189230D02*
G03*
X155822Y193851I-10810J0D01*
G01*
X137252Y322272D02*
G03*
X142640Y320040I5388J5388D01*
G01*
X137249Y322275D02*
G03*
X142640Y320040I5391J5385D01*
G01*
X134174Y209988D02*
G03*
X139686Y209988I2756J13532D01*
G01*
X55172Y330292D02*
G03*
X60560Y328060I5388J5388D01*
G01*
X55169Y330295D02*
G03*
X60560Y328060I5391J5385D01*
G01*
X251535Y167945D02*
G03*
X246144Y170180I-5391J-5385D01*
G01*
X251532Y167948D02*
G03*
X246144Y170180I-5388J-5388D01*
G01*
X342680Y128270D02*
G03*
X341069Y134060I-11210J0D01*
G01*
X338778Y119770D02*
G03*
X342680Y128270I-7308J8500D01*
G01*
X321871Y134060D02*
G03*
X324162Y119770I9599J-5790D01*
G01*
X233060Y189230D02*
G03*
X233060Y189230I-10810J0D01*
G01*
X229918Y170180D02*
G03*
X214582Y170180I-7668J-7620D01*
G01*
X192502Y157172D02*
G03*
X197890Y154940I5388J5388D01*
G01*
X214582D02*
G03*
X217382Y152908I7668J7620D01*
G01*
X339692Y118890D02*
G03*
X338778Y119770I-8222J-7620D01*
G01*
X338779Y102770D02*
G03*
X339692Y103650I-7309J8500D01*
G01*
X342680Y94270D02*
G03*
X338779Y102770I-11210J0D01*
G01*
X342680Y77270D02*
G03*
X338778Y85770I-11210J0D01*
G01*
D02*
G03*
X342680Y94270I-7308J8500D01*
G01*
X324162Y85770D02*
G03*
X342680Y77270I7308J-8500D01*
G01*
X324162Y119770D02*
G03*
X323248Y118890I7308J-8500D01*
G01*
X277568Y88882D02*
G03*
X282956Y86650I5388J5388D01*
G01*
X273340Y90170D02*
G03*
X272750Y93700I-10850J0D01*
G01*
X277565Y88885D02*
G03*
X282956Y86650I5391J5385D01*
G01*
X323248D02*
G03*
X324162Y85770I8222J7620D01*
G01*
X266020Y100430D02*
G03*
X273340Y90170I-3530J-10260D01*
G01*
X204766Y82550D02*
G03*
X223340Y90170I7724J7620D01*
G01*
D02*
G03*
X204766Y97790I-10850J0D01*
G01*
X192499Y157175D02*
G03*
X197890Y154940I5391J5385D01*
G01*
X150671Y199002D02*
G03*
X156860Y189230I-4621J-9772D01*
G01*
Y162560D02*
G03*
X146084Y151750I-10810J0D01*
G01*
X77710Y156680D02*
G03*
X83101Y158915I0J7620D01*
G01*
X77710Y156680D02*
G03*
X83098Y158912I0J7620D01*
G01*
X157931Y139903D02*
G03*
X163322Y137668I5391J5385D01*
G01*
X157934Y139900D02*
G03*
X163322Y137668I5388J5388D01*
G01*
X173282Y84782D02*
G03*
X178670Y82550I5388J5388D01*
G01*
X173279Y84785D02*
G03*
X178670Y82550I5391J5385D01*
G01*
X150260Y79140D02*
G03*
X150260Y79140I-10560J0D01*
G01*
X124860Y106680D02*
G03*
X130251Y108915I0J7620D01*
G01*
X124860Y106680D02*
G03*
X130248Y108912I0J7620D01*
G01*
X162170Y22860D02*
G03*
X162170Y22860I-13810J0D01*
G01*
X52705Y27940D02*
G03*
X5080Y37465I-24765J0D01*
G01*
X37465Y5080D02*
G03*
X52705Y27940I-9525J22860D01*
G01*
X670184Y502920D02*
X671338Y501767D01*
X663000Y502920D02*
X667097Y498823D01*
X704967Y468138D02*
X706120Y466984D01*
X704639Y467560D02*
X706120Y469041D01*
X650276Y485039D02*
X668157Y502920D01*
X655816D02*
X663607Y495129D01*
X625485Y431512D02*
X661754Y467780D01*
X698329Y460407D02*
X706120Y452616D01*
X702023Y463897D02*
X706120Y459800D01*
X688510Y455858D02*
X706120Y438248D01*
X693869Y457682D02*
X706120Y445432D01*
X647124Y438782D02*
X668509Y460167D01*
X642307Y441149D02*
X664757Y463599D01*
X650135Y434608D02*
X673032Y457506D01*
X648632Y502920D02*
X660882Y490669D01*
X642722Y491853D02*
X653789Y502920D01*
X641448D02*
X659058Y485310D01*
X634263Y502920D02*
X658535Y478648D01*
X634002Y490318D02*
X646604Y502920D01*
X627079D02*
X638017Y491982D01*
X619895Y502920D02*
X633143Y489672D01*
X612711Y502920D02*
X630083Y485547D01*
X647395Y489343D02*
X660973Y502920D01*
X650399Y477978D02*
X659515Y487094D01*
X650732Y479267D02*
X661207Y468792D01*
X619735Y440130D02*
X658521Y478916D01*
X613762Y441341D02*
X643432Y471011D01*
X623558Y436768D02*
X659585Y472795D01*
X654594Y374410D02*
X706120Y425936D01*
X653623Y380623D02*
X706120Y433120D01*
X648650Y423876D02*
X706120Y366405D01*
X650807Y428902D02*
X706120Y373590D01*
X623507Y372060D02*
X706120Y454673D01*
X623649Y379386D02*
X706120Y461857D01*
X621608Y422180D02*
X706120Y337669D01*
X624672Y426301D02*
X706120Y344853D01*
X638336Y419821D02*
X706120Y352037D01*
X644651Y420690D02*
X706120Y359221D01*
X630630Y307340D02*
X706120Y382831D01*
X623445Y307340D02*
X706120Y390015D01*
X612199Y310462D02*
X706120Y404383D01*
X616729Y419875D02*
X706120Y330484D01*
X618288Y309367D02*
X706120Y397199D01*
X671992Y458007D02*
X706120Y423879D01*
X650605Y427895D02*
X678473Y455762D01*
X644297Y471333D02*
X706120Y409511D01*
X648422Y474393D02*
X706120Y416695D01*
X637703Y470744D02*
X706120Y402327D01*
X616246Y386351D02*
X685272Y455377D01*
X620846Y383767D02*
X695760Y458681D01*
X645273Y386641D02*
X706120Y447488D01*
X681848Y455335D02*
X706120Y431063D01*
X650380Y384565D02*
X706120Y440304D01*
X625271Y432886D02*
X629371Y428786D01*
X607975Y385264D02*
X642716Y420005D01*
X605527Y502920D02*
X629494Y478953D01*
X599607Y484659D02*
X617867Y502920D01*
X600007Y479702D02*
X638452Y441257D01*
X599300Y477169D02*
X625052Y502920D01*
X598342D02*
X706120Y395142D01*
X583202Y439518D02*
X631092Y487408D01*
X591158Y502920D02*
X706120Y387958D01*
X525704Y389204D02*
X639420Y502920D01*
X597850Y474676D02*
X633426Y439100D01*
X596595Y438543D02*
X632067Y474015D01*
X599476Y434239D02*
X636371Y471134D01*
X591922Y441053D02*
X629557Y478688D01*
X587536Y470621D02*
X617036Y441121D01*
X593851Y471490D02*
X630240Y435101D01*
X592323Y491744D02*
X603499Y502920D01*
X576790D02*
X587652Y492057D01*
X584431Y491036D02*
X596315Y502920D01*
X569605D02*
X582626Y489900D01*
X526500Y502920D02*
X588104Y441316D01*
X519316Y502920D02*
X582917Y439319D01*
X533684Y502920D02*
X604025Y432579D01*
X512132Y502920D02*
X579607Y435445D01*
X596858Y489095D02*
X610683Y502920D01*
X599599Y427178D02*
X603869Y431448D01*
X548053Y502920D02*
X610451Y440522D01*
X540869Y502920D02*
X606330Y437458D01*
X554340Y389103D02*
X585571Y420334D01*
X600066Y429354D02*
X642750Y386670D01*
X587066Y385908D02*
X629461Y428303D01*
X598069Y424167D02*
X637556Y384680D01*
X591882Y383540D02*
X631828Y423486D01*
X497763Y502920D02*
X613968Y386716D01*
X521376Y472123D02*
X608140Y385359D01*
X583974Y502920D02*
X706120Y380774D01*
X563030Y376240D02*
X608442Y421652D01*
X599066Y383540D02*
X636002Y420476D01*
X594195Y420857D02*
X634247Y380805D01*
X593726Y299174D02*
X706120Y411567D01*
X588126Y419742D02*
X633147Y374721D01*
X580405Y386431D02*
X613698Y419725D01*
X592365Y304996D02*
X706120Y418751D01*
X521376Y464938D02*
X602775Y383540D01*
X521376Y457754D02*
X595591Y383540D01*
X496355Y374224D02*
X593441Y471310D01*
X496705Y381757D02*
X585951Y471003D01*
X447326Y368300D02*
X581946Y502920D01*
X493960Y386197D02*
X581515Y473752D01*
X454510Y368300D02*
X589131Y502920D01*
X590598Y383540D02*
X605742D01*
X559269Y386848D02*
X592632Y420211D01*
X562367Y382762D02*
X605080Y425475D01*
X521376Y450570D02*
X585535Y386411D01*
X530879Y387195D02*
X580292Y436608D01*
X544133Y386080D02*
X581267Y423214D01*
X656752Y261620D02*
X706120Y310988D01*
X652779Y293568D02*
X706120Y346909D01*
X653981Y303597D02*
X706120Y251458D01*
X663936Y261620D02*
X706120Y303804D01*
X635199Y261620D02*
X706120Y332541D01*
X642691Y365177D02*
X706120Y301747D01*
X649567Y261620D02*
X706120Y318172D01*
X642383Y261620D02*
X706120Y325357D01*
X690245Y259192D02*
X706120Y275067D01*
X685930Y262062D02*
X706120Y282251D01*
X692355Y246934D02*
X706120Y260699D01*
X692851Y254614D02*
X706120Y267883D01*
X671120Y261620D02*
X706120Y296620D01*
X679071Y262387D02*
X706120Y289436D01*
X654132Y296262D02*
X706120Y244274D01*
X652650Y369586D02*
X706120Y316116D01*
X654640Y374780D02*
X706120Y323300D01*
X654376Y302349D02*
X706120Y354094D01*
X651862Y307020D02*
X706120Y361278D01*
X647550Y309892D02*
X706120Y368462D01*
X640438Y309964D02*
X706120Y375646D01*
X648775Y366277D02*
X706120Y308932D01*
X651331Y291879D02*
X680534Y262676D01*
X682765Y237343D02*
X686516Y241095D01*
X638480Y290361D02*
X667221Y261620D01*
X646734Y289291D02*
X674405Y261620D01*
X691171Y244855D02*
X706120Y229905D01*
X691681Y231891D02*
X706120Y246330D01*
X692997Y228660D02*
X706120Y215537D01*
X693297Y226323D02*
X706120Y239146D01*
X687344Y241497D02*
X706120Y222721D01*
X688150Y235545D02*
X706120Y253515D01*
X689994Y208651D02*
X706120Y224778D01*
X685552Y211394D02*
X706120Y231962D01*
X692730Y204204D02*
X706120Y217594D01*
X692526Y221947D02*
X706120Y208353D01*
X693256Y199664D02*
X706120Y186800D01*
X692681Y196971D02*
X706120Y210409D01*
X684958Y215146D02*
X706120Y193984D01*
X689598Y217691D02*
X706120Y201169D01*
X687837Y184942D02*
X706120Y203225D01*
X693206Y250004D02*
X706120Y237090D01*
X673173Y241300D02*
X677877Y236596D01*
X665989Y241300D02*
X673621Y233668D01*
X658804Y241300D02*
X671076Y229028D01*
X644436Y241300D02*
X675686Y210050D01*
X651620Y241300D02*
X671831Y221089D01*
X637252Y241300D02*
X672210Y206341D01*
X681496Y240161D02*
X684590Y237067D01*
X678338Y211364D02*
X681727Y214753D01*
X682277Y186566D02*
X685679Y189969D01*
X682018Y189350D02*
X685290Y186078D01*
X677019Y215901D02*
X680994Y211926D01*
X573156Y307340D02*
X635245Y369430D01*
X622849Y370650D02*
X706120Y287379D01*
X624206Y376478D02*
X706120Y294563D01*
X568281Y309649D02*
X633169Y374537D01*
X558989Y369852D02*
X621501Y307340D01*
X563139Y380070D02*
X635870Y307340D01*
X562211Y373815D02*
X628685Y307340D01*
X589911Y367667D02*
X647767Y309811D01*
X621078Y307340D02*
X636222D01*
X621078Y292100D02*
X636222D01*
X585070Y365324D02*
X640432Y309962D01*
X583514Y310514D02*
X639187Y366187D01*
X588910Y308725D02*
X645400Y365216D01*
X590598Y368300D02*
X605742D01*
X549826Y312747D02*
X605379Y368300D01*
X543633Y370840D02*
X606467Y308006D01*
X536449Y370840D02*
X603425Y303863D01*
X534952Y305057D02*
X598195Y368300D01*
X532381Y309670D02*
X591011Y368300D01*
X530586Y369519D02*
X602896Y297209D01*
X561327Y309880D02*
X617270Y365823D01*
X556533Y312269D02*
X609944Y365681D01*
X525245Y367675D02*
X582403Y310517D01*
X528013Y312487D02*
X580840Y365314D01*
X553908Y367749D02*
X611329Y310328D01*
X622373Y292100D02*
X652853Y261620D01*
X620831D02*
X650042Y290831D01*
X628015Y261620D02*
X706120Y339725D01*
X629557Y292100D02*
X660037Y261620D01*
X614004Y365126D02*
X706120Y273011D01*
X619396Y366919D02*
X706120Y280195D01*
X596462Y368300D02*
X706120Y258642D01*
X603647Y368300D02*
X706120Y265826D01*
X630067Y241300D02*
X670680Y200688D01*
X617553Y289736D02*
X645669Y261620D01*
X622883Y241300D02*
X678250Y185934D01*
X615699Y241300D02*
X673868Y183131D01*
X576580Y261620D02*
X677021D01*
X613646D02*
X641261Y289235D01*
X580788Y241300D02*
X677021D01*
X591959Y293776D02*
X624116Y261620D01*
X592094D02*
X622574Y292100D01*
X593727Y299193D02*
X631300Y261620D01*
X599278D02*
X629758Y292100D01*
X562359Y294640D02*
X595379Y261620D01*
X557244Y292571D02*
X588195Y261620D01*
X572083Y292100D02*
X602563Y261620D01*
X588245Y290307D02*
X616932Y261620D01*
X584910D02*
X612261Y288971D01*
X610899Y289206D02*
X638484Y261620D01*
X606462D02*
X636590Y291747D01*
X577725Y261620D02*
X607070Y290965D01*
X551096Y291535D02*
X581011Y261620D01*
X582447Y288921D02*
X609748Y261620D01*
X521376Y463903D02*
X560394Y502920D01*
X521376Y471087D02*
X553209Y502920D01*
X521376Y449534D02*
X574762Y502920D01*
X521376Y456719D02*
X567578Y502920D01*
X506933Y478196D02*
X531657Y502920D01*
X499749Y478196D02*
X524473Y502920D01*
X521302Y478196D02*
X546025Y502920D01*
X514118Y478196D02*
X538841Y502920D01*
X562421D02*
X579440Y485901D01*
X555237Y502920D02*
X578571Y479586D01*
X504948Y502920D02*
X578492Y429376D01*
X521376Y446363D02*
Y478196D01*
X489543Y446363D02*
X521376D01*
X489543Y478196D02*
X521376D01*
X496846Y446363D02*
X554060Y389149D01*
X483395Y502920D02*
X508118Y478196D01*
X476211Y502920D02*
X500934Y478196D01*
X490579Y502920D02*
X515303Y478196D01*
X471377Y464192D02*
X510104Y502920D01*
X471012Y478196D02*
X495736Y502920D01*
X469026D02*
X493750Y478196D01*
X471377Y471377D02*
X502920Y502920D01*
X471377Y471377D02*
X502920Y502920D01*
X492565Y478196D02*
X517288Y502920D01*
X471377Y449824D02*
X489543Y467991D01*
Y446363D02*
Y478196D01*
X471377Y464649D02*
X489543Y446482D01*
X471377Y471833D02*
X489543Y453666D01*
X471377Y457008D02*
X489543Y475175D01*
X471377Y446363D02*
Y478196D01*
X518399Y446363D02*
X578837Y385925D01*
X536949Y386080D02*
X578757Y427888D01*
X511214Y446363D02*
X574677Y382901D01*
X481470Y388075D02*
X579574Y486179D01*
X489421Y388842D02*
X578866Y478287D01*
X504030Y446363D02*
X572334Y378060D01*
X496661Y381890D02*
X569195Y309357D01*
X496670Y309880D02*
X554670Y367880D01*
X511038Y309880D02*
X572942Y371784D01*
X503854Y309880D02*
X572419Y378445D01*
X493703Y370480D02*
X551187Y312996D01*
X491436Y311831D02*
X548148Y368543D01*
X496578Y374790D02*
X561488Y309880D01*
X489662Y446363D02*
X547804Y388221D01*
X532178Y386080D02*
X544782D01*
X486410Y378460D02*
Y388000D01*
X471377Y457465D02*
X542761Y386080D01*
X471377Y450280D02*
X535577Y386080D01*
X532178Y370840D02*
X544782D01*
X486410Y378460D02*
X495950D01*
X489027Y367972D02*
X546037Y310962D01*
X486410Y368920D02*
Y378460D01*
X476870D02*
X486410D01*
X485448Y313027D02*
X543261Y370840D01*
X463828Y478196D02*
X488552Y502920D01*
X456644Y478196D02*
X481367Y502920D01*
X454658D02*
X489543Y468035D01*
X461842Y502920D02*
X489543Y475219D01*
X368447Y502920D02*
X482740Y388628D01*
X449460Y478196D02*
X474183Y502920D01*
X361263D02*
X478430Y385753D01*
X354079Y502920D02*
X475922Y381077D01*
X468109Y446363D02*
X525227Y389246D01*
X447474Y502920D02*
X489543Y460850D01*
X460925Y446363D02*
X519337Y387952D01*
X453741Y446363D02*
X515569Y384535D01*
X439544Y446363D02*
X471377D01*
X439544Y478196D02*
X471377D01*
X375632Y502920D02*
X489840Y388711D01*
X425921Y502920D02*
X450645Y478196D01*
X418737Y502920D02*
X443461Y478196D01*
X440290Y502920D02*
X465013Y478196D01*
X433105Y502920D02*
X457829Y478196D01*
X404369Y502920D02*
X439544Y467745D01*
X411553Y502920D02*
X439544Y474929D01*
X390000Y502920D02*
X439544Y453377D01*
X397184Y502920D02*
X439544Y460561D01*
X442275Y478196D02*
X466999Y502920D01*
X455460Y462280D02*
Y476926D01*
Y462280D02*
X470107D01*
X455460Y447634D02*
Y462280D01*
X440814D02*
X455460D01*
X439544Y446363D02*
Y478196D01*
X343729Y379650D02*
X439544Y475465D01*
X412206Y369101D02*
X489543Y446438D01*
X406755Y370834D02*
X489543Y453622D01*
X418590Y368300D02*
X496653Y446363D01*
X396637Y367900D02*
X489543Y460807D01*
X346895Y502920D02*
X473494Y376321D01*
X388492Y374124D02*
X460732Y446363D01*
X382816Y502920D02*
X576987Y308749D01*
X392085Y370532D02*
X467916Y446363D01*
X440142Y368300D02*
X518206Y446363D01*
X446557D02*
X513725Y379195D01*
X461695Y368300D02*
X476795Y383400D01*
X465474Y368300D02*
X475600Y378426D01*
X425774Y368300D02*
X503837Y446363D01*
X413270Y368300D02*
X465474D01*
X432958D02*
X511021Y446363D01*
X378660Y378660D02*
X446363Y446363D01*
X371476Y378660D02*
X439544Y446728D01*
X384744Y377560D02*
X453548Y446363D01*
X378660Y378660D02*
X446363Y446363D01*
X357108Y378660D02*
X439544Y461096D01*
X349923Y378660D02*
X439544Y468280D01*
X364292Y378660D02*
X439544Y453912D01*
X394716Y367900D02*
X399089D01*
X386191Y376425D02*
X394716Y367900D01*
X406400Y360280D02*
Y369570D01*
X344772Y378660D02*
X380800D01*
X520730Y312387D02*
X575981Y367639D01*
X477086Y358360D02*
X522555Y312892D01*
X484271Y365544D02*
X542761Y307054D01*
X480678Y361952D02*
X541725Y300905D01*
X473469Y354794D02*
X517649Y310613D01*
X446465Y353060D02*
X486455Y313070D01*
X460834Y353060D02*
X504014Y309880D01*
X453650Y353060D02*
X496830Y309880D01*
X560118D02*
X566420D01*
X572116Y307340D02*
X575262D01*
X494078Y309880D02*
X516842D01*
X468018Y353060D02*
X511198Y309880D01*
X474021Y355295D02*
X486376Y367650D01*
X416960Y316381D02*
X453639Y353060D01*
X399866Y320840D02*
X432086Y353060D01*
X406400Y350990D02*
Y360280D01*
X414235Y320840D02*
X446455Y353060D01*
X407051Y320840D02*
X439271Y353060D01*
X439281D02*
X480825Y311516D01*
X432097Y353060D02*
X477214Y307943D01*
X424913Y353060D02*
X475601Y302372D01*
X416960Y299720D02*
Y320840D01*
X414106Y353060D02*
X468630D01*
X416960Y309197D02*
X460823Y353060D01*
X416960Y302013D02*
X468007Y353060D01*
X560118Y294640D02*
X563264D01*
X535142Y300305D02*
X574127Y261319D01*
X532864Y295399D02*
X569508Y258754D01*
X512070Y294640D02*
X558731Y247979D01*
X504885Y294640D02*
X555139Y244387D01*
X497701Y294640D02*
X551546Y240795D01*
X568960Y292100D02*
X575262D01*
X528758Y292320D02*
X565915Y255163D01*
X522192Y291701D02*
X562323Y251571D01*
X492093Y293064D02*
X547954Y237203D01*
X533783Y296704D02*
X541963Y304884D01*
X417729Y353060D02*
X540770Y230019D01*
X416960Y310723D02*
X519217Y208466D01*
X412169Y351435D02*
X537178Y226426D01*
X406696Y349724D02*
X533586Y222834D01*
X416960Y317907D02*
X522809Y212058D01*
X494078Y294640D02*
X516842D01*
X486522Y291451D02*
X544362Y233611D01*
X416960Y303539D02*
X515625Y204874D01*
X413595Y299720D02*
X512033Y201282D01*
X406411Y299720D02*
X508442Y197690D01*
X399227Y299720D02*
X504849Y194098D01*
X377644Y363420D02*
X386169Y354895D01*
X371447Y363420D02*
X414027Y320840D01*
X364263Y363420D02*
X406843Y320840D01*
X357079Y363420D02*
X399659Y320840D01*
X349895Y363420D02*
X392875Y320440D01*
X345886Y360245D02*
X386587Y319544D01*
X347709Y318972D02*
X384900Y356163D01*
X391560Y352660D02*
X399089D01*
X392282Y320440D02*
X424902Y353060D01*
X395840Y320840D02*
X416960D01*
X390760Y320440D02*
X395840D01*
X344772Y363420D02*
X377644D01*
X345882Y360251D02*
X349052Y363420D01*
X347323Y340139D02*
X370604Y363420D01*
X347726Y354910D02*
X356236Y363420D01*
X344718Y344718D02*
X363420Y363420D01*
X344718Y344718D02*
X363420Y363420D01*
X346743Y332374D02*
X377716Y363348D01*
X346586Y325034D02*
X381308Y359756D01*
X390704Y295856D02*
X394968Y300120D01*
X396576Y352660D02*
X529994Y219242D01*
X388920Y353132D02*
X526402Y215650D01*
X363490Y313200D02*
X401315Y351025D01*
X356306Y313200D02*
X395765Y352660D01*
X377858Y313200D02*
X417718Y353060D01*
X370674Y313200D02*
X407226Y349752D01*
X395840Y299720D02*
X416960D01*
X394968Y300120D02*
X395840D01*
X393306Y298457D02*
X501257Y190506D01*
X389645Y294934D02*
X497665Y186914D01*
X384470Y292925D02*
X494073Y183321D01*
X347464Y351483D02*
X382529Y316418D01*
X347416Y322794D02*
X357010Y313200D01*
X349121D02*
X389018Y353097D01*
X347758Y336821D02*
X371378Y313200D01*
X345041Y346722D02*
X378563Y313200D01*
X346147Y331247D02*
X364194Y313200D01*
X379312D02*
X383576Y317464D01*
X347760Y313200D02*
X379312D01*
X347760Y292880D02*
X383520D01*
X347760Y291830D02*
Y292880D01*
X347012Y316014D02*
X349826Y313200D01*
X346149Y314250D02*
X347760D01*
Y313200D02*
Y314250D01*
X693275Y176012D02*
X706120Y188857D01*
X691485Y181406D02*
X706120Y196041D01*
X692802Y161170D02*
X706120Y174488D01*
X692808Y178559D02*
X706120Y165247D01*
X687671Y190880D02*
X706120Y172432D01*
X691380Y194356D02*
X706120Y179616D01*
X685618Y161170D02*
X706120Y181672D01*
X692664Y171520D02*
X706120Y158063D01*
X685353Y164462D02*
X688645Y161170D01*
X689861Y167138D02*
X706120Y150879D01*
X693300Y154484D02*
X706120Y167304D01*
X670680Y161170D02*
X693300D01*
X677925Y164706D02*
X681461Y161170D01*
X671950Y149860D02*
X681990D01*
X614670Y176433D02*
X678836Y240599D01*
X622766Y177345D02*
X670707Y225285D01*
X629670Y169880D02*
X676159Y216369D01*
X627183Y174577D02*
X672505Y219900D01*
X601331Y241300D02*
X671436Y171195D01*
X608515Y241300D02*
X671192Y178623D01*
X607147Y168910D02*
X610967Y172730D01*
X678433Y161170D02*
X681238Y163975D01*
X671249Y161170D02*
X675844Y165765D01*
X670680Y160601D02*
X671249Y161170D01*
X618801Y155905D02*
X620396Y157500D01*
X693300Y156515D02*
X706120Y143695D01*
X693300Y147300D02*
X706120Y160120D01*
Y37465D02*
Y470535D01*
X693300Y138550D02*
Y161170D01*
X628977Y163365D02*
X706120Y86221D01*
X629677Y169848D02*
X706120Y93405D01*
X620468Y157505D02*
X706120Y71853D01*
X625735Y159422D02*
X706120Y79037D01*
X693300Y140116D02*
X706120Y152936D01*
X691734Y138550D02*
X693300Y140116D01*
Y142146D02*
X706120Y129326D01*
X693300Y149331D02*
X706120Y136511D01*
X631174Y70805D02*
X706120Y145751D01*
X682528Y138550D02*
X706120Y114958D01*
X619380Y51827D02*
X706120Y138567D01*
X681990Y149860D02*
Y159900D01*
X670680Y138550D02*
Y161170D01*
X606590Y103695D02*
X672308Y169414D01*
X616475Y154314D02*
X647272Y123517D01*
X606590Y118063D02*
X678446Y189920D01*
X604932Y123590D02*
X673999Y192656D01*
X606590Y110879D02*
X670684Y174973D01*
X681990Y149860D02*
X692030D01*
X681990Y139820D02*
Y149860D01*
X655816Y117000D02*
X677366Y138550D01*
X652782Y121150D02*
X670680Y139048D01*
X647875Y123428D02*
X670680Y146233D01*
X609934Y153670D02*
X641189Y122415D01*
X602750Y153670D02*
X637361Y119059D01*
X599963Y168910D02*
X672353Y241300D01*
X592779Y168910D02*
X665169Y241300D01*
X586962D02*
X670680Y157582D01*
X584955Y168271D02*
X657984Y241300D01*
X567775Y172644D02*
X636432Y241300D01*
X560898Y172951D02*
X629248Y241300D01*
X574428Y164928D02*
X650800Y241300D01*
X572006Y169690D02*
X643616Y241300D01*
X594146D02*
X674276Y161170D01*
X591166Y153670D02*
X613410D01*
X576691Y237203D02*
X670680Y143214D01*
X580283Y240795D02*
X670680Y150398D01*
X569507Y230019D02*
X621968Y177557D01*
X565915Y226426D02*
X615485Y176857D01*
X562323Y222834D02*
X611542Y173615D01*
X555139Y215650D02*
X601879Y168910D01*
X551546Y212058D02*
X594694Y168910D01*
X558731Y219242D02*
X609063Y168910D01*
X547954Y208466D02*
X587525Y168895D01*
X544362Y204874D02*
X582590Y166646D01*
X497475Y157986D02*
X580788Y241300D01*
X496040Y144013D02*
X593326Y241300D01*
X491938Y147096D02*
X586142Y241300D01*
X588010Y168910D02*
X609680D01*
X574471Y160396D02*
X575406Y159462D01*
X573420Y157476D02*
X582619Y166675D01*
X540770Y201282D02*
X578998Y163054D01*
X590564Y123590D02*
X671286Y204312D01*
X597748Y123590D02*
X671256Y197098D01*
X573099Y233611D02*
X706120Y100590D01*
X590349Y80270D02*
X670680Y160601D01*
X504598Y131019D02*
X614879Y241300D01*
X501006Y134611D02*
X607695Y241300D01*
X508190Y127427D02*
X622063Y241300D01*
X512034Y172545D02*
X604309Y80270D01*
X597533D02*
X670680Y153417D01*
X595566Y153670D02*
X635494Y113742D01*
X589774Y152278D02*
X690397Y51654D01*
X586182Y148686D02*
X682186Y52682D01*
X544111Y91505D02*
X606275Y153670D01*
X582590Y145093D02*
X604093Y123590D01*
X547703Y87913D02*
X613460Y153670D01*
X446760Y137839D02*
X603763Y294842D01*
X498314Y139103D02*
X600511Y241300D01*
X508442Y168953D02*
X597124Y80270D01*
X504849Y165361D02*
X589940Y80270D01*
X436393Y141840D02*
X583476Y288924D01*
X429209Y141840D02*
X577654Y290285D01*
X442694Y140957D02*
X602668Y300931D01*
X574665Y136428D02*
X591907Y153670D01*
X574690Y137194D02*
X591166Y153670D01*
X578998Y141501D02*
X596909Y123590D01*
X540519Y95098D02*
X599091Y153670D01*
X497665Y158177D02*
X575572Y80270D01*
X501257Y161769D02*
X582756Y80270D01*
X675344Y138550D02*
X706120Y107774D01*
X689712Y138550D02*
X706120Y122142D01*
X655415Y108189D02*
X706120Y57484D01*
X656517Y114272D02*
X706120Y64668D01*
X652060Y104361D02*
X706120Y50300D01*
X625619Y50882D02*
X706120Y131383D01*
X631324Y42219D02*
X706120Y117015D01*
X629479Y47558D02*
X706120Y124199D01*
X695847Y49268D02*
X706120Y59541D01*
X690894Y51499D02*
X706120Y66725D01*
X703358Y42410D02*
X706120Y45173D01*
X699976Y46213D02*
X706120Y52357D01*
X676901Y51875D02*
X706120Y81094D01*
X684864Y52653D02*
X706120Y73909D01*
X646742Y102494D02*
X706120Y43116D01*
X670680Y138550D02*
X693300D01*
X646030Y113030D02*
X655320D01*
X656205Y110205D02*
X684550Y138550D01*
X646030Y103740D02*
Y113030D01*
Y122320D01*
X636740Y113030D02*
X646030D01*
X630315Y77131D02*
X691734Y138550D01*
X627033Y81032D02*
X648855Y102855D01*
X621751Y82935D02*
X642060Y103244D01*
X631049Y75082D02*
X663399Y42733D01*
X611902Y80270D02*
X637910Y106279D01*
X630462Y68486D02*
X660729Y38218D01*
X627298Y64465D02*
X658974Y32789D01*
X622922Y5080D02*
X706120Y88278D01*
X612364Y65030D02*
X661780Y15614D01*
X622175Y62404D02*
X658570Y26008D01*
X615738Y5080D02*
X706120Y95462D01*
X608554Y5080D02*
X706120Y102646D01*
X658843Y5080D02*
X664987Y11224D01*
X651659Y5080D02*
X661932Y15353D01*
X670934Y6460D02*
X672315Y5080D01*
X666028D02*
X668790Y7842D01*
X631038Y39172D02*
X665130Y5080D01*
X630107D02*
X659325Y34299D01*
X644475Y5080D02*
X659701Y20306D01*
X621030Y41650D02*
X630070D01*
X628491Y34535D02*
X657946Y5080D01*
X624050Y31792D02*
X650762Y5080D01*
X621030Y41650D02*
Y50690D01*
X611990Y41650D02*
X621030D01*
Y32610D02*
Y41650D01*
X615815Y25659D02*
X636393Y5080D01*
X613473Y23317D02*
X621507Y31351D01*
X637291Y5080D02*
X658547Y26336D01*
X619407Y29251D02*
X643578Y5080D01*
X612076Y22213D02*
X629209Y5080D01*
X606590Y121094D02*
X676051Y51632D01*
X606590Y102470D02*
Y123590D01*
Y113909D02*
X671027Y49472D01*
X606590Y106725D02*
X666838Y46477D01*
X596477Y102470D02*
X616866Y82082D01*
X605365Y102470D02*
X606590Y103695D01*
X604718Y80270D02*
X635633Y111185D01*
X589293Y102470D02*
X611493Y80270D01*
X603661Y102470D02*
X623462Y82669D01*
X605180Y65030D02*
X618553Y51658D01*
X597996Y65030D02*
X613915Y49111D01*
X590812Y65030D02*
X611172Y44670D01*
X552190Y65030D02*
X614085D01*
X555346Y80270D02*
X614085D01*
X583628Y65030D02*
X608631Y40027D01*
X585470Y123590D02*
X606590D01*
X575406Y137909D02*
X589725Y123590D01*
X585470Y102470D02*
Y123590D01*
X573633Y132498D02*
X585470Y120662D01*
X565317Y126446D02*
X585470Y106293D01*
X570405Y128542D02*
X585470Y113477D01*
X551295Y84321D02*
X585470Y118496D01*
Y102470D02*
X606590D01*
X575981Y80270D02*
X598181Y102470D01*
X583165Y80270D02*
X605365Y102470D01*
X576443Y65030D02*
X605039Y36435D01*
X561612Y80270D02*
X585470Y104128D01*
X554887Y80729D02*
X585470Y111312D01*
X568797Y80270D02*
X590996Y102470D01*
X596691Y36322D02*
X622875Y62507D01*
X603875Y36322D02*
X610853Y43300D01*
X601370Y5080D02*
X706120Y109830D01*
X604926Y36322D02*
X610731Y42127D01*
X537887Y36322D02*
X604926D01*
X575138D02*
X603846Y65030D01*
X589506Y36322D02*
X616549Y63365D01*
X582322Y36322D02*
X611030Y65030D01*
X594185Y5080D02*
X610624Y21518D01*
X591655Y21082D02*
X607657Y5080D01*
X606023Y21082D02*
X622025Y5080D01*
X598839Y21082D02*
X614841Y5080D01*
X491528Y21082D02*
X608082D01*
X584470D02*
X600472Y5080D01*
X587001D02*
X603003Y21082D01*
X560770Y36322D02*
X589478Y65030D01*
X554891D02*
X583599Y36322D01*
X567954D02*
X596662Y65030D01*
X562075D02*
X590783Y36322D01*
X486298Y126439D02*
X576415Y36322D01*
X546401D02*
X575109Y65030D01*
X553585Y36322D02*
X582293Y65030D01*
X572633Y5080D02*
X588635Y21082D01*
X570102D02*
X586104Y5080D01*
X579817D02*
X595819Y21082D01*
X577286D02*
X593288Y5080D01*
X569259Y65030D02*
X597967Y36322D01*
X562918Y21082D02*
X578920Y5080D01*
X565449D02*
X581451Y21082D01*
X537178Y197689D02*
X561716Y173151D01*
X533586Y194097D02*
X556883Y170800D01*
X522810Y183321D02*
X559218Y146913D01*
X529994Y190505D02*
X553867Y166633D01*
X483106Y172355D02*
X569396Y258644D01*
X409132Y143316D02*
X560456Y294640D01*
X422024Y141840D02*
X572284Y292100D01*
X415240Y142240D02*
X565790Y292790D01*
X561237Y152078D02*
X564629Y148686D01*
X563914Y147970D02*
X568964Y153020D01*
X519218Y179729D02*
X555262Y143685D01*
X515374Y120242D02*
X553796Y158665D01*
X511782Y123834D02*
X553489Y165542D01*
X518966Y116650D02*
X556750Y154434D01*
X526402Y186913D02*
X553398Y159917D01*
X485381Y147723D02*
X489575Y151917D01*
X515626Y176137D02*
X553166Y138597D01*
X450352Y134247D02*
X476999Y160894D01*
X457536Y127062D02*
X483197Y152723D01*
X453944Y130654D02*
X479176Y155886D01*
X464720Y119878D02*
X477744Y132902D01*
X461128Y123470D02*
X477117Y139459D01*
X416960Y141840D02*
X438550D01*
X410208Y142240D02*
X416960D01*
Y121520D02*
X434341D01*
X522558Y113058D02*
X561512Y152012D01*
X526150Y109466D02*
X553096Y136412D01*
X533335Y102282D02*
X558716Y127663D01*
X529742Y105874D02*
X554945Y131076D01*
X494492Y154166D02*
X568388Y80270D01*
X489559Y151915D02*
X561203Y80270D01*
X498490Y137126D02*
X555346Y80270D01*
X445734Y138864D02*
X520422Y64177D01*
X536927Y98690D02*
X564612Y126375D01*
X489865Y94733D02*
X504598Y109466D01*
X497049Y87549D02*
X511782Y102282D01*
X493457Y91141D02*
X508190Y105874D01*
X487714Y126350D02*
X546799Y67265D01*
X434341Y121520D02*
X506054Y49808D01*
X433743Y121520D02*
X506054Y49209D01*
X471904Y112694D02*
X485737Y126526D01*
X468312Y116286D02*
X480827Y128800D01*
X479089Y105510D02*
X493821Y120242D01*
X475497Y109102D02*
X490229Y123834D01*
X419374Y121520D02*
X476718Y64177D01*
X412590Y121120D02*
X469534Y64177D01*
X426558Y121520D02*
X483902Y64177D01*
X486273Y98326D02*
X501006Y113058D01*
X482681Y101918D02*
X497413Y116650D01*
X421849Y77007D02*
X450352Y105510D01*
X418257Y80599D02*
X446760Y109102D01*
X413117Y89828D02*
X439576Y116286D01*
X408192Y92087D02*
X435984Y119878D01*
X416167Y85694D02*
X443168Y112694D01*
X392509Y155430D02*
X530066Y292987D01*
X378141Y155430D02*
X517100Y294389D01*
X401948Y150501D02*
X545461Y294013D01*
X398167Y153903D02*
X542441Y298177D01*
X356588Y155430D02*
X495798Y294640D01*
X342680Y155891D02*
X480201Y293411D01*
X370957Y155430D02*
X510166Y294640D01*
X363772Y155430D02*
X502982Y294640D01*
X377330Y292880D02*
X490481Y179729D01*
X370146Y292880D02*
X486889Y176137D01*
X405540Y146909D02*
X550298Y291666D01*
X385325Y155430D02*
X521713Y291818D01*
X362962Y292880D02*
X483297Y172545D01*
X355777Y292880D02*
X479286Y169372D01*
X349404Y155430D02*
X485465Y291491D01*
X348593Y292880D02*
X477034Y164439D01*
X399994Y152454D02*
X410208Y142240D01*
X342680Y155430D02*
X392810D01*
X342680D02*
Y156480D01*
Y134338D02*
X343452Y135110D01*
X342680Y134060D02*
Y135110D01*
X384232D02*
X395840Y123502D01*
X388602Y135110D02*
X395840Y127872D01*
Y121120D02*
X416960D01*
X395840D02*
Y127872D01*
X342680Y135110D02*
X388602D01*
X342618Y127092D02*
X350637Y135110D01*
X342541Y126511D02*
X350163Y118890D01*
X400297Y98560D02*
X423257Y121520D01*
X396704Y102152D02*
X415673Y121120D01*
X398222D02*
X456054Y63288D01*
X403889Y94967D02*
X430441Y121520D01*
X393112Y105744D02*
X408489Y121120D01*
X389520Y109336D02*
X401305Y121120D01*
X377047Y135110D02*
X456054Y56104D01*
X369863Y135110D02*
X449093Y55880D01*
X382201Y116655D02*
X406619Y92238D01*
X372587Y103650D02*
X395930Y80307D01*
X365403Y103650D02*
X463972Y5080D01*
X405406Y121120D02*
X462350Y64177D01*
X351034Y103650D02*
X449604Y5080D01*
X343850Y103650D02*
X442420Y5080D01*
X358218Y103650D02*
X456788Y5080D01*
X363153Y118890D02*
X379373Y135110D01*
X355969Y118890D02*
X372189Y135110D01*
X370337Y118890D02*
X386558Y135110D01*
X362679D02*
X379327Y118462D01*
X348785Y118890D02*
X365005Y135110D01*
X348311D02*
X364531Y118890D01*
X355495Y135110D02*
X371715Y118890D01*
X377491Y118859D02*
X391172Y132540D01*
X385928Y112928D02*
X395840Y122840D01*
X382336Y116520D02*
X394764Y128948D01*
X373654Y103650D02*
X395842Y81461D01*
X342672Y76856D02*
X369466Y103650D01*
X523966Y64177D02*
X536927Y77137D01*
X537887Y63728D02*
X544111Y69953D01*
X531150Y64177D02*
X540519Y73545D01*
X511418Y73181D02*
X526150Y87913D01*
X507826Y76773D02*
X522558Y91505D01*
X518602Y65996D02*
X533335Y80729D01*
X515010Y69589D02*
X529742Y84321D01*
X537887Y42176D02*
X560741Y65030D01*
X537887Y60482D02*
X562046Y36322D01*
X537887Y53298D02*
X554862Y36322D01*
X537887Y56544D02*
X547779Y66437D01*
X520422Y64177D02*
X537887D01*
Y49360D02*
X553557Y65030D01*
X504234Y80365D02*
X518966Y95098D01*
X500641Y83957D02*
X515374Y98690D01*
X487887Y60192D02*
X506054Y42025D01*
X487887Y49650D02*
X497049Y58812D01*
X487887Y64018D02*
X489865Y65996D01*
X480861Y64177D02*
X486273Y69589D01*
X487887Y56834D02*
X493457Y62404D01*
X487887Y43120D02*
Y64177D01*
X491806Y39200D02*
X504234Y51628D01*
X488214Y42793D02*
X500641Y55220D01*
X506054Y36322D02*
Y49808D01*
X503296Y36322D02*
X506054Y39080D01*
X487887Y53008D02*
X504572Y36322D01*
X487887Y45824D02*
X497388Y36322D01*
X487887Y43120D02*
X494684Y36322D01*
X537887Y46113D02*
X547678Y36322D01*
X537887D02*
Y64177D01*
X539217Y36322D02*
X567925Y65030D01*
X537887Y38929D02*
X540494Y36322D01*
X526997Y21082D02*
X542999Y5080D01*
X522343D02*
X538345Y21082D01*
X534181D02*
X550183Y5080D01*
X529528D02*
X545530Y21082D01*
X551080Y5080D02*
X567082Y21082D01*
X548549D02*
X564551Y5080D01*
X558264D02*
X574266Y21082D01*
X555733D02*
X571735Y5080D01*
X541365Y21082D02*
X557367Y5080D01*
X536712D02*
X552714Y21082D01*
X543896Y5080D02*
X559898Y21082D01*
X496112Y36322D02*
X506054Y46264D01*
X494684Y36322D02*
X506054D01*
X493606Y5080D02*
X509608Y21082D01*
X491061Y21096D02*
X507078Y5080D01*
X486422D02*
X502424Y21082D01*
X512628D02*
X528630Y5080D01*
X507975D02*
X523977Y21082D01*
X519813D02*
X535815Y5080D01*
X515159D02*
X531161Y21082D01*
X500791Y5080D02*
X516793Y21082D01*
X498260D02*
X514262Y5080D01*
X505444Y21082D02*
X521446Y5080D01*
X466492Y64177D02*
X479089Y76773D01*
X459308Y64177D02*
X475497Y80365D01*
X473677Y64177D02*
X482681Y73181D01*
X443828Y55880D02*
X471904Y83957D01*
X432625Y66231D02*
X461128Y94733D01*
X429033Y69823D02*
X457536Y98326D01*
X439810Y59046D02*
X468312Y87549D01*
X436218Y62639D02*
X464720Y91141D01*
X471970Y48260D02*
X486617D01*
X471970D02*
Y62906D01*
X456054Y32343D02*
X477110D01*
X471970Y33614D02*
Y48260D01*
X456054Y64177D02*
X487887D01*
X439820Y40640D02*
X456054D01*
X449965D02*
X456054Y34551D01*
X406400Y81680D02*
X415690D01*
X425441Y73415D02*
X453944Y101918D01*
X416958Y81898D02*
X442976Y55880D01*
X406400Y81680D02*
Y90970D01*
X397110Y81680D02*
X406400D01*
Y72390D02*
Y81680D01*
X451012Y55880D02*
X456054Y60922D01*
X442976Y55880D02*
X456054D01*
Y64177D01*
X406181Y71122D02*
X434429Y42875D01*
X477110Y32343D02*
X486137Y23317D01*
X456054Y34551D02*
X458261Y32343D01*
X485525Y5080D01*
X443317D02*
X470580Y32343D01*
X405027Y71209D02*
X471157Y5080D01*
X428949D02*
X456212Y32343D01*
X442781Y40640D02*
X478341Y5080D01*
X436133D02*
X463396Y32343D01*
X465446D02*
X492709Y5080D01*
X472054D02*
X488629Y21655D01*
X472630Y32343D02*
X499893Y5080D01*
X479238D02*
X495240Y21082D01*
X457685Y5080D02*
X481030Y28424D01*
X450501Y5080D02*
X477438Y32016D01*
X464870Y5080D02*
X484622Y24832D01*
X364291Y5080D02*
X418257Y59046D01*
X357106Y5080D02*
X414665Y62639D01*
X378659Y5080D02*
X425441Y51862D01*
X371475Y5080D02*
X421849Y55454D01*
X342623Y76140D02*
X413683Y5080D01*
X342738D02*
X407481Y69823D01*
X349922Y5080D02*
X411073Y66231D01*
X456054Y32343D02*
Y40640D01*
X407396Y5080D02*
X442956Y40640D01*
X421764Y5080D02*
X456054Y39369D01*
X414580Y5080D02*
X450140Y40640D01*
X393027Y5080D02*
X432626Y44678D01*
X385843Y5080D02*
X429033Y48270D01*
X400212Y5080D02*
X436522Y41391D01*
X272595Y437832D02*
X337683Y502920D01*
X272333Y451938D02*
X323315Y502920D01*
X272186Y408686D02*
X366420Y502920D01*
X273608Y431660D02*
X344867Y502920D01*
X265587Y416456D02*
X352052Y502920D01*
X269331Y441752D02*
X330499Y502920D01*
X256528Y378660D02*
X380788Y502920D01*
X269792Y413476D02*
X359236Y502920D01*
X338897Y382002D02*
X459815Y502920D01*
X329304Y379594D02*
X452631Y502920D01*
X270897Y378660D02*
X395157Y502920D01*
X271880Y427067D02*
X320287Y378660D01*
X270736Y449763D02*
X338403Y382096D01*
X266355Y446960D02*
X332020Y381294D01*
X263713Y378660D02*
X387973Y502920D01*
X270700Y464674D02*
X308946Y502920D01*
X266300Y467458D02*
X301762Y502920D01*
X273305Y460095D02*
X316131Y502920D01*
X264196Y443801D02*
X268152Y447757D01*
X258908Y467250D02*
X294578Y502920D01*
X259028Y447103D02*
X262269Y443862D01*
X262303Y422276D02*
X305919Y378660D01*
X266348Y396679D02*
X284366Y378660D01*
X268142Y423621D02*
X313103Y378660D01*
X270280Y399930D02*
X291550Y378660D01*
X258777Y416829D02*
X264300Y422352D01*
X260152Y395690D02*
X277182Y378660D01*
X306818D02*
X431078Y502920D01*
X299634Y378660D02*
X423894Y502920D01*
X314002Y378660D02*
X438262Y502920D01*
X296605D02*
X431225Y368300D01*
X292450Y378660D02*
X416710Y502920D01*
X285265Y378660D02*
X409525Y502920D01*
X289421D02*
X424041Y368300D01*
X282237Y502920D02*
X416857Y368300D01*
X339711Y502920D02*
X469902Y372729D01*
X321186Y378660D02*
X445446Y502920D01*
X332526D02*
X466310Y369136D01*
X325342Y502920D02*
X459962Y368300D01*
X310974Y502920D02*
X445594Y368300D01*
X303790Y502920D02*
X438410Y368300D01*
X318158Y502920D02*
X452778Y368300D01*
X278081Y378660D02*
X402341Y502920D01*
X253500D02*
X377760Y378660D01*
X267868Y502920D02*
X401275Y369513D01*
X260684Y502920D02*
X395704Y367900D01*
X246316Y502920D02*
X370576Y378660D01*
X239132Y502920D02*
X363391Y378660D01*
X249344D02*
X373604Y502920D01*
X273321Y454362D02*
X349023Y378660D01*
X273682Y432449D02*
X327471Y378660D01*
X275053Y502920D02*
X407160Y370813D01*
X272237Y462631D02*
X356207Y378660D01*
X242160D02*
X259334Y395834D01*
X272345Y405049D02*
X298734Y378660D01*
X224763Y502920D02*
X260052Y467631D01*
X217579Y502920D02*
X255453Y465046D01*
X203211Y502920D02*
X252793Y453338D01*
X210395Y502920D02*
X252650Y460665D01*
X195319Y439582D02*
X258657Y502920D01*
X196027D02*
X256887Y442060D01*
X167290Y502920D02*
X255150Y415060D01*
X188843Y502920D02*
X253441Y438322D01*
X231947Y502920D02*
X268321Y466547D01*
X197407Y434486D02*
X265841Y502920D01*
X195288Y410814D02*
X287394Y502920D01*
X192149Y414860D02*
X280209Y502920D01*
X37465D02*
X673735D01*
X174475D02*
X260269Y417125D01*
X187172Y417067D02*
X273025Y502920D01*
X196312Y462127D02*
X237104Y502920D01*
X192987Y465987D02*
X229920Y502920D01*
X191368Y442815D02*
X251473Y502920D01*
X197441Y456073D02*
X244288Y502920D01*
X187771Y467956D02*
X222736Y502920D01*
X152922D02*
X187900Y467942D01*
X181659Y502920D02*
X252096Y432483D01*
X160106Y502920D02*
X251898Y411128D01*
X186690Y457200D02*
X196230D01*
X185136Y443768D02*
X187817Y446449D01*
X197432Y458410D02*
X250910Y404932D01*
X187838Y446451D02*
X191577Y442712D01*
X182408Y423144D02*
X188927Y416625D01*
X196332Y437957D02*
X255629Y378660D01*
X196040Y404382D02*
X252840Y461183D01*
X196336Y452321D02*
X269998Y378660D01*
X199055D02*
X252159Y431764D01*
X184686Y378660D02*
X255416Y449390D01*
X177502Y378660D02*
X252632Y453790D01*
X193029Y448444D02*
X262813Y378660D01*
X191871D02*
X259995Y446785D01*
X213423Y378660D02*
X258128Y423365D01*
X220607Y378660D02*
X251191Y409243D01*
X234976Y378660D02*
X254544Y398228D01*
X227792Y378660D02*
X251564Y402433D01*
X197066Y430039D02*
X248445Y378660D01*
X194414Y425507D02*
X241261Y378660D01*
X206239D02*
X254208Y426629D01*
X98748Y393300D02*
X208367Y502920D01*
X91563Y393300D02*
X201183Y502920D01*
X189968Y422769D02*
X234076Y378660D01*
X105932Y393300D02*
X215551Y502920D01*
X84379Y393300D02*
X193999Y502920D01*
X77195Y393300D02*
X186815Y502920D01*
X66711D02*
X190971Y378660D01*
X192739Y398445D02*
X212524Y378660D01*
X188078Y395922D02*
X205340Y378660D01*
X195645Y409907D02*
X226892Y378660D01*
X195601Y402767D02*
X219708Y378660D01*
X170318D02*
X187438Y395780D01*
X179382Y397433D02*
X198155Y378660D01*
X336550Y371040D02*
Y380980D01*
X321159Y363420D02*
X326209Y358369D01*
X313974Y363420D02*
X325559Y351836D01*
X306790Y363420D02*
X327116Y343095D01*
X299606Y363420D02*
X325358Y337668D01*
X292422Y363420D02*
X328182Y327660D01*
X291739D02*
X327499Y363420D01*
X326610Y337040D02*
X336550D01*
X346490D01*
X258880Y327660D02*
X328328D01*
X306107D02*
X326857Y348410D01*
X313292Y327660D02*
X325779Y340148D01*
X256501Y363420D02*
X292261Y327660D01*
X257899Y329741D02*
X291578Y363420D01*
X263685D02*
X299445Y327660D01*
X263002D02*
X298762Y363420D01*
X251453Y337663D02*
X277210Y363420D01*
X244845Y338240D02*
X270025Y363420D01*
X249316D02*
X285077Y327660D01*
X255583Y334609D02*
X284394Y363420D01*
X278053D02*
X313813Y327660D01*
X277370D02*
X313131Y363420D01*
X298923Y327660D02*
X325340Y354077D01*
X284555Y327660D02*
X320315Y363420D01*
X270186Y327660D02*
X305947Y363420D01*
X258070Y328470D02*
X258880Y327660D01*
X270869Y363420D02*
X306629Y327660D01*
X327660D02*
X328872Y328872D01*
X327660Y327660D02*
X328872Y328872D01*
X321869Y312420D02*
X325340Y308949D01*
X320476Y327660D02*
X326018Y333202D01*
X255724Y312420D02*
X325340D01*
X307501D02*
X325340Y294581D01*
X314685Y312420D02*
X325340Y301765D01*
Y291830D02*
X347760D01*
X325340D02*
Y312420D01*
X255340Y212235D02*
X334936Y291830D01*
X255340Y219419D02*
X327751Y291830D01*
X255340Y233787D02*
X325340Y303787D01*
X251698Y237330D02*
X325340Y310972D01*
X255340Y226603D02*
X325340Y296603D01*
X285238Y363420D02*
X320998Y327660D01*
X248141Y316847D02*
X250333Y314655D01*
X242132Y363420D02*
X277892Y327660D01*
X234948Y363420D02*
X270708Y327660D01*
X244514Y237330D02*
X319604Y312420D01*
X237330Y237330D02*
X312420Y312420D01*
X255340Y209710D02*
Y237330D01*
X253275D02*
X255340Y235265D01*
X237330Y237330D02*
X312420Y312420D01*
X231206Y195284D02*
X245631Y209710D01*
X233037Y189932D02*
X252815Y209710D01*
X220580Y363420D02*
X245614Y338386D01*
X213395Y363420D02*
X240590Y336225D01*
X227764Y363420D02*
X263524Y327660D01*
X207849Y329980D02*
X241289Y363420D01*
X152416Y378660D02*
X328328D01*
X206211Y363420D02*
X237407Y332224D01*
X136750Y237329D02*
X262841Y363420D01*
X199027D02*
X236543Y325904D01*
X170565Y320040D02*
X253275Y237330D01*
X163381Y320040D02*
X246091Y237330D01*
X230146D02*
X305236Y312420D01*
X227720Y237330D02*
X255340D01*
X149260Y363420D02*
X328328D01*
X156197Y320040D02*
X238907Y237330D01*
X142681Y236076D02*
X236670Y330065D01*
X194461Y338146D02*
X219736Y363420D01*
X170290D02*
X195365Y338345D01*
X184412Y335280D02*
X212552Y363420D01*
X177227Y335280D02*
X205368Y363420D01*
X162859Y335280D02*
X190999Y363420D01*
X163106D02*
X190429Y336098D01*
X170043Y335280D02*
X198183Y363420D01*
X205450Y334765D02*
X234104Y363420D01*
X201247Y337747D02*
X226920Y363420D01*
X142640Y320040D02*
X189526D01*
X145796Y335280D02*
X189526D01*
X149012Y320040D02*
X231722Y237330D01*
X160468Y210758D02*
X262131Y312420D01*
X156876Y214350D02*
X254982Y312456D01*
X167652Y203574D02*
X276499Y312420D01*
X164060Y207166D02*
X269315Y312420D01*
X149715Y228741D02*
X240301Y319327D01*
X146883Y233093D02*
X237247Y323458D01*
X153284Y217942D02*
X250165Y314823D01*
X150706Y222548D02*
X245169Y317011D01*
X227720Y209710D02*
X255340D01*
X221571Y200019D02*
X231263Y209710D01*
X227446Y198709D02*
X238447Y209710D01*
X189205Y182021D02*
X227720Y220536D01*
X174837Y196389D02*
X290867Y312420D01*
X171245Y199981D02*
X283683Y312420D01*
X178429Y192797D02*
X298052Y312420D01*
X112256Y328060D02*
X227720Y212595D01*
X119440Y328060D02*
X227720Y219780D01*
X97887Y328060D02*
X227013Y198934D01*
X90703Y328060D02*
X219171Y199592D01*
X83519Y328060D02*
X214656Y196923D01*
X76335Y328060D02*
X211934Y192460D01*
X69150Y328060D02*
X212373Y184838D01*
X182021Y189205D02*
X227720Y234904D01*
Y209710D02*
Y237330D01*
X185613Y185613D02*
X227720Y227720D01*
X185613Y185613D02*
X227720Y227720D01*
X129564Y325120D02*
X227720Y226964D01*
X141779Y320089D02*
X227720Y234148D01*
X58085Y180216D02*
X194929Y317061D01*
X145738Y502920D02*
X181811Y466846D01*
X138553Y502920D02*
X177934Y463540D01*
X117001Y502920D02*
X179127Y440794D01*
X109817Y502920D02*
X176389Y436348D01*
X95448Y502920D02*
X181787Y416581D01*
X102632Y502920D02*
X176764Y428788D01*
X88264Y502920D02*
X177465Y413719D01*
X73896Y502920D02*
X176453Y400362D01*
X186690Y457200D02*
Y466740D01*
X177150Y457200D02*
X186690D01*
Y447660D02*
Y457200D01*
X141891Y393338D02*
X176945Y428392D01*
X124185Y502920D02*
X183659Y443446D01*
X137270Y395902D02*
X175992Y434624D01*
X128393Y394209D02*
X181763Y447578D01*
X59096Y411123D02*
X150894Y502920D01*
X59096Y418307D02*
X143709Y502920D01*
X59679Y397337D02*
X165262Y502920D01*
X59096Y403939D02*
X158078Y502920D01*
X52463Y483516D02*
X71867Y502920D01*
X50958Y489195D02*
X64683Y502920D01*
X52582Y418976D02*
X136525Y502920D01*
X52415Y476284D02*
X79051Y502920D01*
X131369D02*
X175941Y458348D01*
X81080Y502920D02*
X174942Y409058D01*
X63271Y393745D02*
X172446Y502920D01*
X59096Y397920D02*
Y418976D01*
X52686Y481024D02*
X138039Y395672D01*
X57260Y418976D02*
X59096Y417140D01*
X52064Y474462D02*
X130946Y395580D01*
X120300Y393300D02*
X177903Y450903D01*
X113116Y393300D02*
X175934Y456119D01*
X146999Y384078D02*
X185274Y422353D01*
X144667Y388931D02*
X180178Y424441D01*
X70011Y393300D02*
X179631Y502920D01*
X50399Y490495D02*
X162234Y378660D01*
X59527Y502920D02*
X183787Y378660D01*
X52343Y502920D02*
X176603Y378660D01*
X150591Y380486D02*
X174753Y404648D01*
X145178Y385899D02*
X152416Y378660D01*
X163134D02*
X181006Y396532D01*
X155950Y378660D02*
X176960Y399671D01*
X144611Y389099D02*
X155050Y378660D01*
X126913Y378060D02*
X169693Y335280D01*
X63716Y393300D02*
X127309D01*
X59096Y397920D02*
X63716Y393300D01*
X134620Y376390D02*
Y385680D01*
Y394970D01*
X59096Y417140D02*
X82936Y393300D01*
X59096Y409956D02*
X75752Y393300D01*
X59096Y402772D02*
X68568Y393300D01*
X134620Y385680D02*
X143910D01*
X69440Y378060D02*
X104200Y343300D01*
X59824Y347192D02*
X90692Y378060D01*
X59096Y353649D02*
X83507Y378060D01*
X48478Y493899D02*
X57499Y502920D01*
X45207Y497812D02*
X50315Y502920D01*
X31029Y418976D02*
X114972Y502920D01*
X5080Y414580D02*
X93420Y502920D01*
X5080Y421764D02*
X86236Y502920D01*
X5080Y400212D02*
X107788Y502920D01*
X5080Y407396D02*
X100604Y502920D01*
X38213Y418976D02*
X122157Y502920D01*
X27264Y418976D02*
X59096D01*
X45397D02*
X129341Y502920D01*
X43180Y403060D02*
X57826D01*
X5080Y463972D02*
X50076Y418976D01*
X19435Y456801D02*
X57260Y418976D01*
X41192Y500981D02*
X43130Y502920D01*
X5080Y436133D02*
X24485Y455537D01*
X5080Y456788D02*
X42892Y418976D01*
X5080Y428949D02*
X31716Y455585D01*
X5080Y457685D02*
X10187Y462793D01*
X5080Y464870D02*
X7019Y466808D01*
X5080Y443317D02*
X18805Y457042D01*
X5080Y450501D02*
X14101Y459522D01*
X28533Y403060D02*
X43180D01*
X5080Y428051D02*
X27264Y405868D01*
X43180Y403060D02*
Y417706D01*
X5080Y420867D02*
X27264Y398684D01*
X5080Y449604D02*
X35707Y418976D01*
X5080Y442420D02*
X28523Y418976D01*
X5080Y435235D02*
X27264Y413052D01*
X47407Y464751D02*
X118857Y393300D01*
X43873Y461101D02*
X111673Y393300D01*
X45159Y502920D02*
X169419Y378660D01*
X50179Y469163D02*
X126042Y393300D01*
X34441Y456164D02*
X97305Y393300D01*
X28125Y455296D02*
X90121Y393300D01*
X39585Y458204D02*
X104489Y393300D01*
X27264Y387143D02*
X48320D01*
X38804D02*
X56971Y368977D01*
X48320Y387143D02*
X55168Y380295D01*
X45988Y387143D02*
X89831Y343300D01*
X45687Y368977D02*
X56165Y379455D01*
X31620Y387143D02*
X49786Y368977D01*
X31319D02*
X48903Y386561D01*
X38503Y368977D02*
X52495Y382969D01*
X43180Y388413D02*
Y403060D01*
X27264Y387143D02*
Y418976D01*
X5080Y406499D02*
X42602Y368977D01*
X5080Y378659D02*
X27264Y400843D01*
X5080Y413683D02*
X27264Y391499D01*
X5080Y393027D02*
X27264Y415211D01*
X5080Y385843D02*
X27264Y408027D01*
X5080Y364291D02*
X27933Y387143D01*
X5080Y384946D02*
X27264Y362762D01*
X5080Y349922D02*
X42301Y387143D01*
X5080Y357106D02*
X35117Y387143D01*
X5080Y399314D02*
X35418Y368977D01*
X5080Y371475D02*
X27264Y393658D01*
X5080Y392130D02*
X28234Y368977D01*
X134401Y375122D02*
X143869Y365655D01*
X120589Y343300D02*
X143407Y366117D01*
X112545Y378060D02*
X144365Y346240D01*
X105361Y378060D02*
X137181Y346240D01*
X113405Y343300D02*
X139815Y369709D01*
X106221Y343300D02*
X136222Y373301D01*
X145082Y346240D02*
X162262Y363420D01*
X144365Y346240D02*
X145180Y345425D01*
Y339154D02*
X169446Y363420D01*
X145180Y335896D02*
Y346240D01*
X130713D02*
X147999Y363525D01*
X124060Y346240D02*
X145180D01*
X137898D02*
X155078Y363420D01*
X90992Y378060D02*
X124060Y344992D01*
X77484Y343300D02*
X112244Y378060D01*
X84668Y343300D02*
X119429Y378060D01*
X83808D02*
X118568Y343300D01*
X63416Y343600D02*
X97876Y378060D01*
X62255D02*
X97016Y343300D01*
X76624Y378060D02*
X111384Y343300D01*
X70300D02*
X105060Y378060D01*
X98176D02*
X129997Y346240D01*
X91852Y343300D02*
X126613Y378060D01*
X99037Y343300D02*
X131370Y375633D01*
X124060Y343300D02*
Y346240D01*
X60560Y378060D02*
X127309D01*
X59096Y352482D02*
X68279Y343300D01*
X63717D02*
X124060D01*
X148718Y363439D02*
X176878Y335280D01*
X148490D02*
X176631Y363420D01*
X155922D02*
X184062Y335280D01*
X155675D02*
X183815Y363420D01*
X119729Y378060D02*
X162509Y335280D01*
X145180Y345425D02*
X155325Y335280D01*
X145180Y338241D02*
X148141Y335280D01*
X141614Y199088D02*
X146100Y203574D01*
X155777Y184514D02*
X160468Y189205D01*
X136930Y223520D02*
X149470D01*
X137208Y209713D02*
X146915Y200005D01*
X139686Y209988D02*
X150671Y199002D01*
X145180Y335896D02*
X145796Y335280D01*
X134404Y325120D02*
X137249Y322275D01*
X124060Y325120D02*
Y328060D01*
X60560D02*
X124060D01*
Y325120D02*
X134404D01*
X136930Y210980D02*
Y223520D01*
Y236060D01*
X131961Y207775D02*
X140966Y198770D01*
X128369Y204183D02*
X137165Y195387D01*
X124390Y223520D02*
X136930D01*
X124777Y200591D02*
X135274Y190094D01*
X59096Y360833D02*
X76323Y378060D01*
X59096Y347920D02*
Y368977D01*
Y366851D02*
X82647Y343300D01*
X59096Y359666D02*
X75463Y343300D01*
X52871Y368977D02*
X61955Y378060D01*
X27264Y368977D02*
X59096D01*
Y368018D02*
X69139Y378060D01*
X56971Y368977D02*
X59096Y366851D01*
Y347920D02*
X63717Y343300D01*
X48320Y337144D02*
X55169Y330295D01*
X5080Y270896D02*
X62244Y328060D01*
X5080Y278080D02*
X56337Y329337D01*
X5080Y263712D02*
X69428Y328060D01*
X27264Y337144D02*
Y368977D01*
X5080Y363393D02*
X27264Y341210D01*
X5080Y328369D02*
X27264Y350553D01*
X5080Y335554D02*
X27264Y357737D01*
X5080Y370578D02*
X27264Y348394D01*
X5080Y377762D02*
X27264Y355578D01*
X5080Y342738D02*
X27264Y364921D01*
Y337144D02*
X48320D01*
X5080Y299633D02*
X42591Y337144D01*
X5080Y285264D02*
X52640Y332824D01*
X5080Y292449D02*
X49048Y336416D01*
X5080Y314001D02*
X28222Y337144D01*
X5080Y321185D02*
X27264Y343369D01*
X5080Y306817D02*
X35407Y337144D01*
X38514D02*
X138407Y237251D01*
X31330Y337144D02*
X132039Y236435D01*
X5080Y213422D02*
X119718Y328060D01*
X5080Y327472D02*
X117593Y214959D01*
X5080Y356209D02*
X127593Y233696D01*
X5080Y349025D02*
X124522Y229583D01*
X5080Y341841D02*
X123123Y223798D01*
X5080Y334656D02*
X121185Y218552D01*
X5080Y184685D02*
X140689Y320294D01*
X5080Y320288D02*
X114001Y211367D01*
X43716Y180216D02*
X183540Y320040D01*
X36532Y180216D02*
X176356Y320040D01*
X5080Y199054D02*
X131146Y325120D01*
X5080Y206238D02*
X124060Y325218D01*
X5080Y191870D02*
X136367Y323157D01*
X5080Y227791D02*
X105349Y328060D01*
X5080Y234975D02*
X98165Y328060D01*
X5080Y220606D02*
X112533Y328060D01*
X5080Y313104D02*
X110409Y207775D01*
X5080Y249343D02*
X83797Y328060D01*
X5080Y256527D02*
X76612Y328060D01*
X5080Y242159D02*
X90981Y328060D01*
X5080Y284367D02*
X96040Y193407D01*
X5080Y277183D02*
X92448Y189815D01*
X5080Y269999D02*
X88856Y186222D01*
X5080Y262814D02*
X85264Y182630D01*
X5080Y305920D02*
X106817Y204183D01*
X5080Y298736D02*
X103224Y200591D01*
X5080Y291551D02*
X99632Y196999D01*
X321717Y156480D02*
X536077Y370840D01*
X328901Y156480D02*
X475643Y303222D01*
X274398Y145082D02*
X632236Y502920D01*
X270806Y148674D02*
X490646Y368515D01*
X245494Y316953D02*
X420607Y141840D01*
X260030Y159451D02*
X400299Y299720D01*
X264396Y312420D02*
X434975Y141840D01*
X257211Y312420D02*
X427791Y141840D01*
X342459Y291830D02*
X486396Y147893D01*
X336086Y156480D02*
X476839Y297234D01*
X335275Y291830D02*
X481253Y145852D01*
X328091Y291830D02*
X477983Y141938D01*
X263622Y155858D02*
X407483Y299720D01*
X256437Y163043D02*
X386829Y293434D01*
X267214Y152266D02*
X414668Y299720D01*
X255340Y235265D02*
X334125Y156480D01*
X255340Y228081D02*
X326940Y156480D01*
X255340Y213712D02*
X320260Y148792D01*
X255340Y220896D02*
X320260Y155977D01*
X242022Y170180D02*
X364722Y292880D01*
X234838Y170180D02*
X357538Y292880D01*
X252845Y166635D02*
X379091Y292880D01*
X248748Y169721D02*
X371907Y292880D01*
X320260Y156480D02*
X342680D01*
X320260Y155023D02*
X321717Y156480D01*
X252158Y209710D02*
X320260Y141608D01*
X232612Y186151D02*
X249240Y169522D01*
X229943Y181636D02*
X241399Y170180D01*
X285174Y134306D02*
X519665Y368797D01*
X300317Y312420D02*
X476959Y135778D01*
X285948Y312420D02*
X534192Y64177D01*
X288766Y130714D02*
X525777Y367724D01*
X277990Y141490D02*
X513766Y377266D01*
X271580Y312420D02*
X443382Y140617D01*
X278764Y312420D02*
X527007Y64177D01*
X281582Y137898D02*
X515775Y372091D01*
X341539Y133197D02*
X342402Y134060D01*
X341600Y118890D02*
X357821Y135110D01*
X342176Y134060D02*
X357347Y118890D01*
X341069Y134060D02*
X342680D01*
X293132Y312420D02*
X569230Y36322D01*
X320260Y134060D02*
Y156480D01*
X244974Y209710D02*
X320260Y134424D01*
X292358Y127122D02*
X320260Y155023D01*
X251535Y167945D02*
X300590Y118890D01*
X230606Y209710D02*
X321426Y118890D01*
X237790Y209710D02*
X320312Y127187D01*
X231954Y193993D02*
X307057Y118890D01*
X320260Y134060D02*
X321871D01*
X320624D02*
X321429Y133255D01*
X312864Y118890D02*
X320411Y126437D01*
X299543Y119937D02*
X320260Y140655D01*
X295951Y123530D02*
X320260Y147839D01*
X305679Y118890D02*
X320850Y134060D01*
X184659Y363420D02*
X392649Y155430D01*
X184933Y320040D02*
X349543Y155430D01*
X207935Y325775D02*
X378280Y155430D01*
X205687Y320839D02*
X371096Y155430D01*
X64157Y171920D02*
X255657Y363420D01*
X59096Y174044D02*
X248473Y363420D01*
X177474D02*
X385464Y155430D01*
X177749Y320040D02*
X341309Y156480D01*
X228705Y171231D02*
X350354Y292880D01*
X223578Y173288D02*
X342120Y291830D01*
X229918Y170180D02*
X246144D01*
X225480Y178914D02*
X234214Y170180D01*
X195141Y317017D02*
X356727Y155430D01*
X201615Y317727D02*
X363912Y155430D01*
X192797Y178429D02*
X227720Y213352D01*
X196389Y174837D02*
X211461Y189909D01*
X206101Y170180D02*
X216196Y180275D01*
X199981Y171245D02*
X212771Y184034D01*
X61966Y328060D02*
X217673Y172353D01*
X45698Y337144D02*
X212662Y170180D01*
X150661Y224997D02*
X205478Y170180D01*
X150462Y220764D02*
X201046Y170180D01*
X217858Y179353D02*
X223979Y173231D01*
X213285Y170180D02*
X221548Y178443D01*
X222250Y162560D02*
Y172100D01*
X201046Y170180D02*
X214582D01*
X197890Y154940D02*
X214582D01*
X223621Y137668D02*
X260461Y100829D01*
X216437Y137668D02*
X255574Y98530D01*
X209253Y137668D02*
X252505Y94416D01*
X202069Y137668D02*
X251892Y87844D01*
X191843Y363420D02*
X413023Y142240D01*
X163322Y137668D02*
X228782D01*
X105071Y328060D02*
X314242Y118890D01*
X184000Y97790D02*
X223878Y137668D01*
X228782D02*
X266020Y100430D01*
X207638Y99875D02*
X237106Y129343D01*
X194884Y137668D02*
X327472Y5080D01*
X198369Y97790D02*
X233514Y132935D01*
X180516Y137668D02*
X313104Y5080D01*
X191185Y97790D02*
X229922Y136528D01*
X187700Y137668D02*
X320288Y5080D01*
X210382Y152908D02*
X212414Y154940D01*
X206349D02*
X208381Y152908D01*
X213533Y154940D02*
X215565Y152908D01*
X199165Y154940D02*
X201197Y152908D01*
X196013D02*
X198045Y154940D01*
X203197Y152908D02*
X205229Y154940D01*
X175729Y103887D02*
X209510Y137668D01*
X172137Y107479D02*
X202326Y137668D01*
X179321Y100295D02*
X216694Y137668D01*
X173332D02*
X210220Y100780D01*
X166478Y152908D02*
X217382D01*
X166147Y137668D02*
X205417Y98398D01*
X144810Y151821D02*
X198841Y97790D01*
X342098Y97835D02*
X347913Y103650D01*
X340389Y121479D02*
X342978Y118890D01*
X341296Y82665D02*
X362281Y103650D01*
X342070Y90623D02*
X355097Y103650D01*
X339692Y118890D02*
X376810D01*
X339336Y102257D02*
X340729Y103650D01*
X339692D02*
X373654D01*
X331470Y77270D02*
X341410D01*
X331470Y67330D02*
Y77270D01*
X300590Y118890D02*
X323248D01*
X320048D02*
X322588Y121430D01*
X272750Y93700D02*
X277565Y88885D01*
X272278Y85489D02*
X276620Y89830D01*
X317744Y86650D02*
X321674Y82720D01*
X321530Y77270D02*
X331470D01*
X310560Y86650D02*
X320265Y76946D01*
X282956Y86650D02*
X323248D01*
X266565Y36670D02*
X316545Y86650D01*
X266770Y29691D02*
X323483Y86404D01*
X339500Y86448D02*
X420867Y5080D01*
X306817D02*
X389520Y87783D01*
X341876Y98440D02*
X435235Y5080D01*
X342178Y90953D02*
X428051Y5080D01*
X292449D02*
X382336Y94967D01*
X285264Y5080D02*
X378744Y98560D01*
X299633Y5080D02*
X385928Y91375D01*
X303376Y86650D02*
X384946Y5080D01*
X335554D02*
X402386Y71912D01*
X331146Y66065D02*
X392130Y5080D01*
X340688Y70891D02*
X406499Y5080D01*
X336920Y67474D02*
X399314Y5080D01*
X321185D02*
X395993Y79888D01*
X314001Y5080D02*
X393112Y84191D01*
X328369Y5080D02*
X398252Y74962D01*
X278080Y5080D02*
X375152Y102152D01*
X281723Y86750D02*
X363393Y5080D01*
X296192Y86650D02*
X377762Y5080D01*
X289007Y86650D02*
X370578Y5080D01*
X270851Y83254D02*
X349025Y5080D01*
X266736Y80185D02*
X341841Y5080D01*
X273149Y88140D02*
X356209Y5080D01*
X266770Y29861D02*
X291551Y5080D01*
X266770Y22677D02*
X284367Y5080D01*
X270896D02*
X331883Y66068D01*
X266770Y15493D02*
X277183Y5080D01*
X266770Y15323D02*
X322287Y70840D01*
X266770Y22507D02*
X320325Y76062D01*
X266770Y9050D02*
Y36670D01*
X258180Y100127D02*
X262251Y104199D01*
X222816Y93500D02*
X247883Y118567D01*
X245012Y36670D02*
X294992Y86650D01*
X222511Y86011D02*
X251475Y114975D01*
X220067Y97936D02*
X244291Y122159D01*
X199054Y5080D02*
X280905Y86931D01*
X161014Y17330D02*
X255067Y111383D01*
X252196Y36670D02*
X302176Y86650D01*
X239150Y36670D02*
X266770D01*
X259381D02*
X309361Y86650D01*
X239150Y9050D02*
X266770D01*
X209784Y79663D02*
X252777Y36670D01*
X199713Y82550D02*
X245593Y36670D01*
X216531Y80101D02*
X259961Y36670D01*
X215532Y100585D02*
X240699Y125751D01*
X181826Y97790D02*
X204766D01*
X178142Y82568D02*
X239150Y21560D01*
X156295Y34163D02*
X204682Y82550D01*
X137431Y116095D02*
X239150Y14376D01*
X192529Y82550D02*
X239150Y35928D01*
X178670Y82550D02*
X204766D01*
X239150Y9050D02*
Y36670D01*
X185344Y82550D02*
X239150Y28744D01*
X161929Y25429D02*
X216649Y80149D01*
X159845Y30529D02*
X209160Y79844D01*
X149524Y75265D02*
X219709Y5080D01*
X220718Y83097D02*
X298736Y5080D01*
X206238D02*
X287808Y86650D01*
X260164Y79572D02*
X334656Y5080D01*
X223100Y87900D02*
X305920Y5080D01*
X155948D02*
X258659Y107791D01*
X177501Y5080D02*
X254869Y82448D01*
X191870Y5080D02*
X267171Y80382D01*
X184685Y5080D02*
X259380Y79775D01*
X258844Y9050D02*
X262814Y5080D01*
X256527D02*
X260497Y9050D01*
X263712Y5080D02*
X326075Y67443D01*
X266029Y9050D02*
X269999Y5080D01*
X37465D02*
X673735D01*
X249343D02*
X253313Y9050D01*
X251660D02*
X255630Y5080D01*
X149821Y82152D02*
X226893Y5080D01*
X146524Y71081D02*
X212525Y5080D01*
X163133D02*
X252533Y94480D01*
X170317Y5080D02*
X252143Y86906D01*
X130247Y108911D02*
X234078Y5080D01*
X96557Y106680D02*
X198157Y5080D01*
X133839Y112503D02*
X241262Y5080D01*
X234975D02*
X239150Y9255D01*
X227791Y5080D02*
X239150Y16439D01*
X244476Y9050D02*
X248446Y5080D01*
X242159D02*
X246129Y9050D01*
X213422Y5080D02*
X239150Y30808D01*
X141658Y68763D02*
X205341Y5080D01*
X220606D02*
X239150Y23624D01*
X159693Y159693D02*
X174837Y174837D01*
X156770Y163954D02*
X171245Y178429D01*
X156825Y190095D02*
X194013Y152908D01*
X155822Y193851D02*
X192499Y157175D01*
X146914Y178454D02*
X172460Y152908D01*
X154689Y169058D02*
X167653Y182021D01*
X155590Y184146D02*
X186828Y152908D01*
X152207Y180345D02*
X179644Y152908D01*
X174461D02*
X185613Y164060D01*
X188829Y152908D02*
X192805Y156884D01*
X181645Y152908D02*
X189205Y160468D01*
X163285Y156101D02*
X178429Y171245D01*
X159693Y159693D02*
X174837Y174837D01*
X167276Y152908D02*
X182021Y167653D01*
X121185Y196999D02*
X144878Y173306D01*
X150745Y172297D02*
X164060Y185613D01*
X117593Y193407D02*
X139695Y171305D01*
X114001Y189815D02*
X136395Y167421D01*
X74553Y171920D02*
X123398Y220764D01*
X110409Y186222D02*
X135311Y161320D01*
X83101Y158915D02*
X134174Y209988D01*
X156860Y162526D02*
X166478Y152908D01*
X144525Y173262D02*
X150766Y179503D01*
X146084Y151750D02*
X157931Y139903D01*
X99632Y175446D02*
X135378Y139700D01*
X146884D02*
X152509Y145325D01*
X150260Y135892D02*
X156101Y141733D01*
X106817Y182630D02*
X149747Y139700D01*
X132516D02*
X144656Y151840D01*
X139700Y139700D02*
X148917Y148917D01*
X139700Y139700D02*
X148917Y148917D01*
X154177Y125440D02*
X166405Y137668D01*
X150585Y129032D02*
X159988Y138436D01*
X168545Y111071D02*
X195142Y137668D01*
X161361Y118256D02*
X180773Y137668D01*
X150260Y129356D02*
Y139700D01*
X129140D02*
X150260D01*
Y139187D02*
X191657Y97790D01*
X103224Y179038D02*
X142563Y139700D01*
X96040Y171854D02*
X129140Y138754D01*
X92448Y168262D02*
X129140Y131570D01*
X88856Y164670D02*
X126655Y126871D01*
X78815Y121920D02*
X138444Y181549D01*
X71631Y121920D02*
X135728Y186018D01*
X85999Y121920D02*
X142952Y178873D01*
X93183Y121920D02*
X135348Y164085D01*
X129140Y129356D02*
Y139700D01*
X107552Y121920D02*
X139552Y153921D01*
X100367Y121920D02*
X136313Y157865D01*
X85264Y161078D02*
X123063Y123279D01*
X75293Y156680D02*
X110053Y121920D01*
X81480Y157678D02*
X117238Y121920D01*
X50901Y180216D02*
X190144Y319460D01*
X29348Y180216D02*
X169172Y320040D01*
X5080Y248446D02*
X78080Y175446D01*
X5080Y241262D02*
X74422Y171920D01*
X5080Y177501D02*
X147619Y320040D01*
X5080Y255630D02*
X81672Y179038D01*
X5080Y163133D02*
X161987Y320040D01*
X5080Y170317D02*
X154803Y320040D01*
X71341Y171920D02*
X123121Y223700D01*
X59096Y171920D02*
X74553D01*
X59096Y156680D02*
X77710D01*
X59096Y152491D02*
X63285Y156680D01*
X59096Y180061D02*
X67238Y171920D01*
X59096D02*
Y180216D01*
Y172877D02*
X60053Y171920D01*
X5080Y205341D02*
X30204Y180216D01*
X5080Y198157D02*
X27264Y175973D01*
X5080Y183788D02*
X27264Y161605D01*
X5080Y190972D02*
X27264Y168789D01*
X5080Y234078D02*
X58941Y180216D01*
X5080Y226893D02*
X51757Y180216D01*
X5080Y219709D02*
X44573Y180216D01*
X5080Y212525D02*
X37389Y180216D01*
X27264D02*
X59096D01*
X28533Y164300D02*
X43180D01*
Y149653D02*
Y164300D01*
Y178946D01*
X27264Y178132D02*
X29348Y180216D01*
X5080Y155948D02*
X27264Y178132D01*
X5080Y176604D02*
X27264Y154420D01*
X60925Y156680D02*
X95685Y121920D01*
X59096Y148383D02*
Y156680D01*
X64446Y121920D02*
X136192Y193666D01*
X68109Y156680D02*
X102869Y121920D01*
X51190Y130217D02*
X77654Y156680D01*
X44006Y130217D02*
X70469Y156680D01*
X59096Y123754D02*
X142508Y207166D01*
X58374Y130217D02*
X137902Y209744D01*
X47669Y148383D02*
X74132Y121920D01*
X40485Y148383D02*
X58652Y130217D01*
X59096Y151324D02*
X88501Y121920D01*
X54853Y148383D02*
X81316Y121920D01*
X27264Y148383D02*
X59096D01*
X33300D02*
X51467Y130217D01*
X36822D02*
X54989Y148383D01*
X5080Y141580D02*
X27264Y163764D01*
Y148383D02*
Y180216D01*
X5080Y162235D02*
X37099Y130217D01*
X5080Y134396D02*
X27264Y156579D01*
X5080Y169420D02*
X44283Y130217D01*
X5080Y148764D02*
X27264Y170948D01*
X5080Y37465D02*
Y470535D01*
X29637Y130217D02*
X47804Y148383D01*
X5080Y147867D02*
X27264Y125683D01*
X5080Y112843D02*
X40620Y148383D01*
X5080Y140683D02*
X27264Y118499D01*
X5080Y155051D02*
X29915Y130217D01*
X5080Y127212D02*
X27264Y149395D01*
X5080Y120027D02*
X33436Y148383D01*
X164953Y114663D02*
X187957Y137668D01*
X157769Y121848D02*
X173589Y137668D01*
X150260Y132003D02*
X184473Y97790D01*
X150260Y129356D02*
X181826Y97790D01*
X145463Y87989D02*
X157769Y100295D01*
X139985Y89696D02*
X154177Y103887D01*
X139700Y118364D02*
X173279Y84785D01*
X82188Y106680D02*
X153001Y35867D01*
X151301Y36353D02*
X197497Y82550D01*
X150233Y78391D02*
X164953Y93111D01*
X148929Y84271D02*
X161361Y96703D01*
X139700Y79140D02*
X148990D01*
X130251Y108915D02*
X139700Y118364D01*
X125282Y106692D02*
X142712Y89261D01*
X114736Y121920D02*
X129140Y136324D01*
X59096Y122587D02*
X59764Y121920D01*
X121704D02*
X129140Y129356D01*
X59096Y106680D02*
X124860D01*
X130410Y79140D02*
X139700D01*
X118109Y106680D02*
X135826Y88963D01*
X139700Y69850D02*
Y79140D01*
Y88430D01*
X110925Y106680D02*
X131641Y85964D01*
X103741Y106680D02*
X129323Y81098D01*
X75004Y106680D02*
X145347Y36337D01*
X143579Y35816D02*
X190313Y82550D01*
X161367Y27502D02*
X183788Y5080D01*
X105659D02*
X183129Y82550D01*
X89372Y106680D02*
X190972Y5080D01*
X84106D02*
X168545Y89519D01*
X98475Y5080D02*
X176317Y82922D01*
X91291Y5080D02*
X172137Y85927D01*
X155976Y11340D02*
X162235Y5080D01*
X150854Y9277D02*
X155051Y5080D01*
X161837Y19847D02*
X176604Y5080D01*
X159626Y14873D02*
X169420Y5080D01*
X148360Y22860D02*
X160900D01*
X148360Y10320D02*
Y22860D01*
X148764Y5080D02*
X153890Y10206D01*
X148360Y22860D02*
Y35400D01*
X67820Y106680D02*
X140373Y34126D01*
X76922Y5080D02*
X140449Y68606D01*
X69738Y5080D02*
X134568Y69910D01*
X60635Y106680D02*
X136840Y30476D01*
X59096Y101035D02*
X134777Y25354D01*
X62554Y5080D02*
X130851Y73377D01*
X135820Y22860D02*
X148360D01*
X134396Y5080D02*
X140691Y11375D01*
X142671Y10276D02*
X147867Y5080D01*
X141580D02*
X145791Y9291D01*
X112843Y5080D02*
X135404Y27641D01*
X120027Y5080D02*
X134867Y19919D01*
X127212Y5080D02*
X137057Y14925D01*
X59096Y121920D02*
X121704D01*
X59096Y129772D02*
X66948Y121920D01*
X59096Y102202D02*
X63575Y106680D01*
X59096Y98384D02*
Y106680D01*
Y121920D02*
Y130217D01*
X27264D02*
X59096D01*
X30967Y52519D02*
X85127Y106680D01*
X23582Y52319D02*
X77943Y106680D01*
X36726Y51094D02*
X92312Y106680D01*
X27264Y98384D02*
X59096D01*
X45451Y45451D02*
X106680Y106680D01*
X41487Y48671D02*
X99496Y106680D01*
X5080Y55370D02*
X48094Y98384D01*
X5080Y62554D02*
X40910Y98384D01*
X5080Y48185D02*
X55278Y98384D01*
X27264D02*
Y130217D01*
X5080Y98475D02*
X27264Y120658D01*
X5080Y84106D02*
X27264Y106290D01*
X5080Y91291D02*
X27264Y113474D01*
X5080Y105659D02*
X27264Y127843D01*
X5080Y133499D02*
X27264Y111315D01*
X5080Y126314D02*
X27264Y104131D01*
X5080Y76025D02*
X28404Y52701D01*
X5080Y68841D02*
X21951Y51970D01*
X5080Y61656D02*
X16719Y50017D01*
X5080Y54472D02*
X12361Y47191D01*
X5080Y69738D02*
X33726Y98384D01*
X5080Y76922D02*
X27264Y99106D01*
X5080Y83209D02*
X37506Y50783D01*
X52519Y30967D02*
X139808Y118256D01*
X48671Y41487D02*
X113864Y106680D01*
X48185Y5080D02*
X150585Y107479D01*
X52319Y23582D02*
X143400Y114663D01*
X5080Y119130D02*
X119130Y5080D01*
X45451Y45451D02*
X106680Y106680D01*
X41001Y5080D02*
X146993Y111071D01*
X5080Y111946D02*
X111946Y5080D01*
X54563Y98384D02*
X135776Y17171D01*
X51094Y36726D02*
X121048Y106680D01*
X47379Y98384D02*
X140683Y5080D01*
X55370D02*
X129144Y78854D01*
X33011Y98384D02*
X126314Y5080D01*
X5080Y104762D02*
X104762Y5080D01*
X40195Y98384D02*
X133499Y5080D01*
X5080Y47288D02*
X8761Y43607D01*
X5080Y40104D02*
X5917Y39267D01*
X50783Y37506D02*
X83209Y5080D01*
X5080Y97577D02*
X97577Y5080D01*
X5080Y41001D02*
X70759Y106680D01*
X5080Y90393D02*
X90393Y5080D01*
X50017Y16719D02*
X61656Y5080D01*
X47191Y12361D02*
X54472Y5080D01*
X52701Y28404D02*
X76025Y5080D01*
X51970Y21951D02*
X68841Y5080D01*
X39267Y5917D02*
X40104Y5080D01*
X43607Y8761D02*
X47288Y5080D01*
D40*
X406400Y360680D02*
X468630D01*
X331470Y111270D02*
X376810D01*
X255724Y320040D02*
X336550D01*
X248104Y327660D02*
X255724Y320040D01*
X336550Y371040D02*
X380800D01*
X149260D02*
X336550D01*
X376810Y111270D02*
X406400Y81680D01*
X439820Y48260D01*
X471970D01*
X486410Y302260D02*
X524510D01*
X468630Y360680D02*
X486410Y378460D01*
X391560Y360280D02*
X406400D01*
X142640Y327660D02*
X197311D01*
X134620Y335680D02*
X142640Y327660D01*
X247250D02*
X248104D01*
X380800Y371040D02*
X391560Y360280D01*
X608082Y28702D02*
X621030Y41650D01*
X471970Y48260D02*
X491528Y28702D01*
X608082D01*
X134620Y385680D02*
X149260Y371040D01*
X136930Y223520D02*
X197890Y162560D01*
X60560Y385680D02*
X134620D01*
X43180Y403060D02*
X60560Y385680D01*
X43180Y164300D02*
X77710D01*
X136930Y223520D01*
X297434Y111270D02*
X331470D01*
X222250Y162560D02*
X246144D01*
X297434Y111270D01*
X197890Y162560D02*
X222250D01*
X588010Y161290D02*
X613410D01*
X619760Y167640D01*
X563880Y137160D02*
X588010Y161290D01*
X487680Y137160D02*
X552190Y72650D01*
X621030D01*
X178670Y90170D02*
X212490D01*
X139700Y129140D02*
X178670Y90170D01*
X60560Y335680D02*
X134620D01*
X43180Y353060D02*
X60560Y335680D01*
X43180Y114300D02*
X124860D01*
X139700Y129140D01*
X282956Y94270D02*
X331470D01*
X231938Y145288D02*
X282956Y94270D01*
X163322Y145288D02*
X231938D01*
X146050Y162560D02*
X163322Y145288D01*
X568960Y299720D02*
X582930D01*
X566420Y302260D02*
X568960Y299720D01*
X552450Y302260D02*
X566420D01*
X613410Y299720D02*
X643890D01*
X582930Y375920D02*
X613410D01*
X524510Y378460D02*
X552450D01*
D41*
X331470Y145270D02*
X392810D01*
X406400Y131680D01*
X438550D01*
X336550Y303040D02*
X383520D01*
X390760Y310280D01*
X406400D01*
X438550Y131680D02*
X521970Y48260D01*
X576580Y251460D02*
X681990D01*
X487680Y162560D02*
X576580Y251460D01*
D44*
X336550Y303040D02*
D03*
X331470Y145270D02*
D03*
D45*
X336550Y320040D02*
D03*
Y354040D02*
D03*
Y337040D02*
D03*
Y371040D02*
D03*
X331470Y111270D02*
D03*
Y77270D02*
D03*
Y128270D02*
D03*
Y94270D02*
D03*
D46*
X262890Y457200D02*
D03*
Y433070D02*
D03*
X486410Y378460D02*
D03*
X186690Y457200D02*
D03*
X222250Y162560D02*
D03*
X524510Y302260D02*
D03*
Y378460D02*
D03*
X486410Y302260D02*
D03*
X563880Y162560D02*
D03*
Y137160D02*
D03*
X643890Y375920D02*
D03*
X487680Y162560D02*
D03*
Y137160D02*
D03*
X643890Y299720D02*
D03*
X582930Y375920D02*
D03*
Y299720D02*
D03*
X613410D02*
D03*
Y375920D02*
D03*
X146050Y162560D02*
D03*
Y189230D02*
D03*
X222250D02*
D03*
X185420Y406400D02*
D03*
X261620D02*
D03*
X186690Y433070D02*
D03*
X552450Y378460D02*
D03*
Y302260D02*
D03*
D47*
X455460Y462280D02*
D03*
X471970Y48260D02*
D03*
X505460Y462280D02*
D03*
X521970Y48260D02*
D03*
D48*
X406400Y360280D02*
D03*
X646030Y113030D02*
D03*
X406400Y81680D02*
D03*
X134620Y385680D02*
D03*
X139700Y79140D02*
D03*
D49*
X681990Y149860D02*
D03*
D50*
X621030Y41650D02*
D03*
Y72650D02*
D03*
D51*
X136930Y223520D02*
D03*
X148360Y22860D02*
D03*
D52*
X43180Y403060D02*
D03*
Y164300D02*
D03*
Y353060D02*
D03*
Y114300D02*
D03*
D53*
X406400Y310280D02*
D03*
X406400Y131680D02*
D03*
X134620Y335680D02*
D03*
X139700Y129140D02*
D03*
D54*
X596030Y113030D02*
D03*
D55*
X589280Y430530D02*
D03*
X614680D02*
D03*
X640080D02*
D03*
Y481330D02*
D03*
X589280D02*
D03*
X247250Y327660D02*
D03*
X197250D02*
D03*
X262490Y90170D02*
D03*
X212490D02*
D03*
D56*
X681990Y251460D02*
D03*
Y226060D02*
D03*
Y200660D02*
D03*
Y175260D02*
D03*
D57*
X241530Y223520D02*
D03*
X252960Y22860D02*
D03*
D58*
X683260Y480060D02*
D03*
X27940Y27940D02*
D03*
Y480060D02*
D03*
X683260Y27940D02*
D03*
D59*
X619760Y167640D02*
D03*
M02*
