M48
;Layer_Color=9474304
;FILE_FORMAT=4:4
METRIC,LZ
;TYPE=PLATED
T01F00S00C0.7000
T02F00S00C0.7112
T03F00S00C0.8000
T04F00S00C0.8500
T05F00S00C0.9000
T06F00S00C1.0800
T07F00S00C1.2000
T08F00S00C1.6142
T09F00S00C3.1750
%
T01
X0062103Y0004165
Y0007265
T02
X0061976Y0016764
T03
X001397Y0007914
Y0012914
X004064Y0013168
Y0008168
X0059603Y0011303
X0064603
X004064Y0031028
Y0036028
X0013462Y0033568
Y0038568
T04
X0048768Y0013716
X0056388
Y0016256
X0055245Y0030226
X0058293Y0029972
X0061341
X0064389
Y0037592
X0061341
X0058293
X0055245Y0037846
X0052451
X0048641
Y0030226
X0052451
X0048768Y0016256
X0022225
Y0018923
X0014605
Y0016256
X0018542Y004064
X0018669Y0043307
Y004572
X0026289
Y0043307
X0026162Y004064
T05
X0021249Y0009017
X0026249
X0068199Y0014986
Y0017526
Y0020066
Y0022606
Y0025146
X0064008Y0043053
X0061468
X0058928
Y0048133
X0064008
X0024725Y0032766
X0019725
T06
X0033147Y0007727
Y0009427
Y0011127
Y0012827
Y0014527
X0033655Y0030304
Y0032004
Y0033704
Y0035404
Y0037104
T07
X0014836Y0002286
X0025296
X0024153Y0022352
X0013693
T08
X0004318Y001143
X0047197Y0004826
X0052197
X0050546Y0046228
X0045546
X0004318Y0040306
Y0035306
Y001643
T09
X0002794Y0002794
X0068326
Y0048006
X0002794
M30
