G04*
G04 #@! TF.GenerationSoftware,Altium Limited,Altium Designer,25.8.1 (18)*
G04*
G04 Layer_Color=32768*
%FSLAX44Y44*%
%MOMM*%
G71*
G04*
G04 #@! TF.SameCoordinates,BF8AE3AB-10A6-47A9-9AB8-1695DD9DDF60*
G04*
G04*
G04 #@! TF.FilePolarity,Positive*
G04*
G01*
G75*
%ADD60C,0.0500*%
%ADD61C,0.0254*%
D60*
X269750Y327660D02*
G03*
X269750Y327660I-47500J0D01*
G01*
X284990Y90170D02*
G03*
X284990Y90170I-47500J0D01*
G01*
X519870Y202100D02*
Y255100D01*
X446770Y202100D02*
X519870D01*
X446770D02*
Y255100D01*
X519870D01*
X352620Y205910D02*
X425720D01*
Y258910D01*
X352620D02*
X425720D01*
X352620Y205910D02*
Y258910D01*
X305550Y281840D02*
Y392240D01*
X357550D01*
Y281840D02*
Y392240D01*
X305550Y281840D02*
X357550D01*
X577180Y547830D02*
X652180D01*
X577180Y420990D02*
Y547830D01*
X652180Y420990D02*
Y547830D01*
X577180Y420990D02*
X652180D01*
X362470Y56070D02*
Y166470D01*
X310470Y56070D02*
X362470D01*
X310470D02*
Y166470D01*
X362470D01*
D61*
X535940Y421640D02*
Y502920D01*
X425450Y421640D02*
X535940D01*
X425450D02*
Y502920D01*
X535940D01*
X2540Y322580D02*
X83820D01*
X2540D02*
Y433070D01*
X83820D01*
Y322580D02*
Y433070D01*
X2540Y83820D02*
X83820D01*
X2540D02*
Y194310D01*
X83820D01*
Y83820D02*
Y194310D01*
X552450Y7620D02*
Y88900D01*
X441960Y7620D02*
X552450D01*
X441960D02*
Y88900D01*
X552450D01*
M02*
